<svg id="Group_930" data-name="Group 930" xmlns="http://www.w3.org/2000/svg" xmlns:xlink="http://www.w3.org/1999/xlink" width="491" height="389.842" viewBox="0 0 491 389.842">
  <defs>
    <clipPath id="clip-path">
      <path id="Path_1068" data-name="Path 1068" d="M914.51,710.874c-48.714,52.56-115.528,17.018-187.141,28.684s-123.591-11.964-148.7-54.678-15.2-126.432,54.407-185.471c35.247-29.9,88.815-69.624,176.2-37.011C906.628,498.729,971.4,649.5,914.51,710.874Z" transform="translate(-566.133 -450.181)" fill="none"/>
    </clipPath>
  </defs>
  <path id="Path_1037" data-name="Path 1037" d="M914.51,710.874c-48.714,52.56-115.528,17.018-187.141,28.684s-123.591-11.964-148.7-54.678-15.2-126.432,54.407-185.471c35.247-29.9,88.815-69.624,176.2-37.011C906.628,498.729,971.4,649.5,914.51,710.874Z" transform="translate(-551.382 -352.685)" fill="#e2f3fc"/>
  <path id="Path_1038" data-name="Path 1038" d="M734.342,442.3c39.4-.351,81.763-20.891,90.2-1.4s-14.294,98.132-90.232,90.5c-81.784-8.223-78.723-112.684-53.6-112.8C694.969,418.531,689.344,442.7,734.342,442.3Z" transform="translate(-346.197 -418.195)" fill="#e2f3fc"/>
  <path id="Path_1039" data-name="Path 1039" d="M612.4,575.959c0-14.94.277-54.226,59.479-54.226s61.972,4.7,61.972,4.7,36.243,11.9,36.243,49.523Z" transform="translate(-455.426 -204.285)" fill="#ec970b"/>
  <path id="Path_1040" data-name="Path 1040" d="M770.089,575.16H612.4c0-13.4.224-46.4,43.015-53.042-30.82,10.406-31.008,38.158-31.008,50.165h145.6C770.067,573.218,770.089,574.177,770.089,575.16Z" transform="translate(-455.428 -203.486)" fill="#ffab00"/>
  <rect id="Rectangle_1725" data-name="Rectangle 1725" width="103.538" height="106.19" transform="translate(49.128 91.224)" fill="#fff"/>
  <rect id="Rectangle_1726" data-name="Rectangle 1726" width="103.538" height="106.19" transform="translate(156.356 91.224)" fill="#fff"/>
  <rect id="Rectangle_1727" data-name="Rectangle 1727" width="103.538" height="106.19" transform="translate(49.128 201.162)" fill="#fff"/>
  <rect id="Rectangle_1728" data-name="Rectangle 1728" width="103.538" height="106.19" transform="translate(156.356 201.162)" fill="#fff"/>
  <path id="Path_1041" data-name="Path 1041" d="M703.4,746.373s-.4.243-1.14.667c-15.945-1.156-32.422-2.309-49.264-1.626a29,29,0,0,1-2.189-4.94c-8.878-25.855-9.047-50.027-5.853-72.264,6.034-42.062,24.107-77.189,18.057-103.622-.2-.867-.409-1.718-.637-2.57-.32-1.263-.685-2.524-1.067-3.756-10.289-33.35-38.883-60.073-45.812-96.066-.412-2.13-.747-4.3-.99-6.508-.135-1.2-.243-2.4-.335-3.618-.059-.971-.12-1.958-.151-2.948l112.107-2.355a92.5,92.5,0,0,0-2.89,8.921,122.941,122.941,0,0,0-3.345,18.5c-3.056,27.909.427,64.072,4.119,113.124C729.078,654.226,732.862,708.08,703.4,746.373Z" transform="translate(-452.056 -359.768)" fill="#c2e3f8"/>
  <path id="Path_1042" data-name="Path 1042" d="M687.558,448.768c-.031.99-.092,1.977-.151,2.951-.092,1.214-.2,2.416-.335,3.615a86.684,86.684,0,0,1-1.7,9.868c-7.98,34.306-35.13,60.408-45.083,92.709-.4,1.23-.762,2.493-1.082,3.753-.227.852-.44,1.7-.636,2.57-6.05,26.434,12.023,61.563,18.057,103.622,3.194,22.237,3.025,46.409-5.853,72.264a26.81,26.81,0,0,1-4.1,7.845c-25.687-4.378-47.06-14.654-63.432-29.431-12.782-35.112-9.622-79.378-5.684-131.578,1.094-14.485,2.173-27.832,3.071-40.19,2.84-39.4,3.83-68.584-2.3-91.434a88.716,88.716,0,0,0-2.871-8.921Z" transform="translate(-534.886 -360.5)" fill="#c2e3f8"/>
  <path id="Rectangle_1729" data-name="Rectangle 1729" d="M0,0H254.857a0,0,0,0,1,0,0V8.85a4.267,4.267,0,0,1-4.267,4.267H4.267A4.267,4.267,0,0,1,0,8.85V0A0,0,0,0,1,0,0Z" transform="translate(28.78 81.713)" fill="#ffab00"/>
  <path id="Path_1043" data-name="Path 1043" d="M662.452,528c-17.168,6.369-25.041-11.709-25.456-17.559v-.034a.472.472,0,0,1,0-.132v-.022c.012-.049.024-.108.034-.166a81.237,81.237,0,0,0,1.516-17.193c7.282,8.125,13.274,14.054,20.332,14.279,4.344.144,7.375-.224,10.938-3.692.083-.083.178-.178.273-.261a13.767,13.767,0,0,0,3.646,4.451C674.693,514.4,673.78,523.8,662.452,528Z" transform="translate(-404.421 -264.098)" fill="#f9b2a3"/>
  <path id="Path_1044" data-name="Path 1044" d="M716.406,569.021a172.128,172.128,0,0,1-8.749,25.908,106.888,106.888,0,0,1-10.6,19.286,96.053,96.053,0,0,1-6.714,8.583l-60.026-5.269s.1-1.2.261-3.314c.058-.83.129-1.814.2-2.927.922-13.212,2.675-44.539.449-65.068-1.927-17.762,1.777-28.831-3.609-38.007-.049-.071-.083-.141-.132-.212a39.933,39.933,0,0,1,9.234,6.44,22.292,22.292,0,0,0,1.909,1.528c.154.117.308.224.449.32s.308.2.461.3c.3.191.593.357.876.51h.012c.2.1.391.2.581.283a4.141,4.141,0,0,0,.569.237,7.85,7.85,0,0,0,1.562.474c.191.037.378.071.569.1h.034l.286.037c.2.012.4.022.59.022a7.659,7.659,0,0,0,5.589-2.65,11.124,11.124,0,0,0,.855-.984c.271-.344.544-.722.793-1.1a36.821,36.821,0,0,0,4.451-11.4c.129-.593.271-1.2.391-1.8a.464.464,0,0,0,0,.132v.034c.415,5.85,8.287,23.928,25.456,17.559,11.328-4.2,12.241-13.6,11.282-20.329a13.385,13.385,0,0,0,1.694,1.208c.178.307.354.51.507.556a7.2,7.2,0,0,0,.842.2h.012c3.065,1.506,7.353,2.345,13.166,1.125.071-.012.142-.034.225-.046,2.226,3.8,7.279,19.382,2.072,33.59a.907.907,0,0,1,.012.187c.495,6.809,2.343,13.345,2.828,19.133,0,.049.012.107.012.154C715.459,561.73,716.05,567.7,716.406,569.021Z" transform="translate(-424.125 -254.128)" fill="#2490d1"/>
  <path id="Path_1045" data-name="Path 1045" d="M747.5,588.266c0,17.485-4.654,24.472-6.345,25.124H627.336s1.516-1.208,3.766-2.927c5.232-3.978,14.479-10.691,18.1-11.319,5.174-.91,38.075,1.162,47.392-1.432,3.363-.935,7.473-2.226,11.38-3.609,6.938-2.453,13.2-5.164,13.366-6.489.261-2.072-3.812,1.125-7.541-34.334,0-.049-.012-.107-.012-.154-.781-7.341-1.221-13.784-1.5-19.431a.9.9,0,0,0-.012-.187c-.888-18.684.117-28.607-2.321-33.615v-.012a1.332,1.332,0,0,0-.1-.187,6.912,6.912,0,0,0-.378-.652c8.764-2.167,16.465-.913,21.211,7.055C738.72,519.559,747.5,570.778,747.5,588.266Z" transform="translate(-424.444 -253.302)" fill="#f9b2a3"/>
  <path id="Path_1046" data-name="Path 1046" d="M679.5,499.986c0,.676-.012,1.325-.037,1.977,0,.381-.009.772-.034,1.137-.059,1.86-.178,3.612-.332,5.294-.037.4-.071.793-.12,1.183-.034.391-.08.781-.129,1.171-.058.532-.129,1.067-.212,1.574a63.919,63.919,0,0,1-2.545,11.236c-.108.332-.215.664-.332.984l-.141.39c-.12.32-.227.64-.344.935-.058.166-.129.32-.191.486-.544,1.387-1.1,2.607-1.645,3.67a.6.6,0,0,0-.058.132c-.132.249-.261.486-.381.71-.141.27-.283.519-.424.768-.286.5-.556.947-.818,1.349-.129.2-.261.4-.39.581a18.268,18.268,0,0,1-2.035,2.582c-.083.071-.12.1-.12.1l.012.012v.012c-.1.083-.191.178-.274.261-3.563,3.467-6.594,3.836-10.938,3.692-7.058-.224-13.049-6.154-20.332-14.279-.021-1.1-.07-2.155-.141-3.16a69.232,69.232,0,0,1,.689-14.728.119.119,0,0,0,.009-.049c2.487-16.434,10.621-34.441,26.855-30.51C665.095,477.5,679.657,473.064,679.5,499.986Z" transform="translate(-403.56 -297.153)" fill="#f9b2a3"/>
  <path id="Path_1047" data-name="Path 1047" d="M646.8,542.344s8.819-33,9.692-34.85,1.851-3.812,6.317-3.919,16.864-.111,18.724,0,1.749,1.743.879,4.792-9.8,34.847-9.8,34.847S661.507,554,646.8,542.344Z" transform="translate(-384.067 -242.119)" fill="#ec970b"/>
  <path id="Path_1048" data-name="Path 1048" d="M683,505.428c-13.793-1.147-18.1-.732-22.155.959-2.533,1.054-9.056,28.072-11.352,37.866a27.764,27.764,0,0,1-2.687-1.909s8.819-33,9.683-34.853,1.86-3.815,6.323-3.919,16.858-.108,18.718,0C682.655,503.63,683.058,504.257,683,505.428Z" transform="translate(-384.063 -242.12)" fill="#ffab00"/>
  <path id="Path_1049" data-name="Path 1049" d="M648.215,516.751c.5.32.981.615,1.466.864l-2.259,2.616C647.456,520.019,647.754,518.74,648.215,516.751Z" transform="translate(-382.785 -214.618)" fill="#e975ab"/>
  <path id="Path_1050" data-name="Path 1050" d="M747.5,588.266c0,17.485-4.654,24.472-6.345,25.124H627.336s1.516-1.208,3.766-2.927c5.232-3.978,14.479-10.691,18.1-11.319a59.139,59.139,0,0,1,7.495-.249c49.36,16.246,76.257,7.365,80.226-9.944,4.107-17.937-5.423-22.434-8.076-36.418-2.545-13.344,13.888-45.145-18.684-53.657,8.478-1.931,15.914-.532,20.531,7.221C738.723,519.562,747.5,570.778,747.5,588.266Z" transform="translate(-424.444 -253.302)" fill="#f69b8d"/>
  <path id="Path_1051" data-name="Path 1051" d="M738.524,544.84a67.6,67.6,0,0,1-6.431,7.221c-9.671,9.425-18.826,11.983-29.256,17.122-12.693,6.274-21.466,17.236-29.136,23.513-4.525,3.692-16.766,10.206-26.062,14.927-4.427,2.263-8.18,4.11-10.132,5.057a2.077,2.077,0,0,1-2.487-.474c-19.677-22.637-16.883-83.589-12.729-99.749,1.943-7.565,8.918-13.993,16.176-11.721a20.571,20.571,0,0,1,5.988,1.93h.012c.049.071.083.142.132.212,5.385,9.176,1.681,20.246,3.609,38.007,1.174,10.8,1.245,24.577.913,37.141,13.025-4.359,30-16.422,36.489-21.562,9.8-7.756,15.545-15.262,21.266-19.855,7.528-6.05,16.667-8.014,22.115-7.777,2.582.1,4.322.722,4.688,1.62.71,1.8-1.254,2.321-4.273,2.973-4.476.971-11.285,2.213-15.167,8.229A75.533,75.533,0,0,0,729.975,537a18.913,18.913,0,0,0,6.191-4.107c4.712-5.257,3.836,3.421-1.313,7.292a26.139,26.139,0,0,1-3.873,2.37,37.5,37.5,0,0,1-8.155,2.948,33.874,33.874,0,0,0,8.192-2.785,24.745,24.745,0,0,0,7.458-5.469c.44-.486,1.386-1.516,1.54-.212.108.9-1.137,4.712-6.913,9.517,1.408-1.1,3.953-3.114,5.764-4.58C739.529,541.443,741.6,540.874,738.524,544.84Z" transform="translate(-441.103 -248.793)" fill="#f9b2a3"/>
  <path id="Path_1052" data-name="Path 1052" d="M734.052,515.722c-1.362,1.586-2.7,3.007-4.039,4.3-9.671,9.425-18.825,11.983-29.255,17.122-12.693,6.274-21.466,17.236-29.136,23.513-4.525,3.692-16.766,10.206-26.062,14.928-4.427,2.262-8.18,4.11-10.132,5.057a2.077,2.077,0,0,1-2.487-.473c-6.253-7.2-10.242-18.269-12.634-30.547,7.839,12.29,10.289,16.824,18.376,12.17,9.483-5.457,24.14-1.94,33.043-8.724s20.9-24.389,34.2-24.614C714.845,528.3,726.533,522.27,734.052,515.722Z" transform="translate(-439.023 -216.752)" fill="#f69b8d"/>
  <path id="Path_1053" data-name="Path 1053" d="M644.437,578.026c-1.386-5.73-3.707-13.618-4.654-23.267-1.516-15.389-3.895-30.688-4.285-36.513-1.137-17.012-6.892-17.522-13.935-13.3,3.148-3.612,7.624-5.647,12.219-4.214a20.57,20.57,0,0,1,5.988,1.93h.012c.049.071.083.142.132.212,5.385,9.176,1.681,20.246,3.609,38.007C644.5,549.847,644.578,567.356,644.437,578.026Z" transform="translate(-436.418 -248.792)" fill="#f69b8d"/>
  <path id="Path_1054" data-name="Path 1054" d="M657.723,496.1c-9.41,7.922-34.171,4.208-2.97,40.608" transform="translate(-399.244 -257.444)" fill="none"/>
  <path id="Path_1055" data-name="Path 1055" d="M648.244,527.538c-7.4-3.919-10.974-13.2-11.248-17.1v-.034a.472.472,0,0,1,0-.132v-.022c.012-.049.024-.108.037-.166a81.445,81.445,0,0,0,1.512-17.193c6.145,6.855,11.368,12.149,17.086,13.772C647.829,509.946,639.861,512.894,648.244,527.538Z" transform="translate(-404.421 -264.098)" fill="#f69b8d"/>
  <path id="Path_1056" data-name="Path 1056" d="M722.6,553.365c-.95.366-1.872.686-2.76.947-1.017.32-1.989.578-2.923.781-.083.012-.154.034-.225.046-5.813,1.22-10.1.381-13.166-1.125h-.012a16.67,16.67,0,0,1-3.043-1.964,13.767,13.767,0,0,1-3.646-4.451v-.012l-.013-.012s.037-.034.12-.1a18.263,18.263,0,0,0,2.035-2.582c.129-.178.261-.378.39-.581.261-.4.532-.851.818-1.349.141-.237.283-.5.424-.768.132-.224.249-.461.381-.71a.612.612,0,0,1,.058-.132c.544-1.063,1.1-2.284,1.645-3.67.061-.166.132-.32.191-.486.117-.295.237-.615.344-.934l.141-.39c.117-.32.224-.652.332-.984a63.942,63.942,0,0,0,2.545-11.235c.083-.507.141-1.042.212-1.574.049-.39.1-.781.129-1.171.049-.39.083-.781.12-1.183.154-1.682.273-3.434.332-5.294.025-.366.034-.756.034-1.137.025-.652.037-1.3.037-1.977.154-26.922-14.408-22.483-14.408-22.483-16.234-3.932-24.368,14.076-26.855,30.51a.12.12,0,0,1-.009.049,69.228,69.228,0,0,0-.689,14.728c.071,1.005.12,2.06.141,3.16a81.236,81.236,0,0,1-1.516,17.193c-.009.058-.022.117-.034.166v.021c-.12.606-.261,1.208-.391,1.8a36.218,36.218,0,0,1-4.451,11.4c-.249.378-.523.756-.793,1.1a11.121,11.121,0,0,1-.855.984,7.659,7.659,0,0,1-5.589,2.65c-.187,0-.39-.009-.59-.022l-.286-.037h-.034c-.191-.025-.378-.058-.569-.1a8.938,8.938,0,0,1-1.562-.474c-.19-.07-.381-.154-.569-.237s-.39-.187-.581-.283h-.012c-.283-.154-.581-.332-.876-.51-.154-.1-.308-.187-.461-.3s-.3-.2-.449-.32a22.282,22.282,0,0,1-1.909-1.528,39.928,39.928,0,0,0-9.235-6.44h-.012a20.57,20.57,0,0,0-5.988-1.93,14.94,14.94,0,0,0-4.417-.059c8.37-9.508,11.995-11.555,19.818-50.946,8.278-41.712,34.2-38.481,42.28-37.377,0,0,22.317-5.542,27.076,28.508C717.647,531.874,714.911,544.828,722.6,553.365Z" transform="translate(-431.154 -308.476)" fill="#393d44"/>
  <path id="Path_1057" data-name="Path 1057" d="M692.486,479.88c-16.1-3.732-24.177,14.2-26.649,30.556a.094.094,0,0,1-.012.049,69.227,69.227,0,0,0-.689,14.728c.071,1.005.12,2.06.141,3.16a81.444,81.444,0,0,1-1.512,17.193c-.013.058-.025.117-.037.166v.021c-.12.606-.261,1.208-.391,1.8a36.221,36.221,0,0,1-4.451,11.4c-.249.378-.523.756-.793,1.1a11.087,11.087,0,0,1-.855.984,7.659,7.659,0,0,1-5.589,2.65c-.187,0-.39-.009-.59-.022l-.286-.037h-.034c-.191-.025-.378-.058-.569-.1a8.937,8.937,0,0,1-1.562-.474c-.19-.07-.381-.154-.569-.237s-.39-.187-.581-.283h-.012c-.283-.154-.581-.332-.876-.51-.154-.1-.308-.187-.461-.3s-.3-.2-.449-.319a22.3,22.3,0,0,1-1.909-1.528,39.919,39.919,0,0,0-9.235-6.44h-.012a20.57,20.57,0,0,0-5.988-1.93,14.936,14.936,0,0,0-4.417-.059c1.86-2.109,3.492-3.861,4.974-5.73,7.445-3.338,13.3,1.325,19.594-5.1,5.979-6.1,4.51-39.369,14.242-56C668.05,475.828,682.421,472.431,692.486,479.88Z" transform="translate(-431.154 -299.576)" fill="#2f3236"/>
  <path id="Path_1058" data-name="Path 1058" d="M661.19,526.186a16.853,16.853,0,0,1-6.723-1.669h-.012a16.7,16.7,0,0,1-3.043-1.964,13.766,13.766,0,0,1-3.646-4.451v-.012l-.012-.012.117-.1a17.959,17.959,0,0,0,2.038-2.582c.129-.178.261-.378.39-.581.261-.4.532-.852.818-1.349.141-.237.283-.5.424-.768.132-.225.249-.461.381-.71a.608.608,0,0,1,.058-.132c.544-1.063,1.1-2.284,1.645-3.67.061-.166.132-.32.191-.486.117-.3.237-.615.344-.935l.141-.39c.117-.32.224-.652.332-.984a63.948,63.948,0,0,0,2.545-11.236c.083-.507.141-1.042.212-1.574.049-.39.1-.781.129-1.171.049-.39.083-.781.12-1.183.129-1.432.237-2.927.3-4.5C658.03,499.691,657.12,518.918,661.19,526.186Z" transform="translate(-382.099 -278.979)" fill="#2f3236"/>
  <path id="Path_1059" data-name="Path 1059" d="M648.515,490.867c-.138,1.408-1.949,2.385-4.048,2.183s-3.686-1.512-3.55-2.923,1.949-2.385,4.049-2.179S648.651,489.459,648.515,490.867Z" transform="translate(-396.295 -274.416)" fill="#f69b8d"/>
  <path id="Path_1060" data-name="Path 1060" d="M654.735,490.561c-.028,1.359-1.758,2.425-3.864,2.382s-3.8-1.177-3.769-2.536,1.758-2.425,3.867-2.382S654.763,489.2,654.735,490.561Z" transform="translate(-383.449 -274.199)" fill="#f69b8d"/>
  <g id="Group_908" data-name="Group 908" transform="translate(245.03 200.57)">
    <path id="Path_1061" data-name="Path 1061" d="M641.075,486.175c-.341-.753,2.136-1.961,5.158-2.367,3.071-.43,5.573.689,5.361,1.359-.187.673-2.419.5-5.115.888C643.765,486.414,641.232,486.879,641.075,486.175Z" transform="translate(-641.044 -483.712)" fill="#19282f"/>
  </g>
  <g id="Group_909" data-name="Group 909" transform="translate(262.394 201.019)">
    <path id="Path_1062" data-name="Path 1062" d="M646.694,484.535c.049-.541,2.007-.931,4.479-.476,2.515.449,4.531,2.315,4.193,2.785-.32.479-2.711-.716-4.921-1.107C648.228,485.322,646.639,485.125,646.694,484.535Z" transform="translate(-646.693 -483.858)" fill="#19282f"/>
  </g>
  <circle id="Ellipse_234" data-name="Ellipse 234" cx="1.789" cy="1.789" r="1.789" transform="translate(249.968 205.704)" fill="#19282f"/>
  <circle id="Ellipse_235" data-name="Ellipse 235" cx="1.789" cy="1.789" r="1.789" transform="translate(262.538 206.088)" fill="#19282f"/>
  <path id="Path_1063" data-name="Path 1063" d="M648.78,485.492c-1.134,4.445-1.248,6.987-.507,8.8.771,1.9,3.083,4.095,2.979,5.085-.194,1.823-4.525,1.389-7.27.046" transform="translate(-389.922 -279.449)" fill="none" stroke="#ef614e" stroke-miterlimit="10" stroke-width="0.561"/>
  <path id="Path_1064" data-name="Path 1064" d="M671.869,514.124a12.2,12.2,0,0,1-3.861,5.22,25.9,25.9,0,0,1-3.87,2.37,37.521,37.521,0,0,1-8.159,2.948c-1.632.412-3.148.627-4.131-.108s.676-.984.676-.984c13.59-2.558,17.593-7.451,18.73-10.138a21.462,21.462,0,0,1-1.506-1.832C672.388,508.938,673.006,511.164,671.869,514.124Z" transform="translate(-374.254 -227.77)" fill="#f69b8d"/>
  <path id="Path_1065" data-name="Path 1065" d="M663.875,517.351c.228-.175.4-.049.683-.061a8.836,8.836,0,0,1-3.766,4.359c-1.964.888-4.178,2.509-5.137,1.457s4.878-4.052,6.535-6.169a12.8,12.8,0,0,0,1.159-1.777,2.933,2.933,0,0,1-.888-1.349c.286-.283.569-.569.842-.876a6.94,6.94,0,0,1,.6-.6c.415-.32.842-.452.938.39.1.9-1.137,4.713-6.916,9.517C659.338,521.138,662.064,518.82,663.875,517.351Z" transform="translate(-365.925 -224.295)" fill="#f69b8d"/>
  <path id="Path_1066" data-name="Path 1066" d="M659.284,514.51a3.215,3.215,0,0,1-.178.366c-.5.307-.332-.178-.852-.947a.346.346,0,0,1,.117-.058C659.133,513.465,659.447,514.074,659.284,514.51Z" transform="translate(-360.319 -220.867)" fill="#f69b8d"/>
  <g id="Group_911" data-name="Group 911" transform="translate(14.751 97.496)">
    <g id="Group_910" data-name="Group 910" clip-path="url(#clip-path)">
      <rect id="Rectangle_1730" data-name="Rectangle 1730" width="324.587" height="11.697" transform="translate(51.832 278.518)" fill="#6a8a8b"/>
      <path id="Path_1067" data-name="Path 1067" d="M875.026,535.543H617.4l-34.41,16.114H907.581Z" transform="translate(-531.162 -273.139)" fill="#4b5d60"/>
    </g>
  </g>
  <path id="Path_1069" data-name="Path 1069" d="M823.757,445.048a13.13,13.13,0,0,1-13.117,13.117H582.022a13.085,13.085,0,0,1-10.458-5.2,13,13,0,0,0,8.146,2.828H808.329a13.107,13.107,0,0,0,12.908-10.747Z" transform="translate(-540.117 -363.331)" fill="#ec970b"/>
  <g id="Group_914" data-name="Group 914" transform="translate(277.959)">
    <path id="Path_1070" data-name="Path 1070" d="M655.4,419.006h67.831a3.646,3.646,0,0,1,3.646,3.646v29.3a1.278,1.278,0,0,1-2.195.892l-4.248-4.365a1.272,1.272,0,0,0-.916-.387H655.4a3.649,3.649,0,0,1-3.646-3.649V422.652A3.646,3.646,0,0,1,655.4,419.006Z" transform="translate(-651.756 -417.343)" fill="#c2e3f8"/>
    <path id="Path_1071" data-name="Path 1071" d="M654.594,418.465h70.389a2.369,2.369,0,0,1,2.367,2.37V454.56l-6.822-7.009H654.594a2.369,2.369,0,0,1-2.37-2.37V420.835A2.369,2.369,0,0,1,654.594,418.465Z" transform="translate(-650.785 -418.465)" fill="#fff"/>
    <circle id="Ellipse_236" data-name="Ellipse 236" cx="4.31" cy="4.31" r="4.31" transform="translate(9.871 3.98)" fill="#003f70"/>
    <circle id="Ellipse_237" data-name="Ellipse 237" cx="4.31" cy="4.31" r="4.31" transform="translate(9.871 16.201)" fill="#003f70"/>
    <rect id="Rectangle_1731" data-name="Rectangle 1731" width="45.85" height="1.505" rx="0.245" transform="translate(23.513 7.902)" fill="#c2e3f8"/>
    <rect id="Rectangle_1732" data-name="Rectangle 1732" width="45.85" height="1.505" rx="0.245" transform="translate(23.513 19.288)" fill="#c2e3f8"/>
    <g id="Group_912" data-name="Group 912" transform="translate(12.863 6.692)">
      <line id="Line_43" data-name="Line 43" y1="3.142" x2="2.849" stroke-width="0.274" stroke="#fff" stroke-linecap="round" stroke-linejoin="round" fill="none"/>
      <line id="Line_44" data-name="Line 44" x1="2.849" y1="3.142" stroke-width="0.274" stroke="#fff" stroke-linecap="round" stroke-linejoin="round" fill="none"/>
    </g>
    <g id="Group_913" data-name="Group 913" transform="translate(12.863 19.127)">
      <line id="Line_45" data-name="Line 45" y1="3.142" x2="2.849" stroke-width="0.274" stroke="#fff" stroke-linecap="round" stroke-linejoin="round" fill="none"/>
      <line id="Line_46" data-name="Line 46" x1="2.849" y1="3.142" stroke-width="0.274" stroke="#fff" stroke-linecap="round" stroke-linejoin="round" fill="none"/>
    </g>
  </g>
  <g id="Group_917" data-name="Group 917" transform="translate(51.408 300.023)">
    <path id="Path_1072" data-name="Path 1072" d="M604.859,519.41c4.549-1.423,6.363,1.869,5.927,4.4-.615,3.59-2.57,4,2.219,7.1,3.532,2.29,4.365,7.024.381,9.4-5.567,3.323.366,5.887,1.663,8.733,2.677,5.875-1.706,7.313-8.8,10.233-7.279,3-12.726,1.543-17.808-3.093-3.75-3.415-5.988-7.273-3.735-10.768,3.237-5.011,8.537-1.608,6.483-6.489-1.233-2.92-1.349-8.367,5.291-8.841S598.311,521.454,604.859,519.41Z" transform="translate(-566.139 -509.839)" fill="#e2f3fc"/>
    <g id="Group_916" data-name="Group 916">
      <g id="Group_915" data-name="Group 915">
        <path id="Path_1073" data-name="Path 1073" d="M589.763,516.272c-5.73-1.2-7.553,3.043-6.72,6.084,1.183,4.307,3.615,4.577-1.863,8.93-4.045,3.216-4.5,9.1.652,11.528,7.2,3.394.252,7.239-.993,10.867-2.57,7.494,2.957,8.727,11.97,11.454,9.25,2.794,15.733.363,21.386-5.9,4.175-4.623,6.446-9.6,3.28-13.6-4.549-5.739-10.621-.947-8.69-7.156,1.156-3.717.652-10.378-7.516-10.169S598,517.991,589.763,516.272Z" transform="translate(-578.057 -516.064)" fill="#fff"/>
      </g>
    </g>
    <path id="Path_1074" data-name="Path 1074" d="M588.647,534.244c-5.936,8.656-7.848,14.562-.351,15.3S605.456,531,599.895,527.3C595.969,524.684,591.472,530.119,588.647,534.244Z" transform="translate(-566.979 -494.185)" fill="#c2e3f8"/>
    <path id="Path_1075" data-name="Path 1075" d="M589.36,559.372h17a4.328,4.328,0,0,0,4.27-3.633l3.741-22.88a.859.859,0,0,0-.848-1H582.2a.86.86,0,0,0-.852,1l3.738,22.88A4.332,4.332,0,0,0,589.36,559.372Z" transform="translate(-571.255 -483.306)" fill="#e2f3fc"/>
    <path id="Path_1076" data-name="Path 1076" d="M587.109,524.72c5.293,1.608,9.7,3.821,6.274,5.373s-15.324-3.388-13.664-5.512C580.887,523.081,584.585,523.954,587.109,524.72Z" transform="translate(-574.94 -500.101)" fill="#c2e3f8"/>
    <path id="Path_1077" data-name="Path 1077" d="M582.326,521.628c1.217,3.341,2.465,5.029,4.147,3.111s-1.724-8.374-3.839-7.571C581.14,517.73,581.752,520.038,582.326,521.628Z" transform="translate(-570.501 -513.919)" fill="#c2e3f8"/>
    <path id="Path_1078" data-name="Path 1078" d="M591.611,522.893c-1.3,3.308-1.488,5.4,1.042,5.075s4.261-7.415,2.146-8.217C593.3,519.185,592.235,521.319,591.611,522.893Z" transform="translate(-551.886 -508.612)" fill="#fff"/>
    <path id="Path_1079" data-name="Path 1079" d="M595.652,528.8c2.305-2.047,3.271-3.6,1.187-4.338s-6.209,4.073-4.888,5.521C592.885,531.012,594.555,529.782,595.652,528.8Z" transform="translate(-549.773 -498.797)" fill="#fff"/>
    <path id="Path_1080" data-name="Path 1080" d="M586.744,524.071c-2.084-.7-3.388-.753-3.108.8s4.728,2.407,5.158,1.073C589.1,525,587.74,524.406,586.744,524.071Z" transform="translate(-566.564 -500.433)" fill="#c2e3f8"/>
  </g>
  <circle id="Ellipse_238" data-name="Ellipse 238" cx="16.756" cy="16.756" r="16.756" transform="translate(330.566 107.179)" fill="#c2e3f8"/>
  <circle id="Ellipse_239" data-name="Ellipse 239" cx="10.47" cy="10.47" r="10.47" transform="translate(310.683 148.446)" fill="#c2e3f8"/>
  <circle id="Ellipse_240" data-name="Ellipse 240" cx="7.404" cy="7.404" r="7.404" transform="translate(291.657 180.807)" fill="#c2e3f8"/>
  <g id="Group_921" data-name="Group 921" transform="translate(0 58.013)">
    <path id="Rectangle_1733" data-name="Rectangle 1733" d="M9.2,0H47.367a9.2,9.2,0,0,1,9.2,9.2V61.615a0,0,0,0,1,0,0H0a0,0,0,0,1,0,0V9.2A9.2,9.2,0,0,1,9.2,0Z" transform="translate(20.274 11.661)" fill="#2490d1"/>
    <path id="Path_1081" data-name="Path 1081" d="M604.367,469.388v33.325h-5.745V468.472a28.272,28.272,0,0,0-20.986-27.328A28.284,28.284,0,0,1,604.367,469.388Z" transform="translate(-527.525 -429.441)" fill="#0085bd"/>
    <rect id="Rectangle_1734" data-name="Rectangle 1734" width="56.574" height="10.402" transform="translate(20.27 62.874)" fill="#0085bd"/>
    <path id="Path_1082" data-name="Path 1082" d="M589.988,463.664a7.66,7.66,0,1,1-15.321,0Z" transform="translate(-533.681 -382.734)" fill="#2490d1"/>
    <path id="Path_1083" data-name="Path 1083" d="M589.243,467.975a7.648,7.648,0,0,1-14.22,3.922,7.669,7.669,0,0,0,11.881-6.4,7.471,7.471,0,0,0-1.088-3.91A7.648,7.648,0,0,1,589.243,467.975Z" transform="translate(-532.943 -387.042)" fill="#0085bd"/>
    <rect id="Rectangle_1735" data-name="Rectangle 1735" width="77.628" height="15.317" rx="2.491" transform="translate(9.744 65.618)" fill="#ffab00"/>
    <path id="Path_1084" data-name="Path 1084" d="M641.083,466.132a7.651,7.651,0,0,1-7.648,7.66H571.118a7.617,7.617,0,0,1-6.111-3.062,7.277,7.277,0,0,0,2.133.31h62.3c2.109,0,8.026.148,7.66-7.66a8.1,8.1,0,0,0-1.549-4.6A7.636,7.636,0,0,1,641.083,466.132Z" transform="translate(-553.716 -392.86)" fill="#ec970b"/>
    <g id="Group_918" data-name="Group 918" transform="translate(0 6.615)">
      <path id="Path_1085" data-name="Path 1085" d="M597.186,457.414a17.926,17.926,0,1,1-17.928-17.925,18.122,18.122,0,0,1,6.093,1.054A17.937,17.937,0,0,1,597.186,457.414Z" transform="translate(-561.334 -439.489)" fill="#ec970b"/>
      <path id="Path_1086" data-name="Path 1086" d="M590.55,453.175a17.945,17.945,0,0,1-24.014,16.867,17.926,17.926,0,0,1,12.723-30.553,18.122,18.122,0,0,1,6.093,1.054A17.907,17.907,0,0,1,590.55,453.175Z" transform="translate(-561.334 -439.489)" fill="#ffab00"/>
    </g>
    <g id="Group_919" data-name="Group 919" transform="translate(42.815)">
      <path id="Path_1087" data-name="Path 1087" d="M586.922,443.169a5.821,5.821,0,1,1-3.849-5.487A5.825,5.825,0,0,1,586.922,443.169Z" transform="translate(-575.262 -437.337)" fill="#ec970b"/>
      <path id="Path_1088" data-name="Path 1088" d="M584.764,441.788a3.411,3.411,0,1,1-1.691-4.107A5.828,5.828,0,0,1,584.764,441.788Z" transform="translate(-575.262 -437.337)" fill="#ffab00"/>
    </g>
    <g id="Group_920" data-name="Group 920" transform="translate(12.207 18.078)">
      <line id="Line_47" data-name="Line 47" y1="11.401" x2="10.34" stroke-width="0.994" stroke="#fff" stroke-linecap="round" stroke-linejoin="round" fill="none"/>
      <line id="Line_48" data-name="Line 48" x1="10.34" y1="11.401" stroke-width="0.994" stroke="#fff" stroke-linecap="round" stroke-linejoin="round" fill="none"/>
    </g>
  </g>
  <g id="Group_922" data-name="Group 922" transform="translate(294.113 330.519)">
    <path id="Path_1089" data-name="Path 1089" d="M694.834,525.985H665.677s-.074,2.395-.089,5.586a8.908,8.908,0,1,0,1.857,17.669c1.565,4.3,3.842,9.693,4.048,10.338l18.623.19s2.275-6.142,4.719-13.811S694.834,525.985,694.834,525.985Zm-33.421,14.482a4.5,4.5,0,0,1,4.2-4.476,72.243,72.243,0,0,0,.563,8.961c-.086,0-.166.025-.252.025A4.51,4.51,0,0,1,661.413,540.467Z" transform="translate(-657.011 -525.985)" fill="#2490d1"/>
    <path id="Path_1090" data-name="Path 1090" d="M675.434,525.986h-4.925c.64,8.324,1.454,22.379-4.144,33.731l4.344.049s2.284-6.145,4.725-13.805S675.434,525.986,675.434,525.986Z" transform="translate(-637.61 -525.983)" fill="#41a6dc"/>
  </g>
  <path id="Path_1091" data-name="Path 1091" d="M661.74,493.016a42.768,42.768,0,0,1-8.152.772,102.465,102.465,0,0,1-11.764-1.5S651.322,511.143,661.74,493.016Z" transform="translate(-394.398 -265.363)" fill="#fff"/>
  <g id="Group_923" data-name="Group 923" transform="translate(374.753 0.35)">
    <path id="Path_1092" data-name="Path 1092" d="M691.894,440.874c1.362,7.823.575,8.616-2.647,11.156,0,0-2.287,8.574,1.881,10.956s21.773-2.127,21.773-2.127l-1.374-6.48s-5.091-1.94-5.687-5.171c0,0,4.974-.384,6.806-3.231,2.3-3.572,4.42-15.736.424-24.156,0,0-19.732.255-21.346,5.02s-3.148,10.12-1.958,12.5Z" transform="translate(-672.09 -411.855)" fill="#f9b2a3"/>
    <path id="Path_1093" data-name="Path 1093" d="M705.759,467.986s10.587-14.927,12.941-21.543a7.483,7.483,0,0,1,3.086-6.766l.956.882,10.587-8.912a16.2,16.2,0,0,1-8.088,14.168s-10.218,37.316-21.982,50.036L698.311,454.9l5.905-1.4Z" transform="translate(-651.994 -391.474)" fill="#f9b2a3"/>
    <path id="Path_1094" data-name="Path 1094" d="M704.136,456.051l5.687-.9s.928-17.279-13.75-22.742l3.781,21.472Z" transform="translate(-656.635 -389.889)" fill="#afd6eb"/>
    <path id="Path_1095" data-name="Path 1095" d="M683.334,466.191c.1-.513-2.758-30.454,17.067-34.543,0,0,1.6,8.574,12.265,8.481A11.173,11.173,0,0,0,722.682,434s7.153,1.635,8.38,16.148,4.8,54.472,4.8,54.472-42.1,6.031-42.1,3.578,4.639-40.657,4.639-40.657Z" transform="translate(-683.244 -391.474)" fill="#c2e3f8"/>
    <path id="Path_1096" data-name="Path 1096" d="M703.439,510.494c1.224-8.1,2.447-46.058,1.3-59.581s-5.957-15.505-5.957-15.505c-.077,6.415-1.224,16.234-4.66,24.331l-8.816-.79,4.178,41.447Z" transform="translate(-678.968 -383.675)" fill="#afd6eb"/>
    <path id="Path_1097" data-name="Path 1097" d="M683.727,442.913s-.486,13.913.043,16.323,13.971,26.744,15.422,29.455,7.556-5.349,7.556-5.349-11.561-24.568-11.607-27.571.483-11.795.483-11.795Z" transform="translate(-682.663 -368.11)" fill="#f9b2a3"/>
    <path id="Path_1098" data-name="Path 1098" d="M703.081,487.447c-1.58,1.466-3.221,2.484-3.885,1.245-1.451-2.714-14.9-27.048-15.428-29.455s-.043-16.323-.043-16.323l3.9.351c.019,3.652.1,13.464.523,14.863C688.617,459.649,698.673,479.028,703.081,487.447Z" transform="translate(-682.662 -368.108)" fill="#f69b8d"/>
    <path id="Path_1099" data-name="Path 1099" d="M707.51,443.559l-1.855-1.675L719.6,430.2l1.58,1.86Z" transform="translate(-636.76 -394.472)" fill="#003f70"/>
    <path id="Path_1100" data-name="Path 1100" d="M713.782,425.04c-4.328.547-12.167,2.127-13.037,9.121-.7,5.582-.793,13.1-8.93,14.205.409-1.494.255-3.646-.409-7.495l-2.127-1.528c-1.187-2.382.341-7.747,1.955-12.508s21.352-5.014,21.352-5.014A20.67,20.67,0,0,1,713.782,425.04Z" transform="translate(-671.602 -411.853)" fill="#f69b8d"/>
    <path id="Path_1101" data-name="Path 1101" d="M687.759,433.719c1.463-11.6,10.421-16.022,24.712-12.229,6.686,1.777,8.036-2.911,8.036-2.911s5.481,12.637-14.294,13.022c-9.634.184-8.3,10.562-8.3,11.838,0,0-1.137.163-1.137-1.463s-.759-4.716-2.764-2.33-1.734,6.99,2.278,7.639c0,0,1.678,7.156-3.089,6.668C692.281,446.691,686.834,441.035,687.759,433.719Z" transform="translate(-674.097 -418.579)" fill="#19282f"/>
    <path id="Path_1102" data-name="Path 1102" d="M721.916,445.788S711.7,483.107,699.931,495.83l-.015-.172c10.356-18.927,17.365-45.1,18.878-49.87a2.629,2.629,0,0,1,1.629-1.648c4.8-1.74,6.619-5.641,9.579-12.481A16.177,16.177,0,0,1,721.916,445.788Z" transform="translate(-648.667 -391.449)" fill="#f69b8d"/>
  </g>
  <g id="Group_929" data-name="Group 929" transform="translate(381.089 89.081)">
    <g id="Group_925" data-name="Group 925" transform="translate(1.717 11.961)">
      <g id="Group_924" data-name="Group 924">
        <rect id="Rectangle_1736" data-name="Rectangle 1736" width="108.194" height="28.211" fill="#e2f3fc"/>
      </g>
    </g>
    <g id="Group_928" data-name="Group 928">
      <g id="Group_926" data-name="Group 926" transform="translate(0 10.039)">
        <rect id="Rectangle_1737" data-name="Rectangle 1737" width="108.194" height="28.211" fill="#fff"/>
      </g>
      <rect id="Rectangle_1738" data-name="Rectangle 1738" width="27.809" height="28.211" transform="translate(0 10.039)" fill="#2490d1"/>
      <path id="Path_1103" data-name="Path 1103" d="M732.451,457.475a10.026,10.026,0,0,0-19.637-2.868,9.756,9.756,0,0,0,.922,7.811l-.077.031,7.756,14.7a1.13,1.13,0,0,0,2,0l7.759-14.7-.077-.031A9.921,9.921,0,0,0,732.451,457.475Zm-10.033,3.87a3.869,3.869,0,1,1,3.867-3.87A3.869,3.869,0,0,1,722.417,461.346Z" transform="translate(-629.141 -447.443)" fill="#003f70"/>
      <g id="Group_927" data-name="Group 927" transform="translate(31.823 17.293)">
        <rect id="Rectangle_1739" data-name="Rectangle 1739" width="46.151" height="1.505" rx="0.245" fill="#c2e3f8"/>
        <rect id="Rectangle_1740" data-name="Rectangle 1740" width="46.151" height="1.505" rx="0.245" transform="translate(0 6.099)" fill="#c2e3f8"/>
        <rect id="Rectangle_1741" data-name="Rectangle 1741" width="46.151" height="1.505" rx="0.245" transform="translate(0 12.198)" fill="#c2e3f8"/>
      </g>
      <path id="Path_1104" data-name="Path 1104" d="M688.149,458.024l3.712,3.807,7.342-8.1" transform="translate(-679.406 -434.392)" fill="none" stroke="#fff" stroke-linecap="round" stroke-linejoin="round" stroke-width="0.705"/>
    </g>
  </g>
  <path id="Path_1105" data-name="Path 1105" d="M696,427.886c.741.043,2.222,1.4,4.174,1.257a.152.152,0,0,1,.083.286c-1.168.59-3.222,1.451-4.374.907C693.81,429.361,694.96,427.831,696,427.886Z" transform="translate(-284.67 -398.929)" fill="#fff"/>
</svg>
