<svg xmlns="http://www.w3.org/2000/svg" xmlns:xlink="http://www.w3.org/1999/xlink" width="402.998" height="337.813" viewBox="0 0 402.998 337.813">
  <defs>
    <linearGradient id="linear-gradient" x1="3.565" y1="-1.758" x2="3.565" y2="-0.758" gradientUnits="objectBoundingBox">
      <stop offset="0" stop-color="#6d6d6d" stop-opacity="0.251"/>
      <stop offset="0.54" stop-color="#6d6d6d" stop-opacity="0.122"/>
      <stop offset="1" stop-color="#6d6d6d" stop-opacity="0.102"/>
    </linearGradient>
    <linearGradient id="linear-gradient-2" x1="2546.965" y1="-1066.996" x2="2546.965" y2="-1065.127" xlink:href="#linear-gradient"/>
  </defs>
  <g id="Group_1544" data-name="Group 1544" transform="translate(-28.385 -94.35)">
    <path id="Path_2983" data-name="Path 2983" d="M192.63,296.95c48.734,0,88.24-3.013,88.24-6.731s-39.506-6.731-88.24-6.731-88.241,3.013-88.241,6.731S143.9,296.95,192.63,296.95Z" transform="translate(54.335 135.212)" fill="#d6d5d5"/>
    <path id="Path_2984" data-name="Path 2984" d="M192.63,296.95c48.734,0,88.24-3.013,88.24-6.731s-39.506-6.731-88.24-6.731-88.241,3.013-88.241,6.731S143.9,296.95,192.63,296.95Z" transform="translate(54.335 135.212)" fill="#d6d5d5" opacity="0.4"/>
    <path id="Path_2985" data-name="Path 2985" d="M152.838,120.27c13.649-12.141,35.121-14.618,54.66-13.638,61.362,3.037,116.758,32.564,164.665,65.96,17.341,12.093,34.42,25.121,45.683,41.77,22.921,33.893,16.118,80.848-15.753,108.77-10.845,9.5-23.988,16.784-37.482,23.256-23.995,11.479-49.888,20.694-77.119,23.314-19.421,1.873-39.084.35-58.39-2.26-53.933-7.319-106.88-23.418-151.26-51.028-19.466-12.1-37.812-27.135-45.834-46.71S29.121,225.331,49,213.747c8.219-4.791,18.051-6.954,27.671-8.986,14.163-2.994,28.556-5.942,41.337-12.02,13.208-6.283,28.829-18.43,26.219-32.326C141.419,145.5,139.19,132.4,152.838,120.27Z" transform="translate(0 8.642)" fill="#d9e8ef"/>
    <path id="Path_2986" data-name="Path 2986" d="M152.838,120.27c13.649-12.141,35.121-14.618,54.66-13.638,61.362,3.037,116.758,32.564,164.665,65.96,17.341,12.093,34.42,25.121,45.683,41.77,22.921,33.893,16.118,80.848-15.753,108.77-10.845,9.5-23.988,16.784-37.482,23.256-23.995,11.479-49.888,20.694-77.119,23.314-19.421,1.873-39.084.35-58.39-2.26-53.933-7.319-106.88-23.418-151.26-51.028-19.466-12.1-37.812-27.135-45.834-46.71S29.121,225.331,49,213.747c8.219-4.791,18.051-6.954,27.671-8.986,14.163-2.994,28.556-5.942,41.337-12.02,13.208-6.283,28.829-18.43,26.219-32.326C141.419,145.5,139.19,132.4,152.838,120.27Z" transform="translate(0 8.642)" fill="#d9e8ef" opacity="0.4"/>
    <path id="Path_2987" data-name="Path 2987" d="M219.774,123.318v.713a4.39,4.39,0,0,1-.029.612v.127c0,.172-.019.343-.034.509v.147a.623.623,0,0,1,0,.081,4.253,4.253,0,0,1-.041.465c-.015.156-.027.247-.039.376-.036.305-.075.612-.123.919-.027.2-.06.4-.093.605a.177.177,0,0,0,0,.043c-.019.1-.036.2-.055.3s-.021.115-.033.175a.462.462,0,0,1-.031.159,1.919,1.919,0,0,0-.065.317c-.024.1-.043.211-.067.319s-.033.154-.053.235-.058.266-.091.4a.057.057,0,0,0,0,.024l-.072.274-.084.334c-.036.135-.075.271-.111.4a.138.138,0,0,1-.033.108l-.118.4c-.129.422-.268.844-.4,1.262l-.144.4-.084.22a28.178,28.178,0,0,1-3.891,6.974c-.094.135-.2.266-.3.4a30.038,30.038,0,0,1-2.454,2.787l-40.8,40.706-40.8-40.706a28.764,28.764,0,0,1-3.191-3.79,27.442,27.442,0,0,1-1.66-2.644,28.728,28.728,0,0,1-3.488-16.364c.043-.521.1-1.044.175-1.561q.193-1.374.52-2.732c.043-.184.091-.365.139-.545.024-.091.048-.187.072-.274s.027-.111.045-.166l.118-.4c.1-.314.192-.628.3-.943l.147-.429c.214-.61.446-1.2.7-1.807l.156-.355c.081-.178.159-.358.244-.537.135-.286.274-.574.4-.856l.036-.063c.063-.132.13-.256.2-.4l.235-.434c.1-.178.2-.358.307-.537.048-.084.1-.168.147-.256s.06-.091.089-.142v-.027c.063-.1.127-.208.2-.31s.147-.235.223-.352c.168-.259.34-.518.514-.772l.189-.268.235-.322c.079-.115.163-.226.25-.338l.3-.4c.1-.115.189-.235.28-.35l.1-.12.2-.247c.1-.127.211-.25.319-.374l.141-.163.024-.029.244-.269.271-.3c.256-.276.518-.55.8-.8l.316-.31.49-.461c.108-.1.216-.2.327-.295s.256-.23.4-.341l.256-.216c.084-.075.171-.147.256-.214a6.146,6.146,0,0,1,.518-.4l.264-.208c.439-.334.881-.657,1.336-.967l.273-.184.274-.178.259-.168.4-.238.192-.115.279-.165c.374-.218.749-.429,1.128-.628l.228-.12.352-.178.292-.144.29-.135.292-.139.295-.132.3-.127c.4-.172.8-.331,1.2-.482l.259-.159.319-.115.283-.1.24-.081.55-.175.283-.087.228-.063.223-.063c.134-.039.268-.075.4-.108l.526-.135c.544-.13,1.091-.25,1.636-.35l.225-.039.31-.051.319-.053.4-.058.235-.033c.526-.067,1.055-.123,1.6-.163h3.708a2.311,2.311,0,0,1,.4.024h.271c.424.031.845.075,1.266.123l.566.075.4.055.316.053.314.051.208.036c.545.1,1.089.216,1.629.346l.662.17.184.053.283.079c.183.051.367.1.547.163l.24.075q.6.185,1.2.4l.271.1.355.135.535.216c.207.087.4.175.611.266l.24.1.328.154.29.135.288.144.364.182.286.153c.225.118.448.238.667.365l.28.159c.327.187.646.4.965.585l.259.168.276.178.271.183.18.123c.4.268.761.545,1.137.832l.262.208c.173.135.348.274.52.4.084.067.171.139.256.214l.256.216.4.341c.111.1.22.2.326.295l.46.485.316.31.319-.31.487-.461c.108-.1.216-.2.328-.295s.256-.23.4-.341l.256-.216c.084-.075.171-.147.256-.214a6.167,6.167,0,0,1,.52-.4l.262-.208c.439-.334.883-.657,1.338-.967l.271-.183.276-.178.259-.168.379-.238.192-.115.28-.165c.374-.218.749-.429,1.128-.628l.228-.12.352-.178.29-.144.292-.135.292-.139.295-.132.3-.127c.4-.171.8-.331,1.2-.482.1-.036.2-.075.295-.108l.316-.115.286-.1.237-.079.55-.175.283-.089.228-.063.223-.063c.132-.039.264-.075.4-.106l.521-.135c.544-.132,1.091-.252,1.638-.352l.223-.039.31-.051.321-.051.4-.06.237-.033c.526-.067,1.053-.123,1.595-.163h3.672a2.3,2.3,0,0,1,.4.024h.271c.424.033.845.075,1.266.123l.566.075.4.057.316.051.316.051.207.036q.818.152,1.627.346l.662.171.183.051.285.079c.184.051.367.1.551.163l.235.077c.4.123.8.257,1.2.4l.268.1.355.135.535.214c.208.087.4.175.611.268l.24.1.326.154.292.135.288.144.364.183.292.151c.22.12.442.238.662.365l.28.159c.328.187.65.4.965.586l.259.166.276.178.271.183h.021l.178.123c.4.268.763.545,1.137.832l.264.208c.171.135.348.274.52.4.082.069.172.139.256.216l.254.214.333.295c.111.1.223.2.331.3l.187.171a.14.14,0,0,1,.027.027c.108.1.213.2.321.3l.142.141c.057.058.111.115.172.17l.315.322c.159.165.319.331.475.5.093.1.183.2.271.295.153.166.3.334.448.5l.472.562c.538.66,1.041,1.338,1.516,2.03l.192.29c.07.1.135.208.2.31l.171.268c.1.154.192.305.285.461l.25.43c.051.087.1.175.153.262l.115.208.117.206.166.316.165.314q.561,1.1,1.02,2.241l.132.322c.123.314.24.624.352.943l.1.286c.045.135.093.271.132.4s.079.244.115.367l.072.232c.036.111.069.223.1.334s.077.274.117.4c.06.223.115.446.171.672l.084.35c.039.168.075.334.111.5a.978.978,0,0,0,.045.214c.015.072.039.19.055.286s.033.151.045.228l.036.19a.361.361,0,0,0,.031.178c.033.06,0,.117.029.177l.06.357a2.127,2.127,0,0,0,.051.358c.019.12.036.268.051.4s.033.256.045.4l.024.218c0,.132.027.262.039.4v.2c0,.135.024.271.033.4a.082.082,0,0,1,0,.029v.513a3.285,3.285,0,0,0,.019.43v.441A5.138,5.138,0,0,1,219.774,123.318Z" transform="translate(66.411 0)" fill="#e50019"/>
    <path id="Path_2988" data-name="Path 2988" d="M219.444,123.318v.713a4.392,4.392,0,0,1-.029.612v.127a4.977,4.977,0,0,1-.036.509v.147a.315.315,0,0,1,0,.081c0,.154-.024.31-.039.465s-.027.247-.039.376c-.036.305-.075.612-.123.919-.027.2-.06.4-.093.605a.177.177,0,0,0,0,.043c-.019.1-.036.2-.055.3s-.021.115-.033.175a.427.427,0,0,1-.033.159,2.141,2.141,0,0,0-.063.317c-.024.1-.043.211-.067.319s-.033.154-.053.235-.058.266-.091.4a.057.057,0,0,0,0,.024l-.072.274-.084.334c-.036.135-.075.271-.111.4a.138.138,0,0,1-.033.108l-.118.4c-.129.422-.268.844-.4,1.262l-.144.4-.084.22a28.769,28.769,0,0,0-12.586-31.05q-.779-.494-1.573-.933a28.9,28.9,0,0,0-34.359,4.922,29.4,29.4,0,0,0-6.508-4.874,28.98,28.98,0,0,0-27.783,0,28.485,28.485,0,0,0-4.1,2.732,29.439,29.439,0,0,0-7.184,8.388.125.125,0,0,1,0,.036c-.451.8-.863,1.622-1.233,2.463-.208.463-.4.933-.578,1.4.045-.183.091-.367.139-.547.024-.091.048-.187.072-.274s.029-.111.045-.166l.12-.4c.1-.316.19-.629.295-.943l.147-.43c.216-.609.448-1.2.7-1.807l.154-.355c.081-.178.159-.358.243-.537.135-.286.276-.573.4-.856l.036-.063c.063-.132.132-.256.2-.4l.237-.434c.1-.18.2-.358.307-.538.048-.082.1-.166.147-.254s.06-.093.087-.144v-.027c.063-.1.127-.208.2-.31s.147-.235.223-.35c.168-.259.34-.518.516-.773l.187-.266.235-.322c.081-.117.165-.228.252-.34l.3-.4c.094-.115.187-.235.279-.35l.1-.12.2-.247c.1-.127.213-.25.321-.374l.139-.163.024-.027.244-.271.271-.3c.256-.274.52-.55.8-.8l.314-.312.492-.461c.106-.1.214-.2.326-.295s.256-.23.4-.341l.256-.216c.084-.075.171-.146.256-.214.171-.142.346-.283.518-.4l.264-.208c.439-.334.881-.657,1.338-.967l.271-.183.274-.178.261-.168.4-.238.192-.115.28-.163c.376-.22.749-.43,1.13-.629l.226-.12.352-.178.292-.144.292-.135.292-.139.295-.132.295-.127c.4-.171.8-.329,1.2-.482l.267-.175.319-.115.283-.1.24-.081.55-.175.283-.087.228-.063.223-.063c.134-.039.266-.075.4-.108l.526-.135c.544-.13,1.089-.25,1.636-.35l.225-.039.31-.051.319-.053.4-.058.235-.033c.526-.067,1.055-.123,1.6-.163h3.708a2.311,2.311,0,0,1,.4.024h.271c.424.031.845.075,1.266.123l.566.075.4.055.314.053.316.051.208.036c.545.1,1.089.216,1.629.346l.662.17.184.053.283.079c.183.051.367.1.547.163l.24.075q.6.185,1.2.4l.271.1.355.135.535.216c.208.087.4.175.611.266l.24.1.326.154.292.135.288.144.364.182.286.153c.225.118.448.238.667.365l.28.159c.328.187.647.4.965.585l.259.168.276.178.271.183.18.123c.4.268.761.545,1.137.832l.262.208c.171.135.348.274.52.4.084.067.171.139.256.214l.255.216.4.341c.111.1.218.2.326.295l.46.485.316.31.319-.31.487-.461c.108-.1.214-.2.328-.295s.256-.23.4-.341l.256-.216c.084-.075.172-.147.256-.214a6.169,6.169,0,0,1,.52-.4l.262-.208c.439-.334.883-.657,1.338-.967l.271-.183.276-.178.259-.168.379-.238.192-.115.28-.165c.374-.218.749-.429,1.128-.628l.228-.12.352-.178.29-.144.292-.135.292-.139.295-.132.3-.127c.4-.171.8-.331,1.2-.482.1-.036.2-.075.295-.108l.316-.115.286-.1.237-.079.55-.175.283-.089.228-.063.223-.063c.132-.039.262-.075.4-.106l.521-.135c.544-.132,1.091-.252,1.636-.352l.225-.039.31-.051.319-.051.4-.06.235-.033c.528-.067,1.055-.123,1.6-.163h3.672a2.3,2.3,0,0,1,.4.024h.271c.424.033.845.075,1.266.123l.566.075.4.057.316.051.316.051.208.036q.818.152,1.627.346l.662.171.183.051.285.079c.184.051.367.1.551.163l.235.077c.4.123.8.257,1.2.4l.268.1.355.135.535.214c.208.087.4.175.611.268l.24.1.326.154.292.135.288.144.364.183.29.151c.22.12.444.238.664.365l.28.159c.326.187.65.4.965.586l.259.166.276.178.271.183h.019l.18.123c.4.268.763.545,1.137.832l.264.208c.171.135.346.274.52.4.082.069.172.139.254.216l.256.214.333.295c.111.1.223.2.331.3l.187.171a.141.141,0,0,1,.027.027c.108.1.213.2.319.3l.144.141c.057.058.111.115.172.17l.316.322c.159.165.319.331.475.5.093.1.183.2.271.295.153.166.3.334.448.5l.472.562c.538.66,1.041,1.338,1.516,2.03l.192.29c.07.1.135.208.2.31l.172.268c.1.154.192.305.283.461l.252.43c.051.087.1.175.153.262l.115.208.115.206.168.316.165.314q.561,1.1,1.02,2.241l.132.322c.123.314.24.624.352.943l.1.286c.045.135.093.271.132.4s.079.244.115.367l.072.232c.036.111.069.223.1.334s.077.274.117.4c.06.223.115.446.171.672l.084.35c.039.168.075.334.111.5a.977.977,0,0,0,.045.214c.015.072.039.19.055.286s.033.151.045.228l.036.19a.361.361,0,0,0,.031.178c.033.06,0,.117.029.177l.06.357a2.127,2.127,0,0,0,.051.358c.019.12.036.268.051.4s.033.256.045.4l.024.218c0,.132.027.262.039.4v.2c0,.135.024.271.031.4a.042.042,0,0,1,0,.029v.513a3.014,3.014,0,0,0,.021.43v.441A5.139,5.139,0,0,1,219.444,123.318Z" transform="translate(66.74 0)" fill="#030504" opacity="0.1"/>
    <path id="Path_2989" data-name="Path 2989" d="M230.186,166.619v.633a.056.056,0,0,1,0,.024v.256l-.036.283a1.7,1.7,0,0,1-.027.183v.147a.227.227,0,0,1,0,.048v.1a.929.929,0,0,1-.021.094v.072a.228.228,0,0,1-.027.123l-.024.084-.024.1-.036.123v.036a.928.928,0,0,1-.039.123c-.036.13-.081.259-.123.4,0,.043-.033.082-.045.123a.552.552,0,0,1-.027.067,8.552,8.552,0,0,1-1.166,2.121l-.091.123a8.616,8.616,0,0,1-.751.849l-12.591,12.436L202.7,172.743a8.679,8.679,0,0,1-2.55-6.947,3.243,3.243,0,0,1,.055-.478c.041-.278.093-.557.159-.832a.6.6,0,0,1,.041-.168l.024-.082v-.051l.034-.123q.044-.144.093-.288c.033-.094.027-.087.045-.13.063-.189.135-.372.214-.55l.048-.111.072-.163c.045-.087.084-.175.132-.259v-.019l.063-.115.072-.132c.027-.057.06-.111.093-.168l.046-.075.024-.043c0-.033.036-.063.057-.1s.048-.072.069-.108.1-.158.159-.235l.055-.082.072-.1.075-.1.1-.123.084-.108.033-.036.06-.075.1-.115.039-.048.075-.084c.024-.031.057-.06.084-.091s.156-.168.24-.252l.1-.091.148-.144.1-.091.12-.1.075-.063.079-.069.156-.127.084-.063c.132-.1.268-.2.4-.295l.084-.057.079-.055.081-.048.118-.075.057-.033.088-.051c.111-.067.228-.13.343-.19l.069-.036.108-.057.087-.043.091-.045.089-.039.087-.039.091-.039.364-.147.093-.033.1-.036.087-.031.072-.024.166-.051.089-.029.067-.019.069-.021.123-.031.159-.041c.163-.043.331-.079.5-.106h.454c.16-.021.319-.039.484-.051h1.336l.4.039.175.024h.372c.166.027.331.063.5.1l.2.051h.055l.089.024.166.051.072.021c.123.039.244.079.364.127l.084.029.108.043.163.063.183.081.075.034.1.045.087.045.088.043.111.057.087.046.2.108.084.051c.1.057.2.117.295.18l.081.048.084.055.082.057.057.039.346.25a.573.573,0,0,0,.081.063l.159.127.075.069.081.063.115.1.1.093.149.142c.034.029.067.06.1.093a.616.616,0,0,1,.1-.093l.147-.142.1-.093.115-.1.081-.063.075-.069.159-.127a.571.571,0,0,0,.081-.063l.4-.295.084-.055.084-.057.081-.048.115-.075.06-.031.084-.051c.115-.07.23-.134.346-.192l.069-.036.108-.055.087-.045.087-.043.093-.041.087-.039.091-.039.364-.147.093-.031.1-.036.087-.033.072-.024.166-.051.089-.027.067-.021.069-.019.118-.033.161-.039c.166-.043.334-.079.5-.108h.451c.163-.019.322-.039.482-.051h1.338l.4.039a.421.421,0,0,1,.172.024h.374c.165.027.333.063.5.1l.2.053h.055l.087.024.168.051.072.019c.12.041.244.081.364.129l.079.027.108.043.165.065.187.079.072.036.1.043.091.045.089.043.108.057.091.048.2.106.089.053c.1.055.2.115.295.178l.079.048.081.055.084.057.051.039c.12.081.235.163.346.25l.084.065.156.127.081.067.075.063.1.093.1.091.057.051.1.093.045.039.051.051.1.1.147.151c.027.033.055.06.079.093l.141.154.142.172a6.216,6.216,0,0,1,.463.621l.06.087.06.1.051.079.089.144.075.127.048.084.036.063.031.063a.618.618,0,0,1,.053.093l.048.1c.115.223.22.449.314.681,0,.036.029.067.041.1l.106.286a.114.114,0,0,0,.029.091.39.39,0,0,1,.043.123.926.926,0,0,1,.033.111l.024.069a.57.57,0,0,0,.027.1l.036.127c.021.069.036.135.051.2a1.071,1.071,0,0,1,.029.106,1.2,1.2,0,0,0,.031.156.137.137,0,0,1,0,.063V166a.64.64,0,0,0,0,.081v.266C229.946,166.393,230.189,166.532,230.186,166.619Z" transform="translate(122.773 45.41)" fill="#e50019"/>
    <path id="Path_2990" data-name="Path 2990" d="M230.023,166.633v.633a.056.056,0,0,1,0,.024v.256l-.036.283a1.7,1.7,0,0,1-.027.183v.147a.227.227,0,0,1,0,.048v.1a.929.929,0,0,1-.021.094v.072a.229.229,0,0,1-.027.123l-.024.084-.024.1-.036.123v.036a.927.927,0,0,1-.039.123c-.036.13-.081.259-.123.4,0,.043-.033.084-.045.123a.555.555,0,0,1-.027.067,8.555,8.555,0,0,0,.244-2.13,8.8,8.8,0,0,0-4.083-7.345c-.159-.1-.319-.2-.484-.286a8.851,8.851,0,0,0-8.475,0,8.992,8.992,0,0,0-.839.521,8.866,8.866,0,0,0-1.149.971,9.144,9.144,0,0,0-1.077-.916,9.466,9.466,0,0,0-.911-.576,8.8,8.8,0,0,0-9.734.835c-.256.208-.5.425-.734.657a8.783,8.783,0,0,0-.965,1.144c-.175.247-.34.5-.487.76-.137.243-.262.5-.376.753-.063.142-.123.286-.175.429a.652.652,0,0,1,.039-.166l.024-.084v-.051l.036-.123c.029-.1.06-.19.093-.286s.027-.087.043-.132c.065-.189.137-.37.216-.549l.048-.111.072-.163c.043-.087.084-.175.132-.259v-.021l.063-.115.072-.132c.027-.055.06-.111.091-.166l.048-.075.024-.045c0-.031.036-.063.057-.094s.048-.072.067-.108.1-.159.16-.235l.057-.084.072-.1.075-.1.1-.123.084-.108.031-.034.06-.077.1-.115.041-.048.075-.082c.024-.033.057-.06.084-.093s.156-.166.238-.25l.1-.093.147-.142.1-.091.118-.1.077-.063.079-.067.156-.129.084-.063c.132-.1.268-.2.4-.295l.084-.055.081-.057.079-.046.12-.077.057-.031.087-.051c.111-.069.228-.132.343-.192l.069-.036.108-.055.087-.045.091-.043.087-.039.089-.041.091-.039.364-.147.091-.031.1-.036.087-.033.072-.024.168-.051.087-.027.069-.021.067-.019.125-.033.16-.039a4.865,4.865,0,0,1,.5-.108h.454c.16-.019.319-.039.482-.051h1.338l.4.039.175.024h.37c.168.027.333.063.5.1l.2.051h.055l.087.024.168.051.072.019c.123.041.243.081.364.129l.084.027.108.043.163.065.184.079.075.036.1.043.089.045.087.045.111.055.087.048.2.108.084.051c.1.055.2.115.295.178l.079.048.084.057.084.055.057.039.346.252a.726.726,0,0,0,.081.063l.159.127.075.067.081.065.115.1.1.091.147.144a.827.827,0,0,1,.1.091.805.805,0,0,1,.1-.091l.147-.144.1-.091.115-.1.081-.065.075-.067.159-.127a.715.715,0,0,0,.079-.063l.4-.295.084-.057.084-.055.079-.048.117-.075.06-.033.084-.051c.113-.069.23-.132.346-.19l.069-.036.108-.057.087-.043.087-.045.091-.039.089-.039.091-.039.364-.147.091-.033.1-.036.089-.031.07-.024.168-.053.087-.027.069-.019.067-.021.12-.033.16-.039c.168-.043.336-.077.5-.106h.449c.165-.021.324-.041.484-.053h1.338l.4.041a.412.412,0,0,1,.171.024h.376c.165.027.331.063.5.1l.2.051h.057l.087.024.168.051.072.021c.12.039.244.079.364.127l.079.027.108.045.163.063.189.079.072.036.1.045.091.043.087.045.108.055.093.048.2.108.087.051c.1.057.2.115.3.18l.079.046.081.057.082.055.053.041c.12.079.235.163.346.25l.084.063.156.127.079.069.077.063.1.091.1.093.057.051.1.091.043.039.053.053.094.1.148.151c.029.031.057.06.081.091l.139.156.144.171a6.5,6.5,0,0,1,.463.621l.06.087.06.1.051.079.087.144.077.127.048.084.036.063.031.063a.53.53,0,0,1,.051.091l.048.1c.117.223.22.451.316.681a.3.3,0,0,0,.039.1l.108.286a.118.118,0,0,0,.029.093c.027.031.027.079.043.123a.831.831,0,0,1,.033.111l.024.067a.472.472,0,0,0,.027.1l.036.127c.021.067.036.135.051.2a.83.83,0,0,1,.027.108.99.99,0,0,0,.033.154.144.144,0,0,1,0,.065v1.23a.592.592,0,0,0,0,.079v.268C229.927,166.374,230.027,166.545,230.023,166.633Z" transform="translate(122.936 45.396)" fill="#030504" opacity="0.1"/>
    <path id="Path_2991" data-name="Path 2991" d="M196.455,157.026v.811c0,.038,0,.075,0,.111a.752.752,0,0,1-.036.283c-.036.093,0,.123-.027.184a.814.814,0,0,1,0,.091.316.316,0,0,1,0,.057v.142l-.024.1a.493.493,0,0,1,0,.072,1.066,1.066,0,0,1-.029.123.7.7,0,0,0,0,.084,1.01,1.01,0,0,0-.027.1l-.036.123a.093.093,0,0,1,0,.031l-.036.129c-.039.127-.079.259-.127.4a.371.371,0,0,1-.045.118l-.024.069a8.716,8.716,0,0,1-1.17,2.126l-.091.118a8.811,8.811,0,0,1-.746.852l-12.455,12.421-12.455-12.421a8.987,8.987,0,0,1-.974-1.159,8.579,8.579,0,0,1-.509-.8,8.73,8.73,0,0,1-1.061-4.992,3.678,3.678,0,0,1,.051-.477,8.262,8.262,0,0,1,.159-.837.548.548,0,0,1,.045-.163.532.532,0,0,1,.019-.087.227.227,0,0,1,0-.048l.036-.127c.027-.1.057-.192.087-.286l.048-.132c.063-.187.135-.37.213-.554l.046-.106a1.587,1.587,0,0,1,.077-.163c.027-.053.084-.177.127-.264v-.019l.06-.12.072-.13.1-.165a.706.706,0,0,1,.043-.079l.029-.045.06-.094a1.231,1.231,0,0,1,.067-.108l.156-.235.06-.079.072-.1.075-.1.091-.123a1.009,1.009,0,0,1,.089-.1.324.324,0,0,1,.027-.039l.063-.072.1-.115.045-.053.072-.082.082-.093.24-.247.1-.094.151-.141c.033-.033.065-.062.1-.091l.117-.1.079-.069.077-.063.159-.127.079-.063c.132-.1.273-.2.4-.295l.084-.057.084-.055.079-.051.117-.072.055-.036.089-.051c.111-.063.226-.132.343-.192l.072-.034-.009-.093.087-.043.087-.041.087-.043.093-.039.087-.041.367-.146.087-.033.1-.036.089-.027.075-.024.166-.057.084-.024.072-.019.069-.021.12-.036.159-.039.5-.106h.454c.159-.021.322-.036.482-.048h1.338a3.387,3.387,0,0,1,.4.036l.172.022h.37c.168.033.336.069.5.108l.2.051h.055c.029.007.057.015.084.024l.168.048.075.024.36.124.082.033.108.039.165.067.187.081.072.031.1.048.087.039.087.045.113.055.087.048.2.111.089.048.292.18.079.051.084.055.084.057.055.036c.12.082.237.166.348.254a.708.708,0,0,1,.079.063,1.946,1.946,0,0,1,.159.129l.081.063.075.067.117.1a.991.991,0,0,1,.1.091l.151.139.1.1.1-.1.147-.139.1-.091.12-.1.075-.067.081-.063a1.933,1.933,0,0,1,.159-.129.708.708,0,0,1,.079-.063c.132-.1.268-.2.4-.295l.084-.055.084-.057.075-.051.12-.072.057-.034.087-.053c.111-.063.226-.13.343-.19l.067-.036.108-.055.093-.045.087-.039.087-.045.093-.039.087-.039.364-.147.091-.033.1-.036.087-.027.072-.024.168-.055.087-.024.069-.021.067-.019.123-.036.159-.039c.168-.041.331-.077.5-.108h.456c.16-.021.319-.036.482-.048h1.338l.4.036.171.024h.372c.168.031.331.067.5.106l.2.053h.053a.556.556,0,0,1,.087.024l.168.046.07.024.364.123.084.033.108.039.163.069.189.079.072.033.1.046.087.041.087.043.111.057.087.048.2.111.084.046.295.18.081.051.084.057.084.055.055.036.348.254.079.065.159.127.075.063.081.069.1.087.1.091.055.055.1.093.045.043.051.053.1.094.144.156.084.091c.048.048.091.1.135.151l.144.171a7.587,7.587,0,0,1,.463.621l.058.087.06.1c.019.027.036.055.053.084s.058.091.087.139.051.087.075.132l.048.079.036.063.036.063.048.1c0,.033.036.063.051.1a7.419,7.419,0,0,1,.31.684.721.721,0,0,1,.041.1c.039.1.075.192.108.286a.243.243,0,0,0,.031.087l.039.123.036.111a.1.1,0,0,0,.021.072c.021.024,0,.069.033.1l.036.127a.991.991,0,0,0,.051.208l.024.108.036.151v.067a.769.769,0,0,1,0,.089.433.433,0,0,1,0,.067.349.349,0,0,1,0,.06v.106q0,.054,0,.108c0,.038,0,.075,0,.111a.268.268,0,0,0,.019.12v.911C196.455,156.842,196.455,156.93,196.455,157.026Z" transform="translate(98.772 38.52)" fill="#e50019"/>
    <path id="Path_2992" data-name="Path 2992" d="M196.42,157.026v.811c0,.038,0,.075,0,.111a.752.752,0,0,1-.036.283c-.036.093,0,.123-.029.184a.4.4,0,0,1,0,.091.31.31,0,0,1,0,.057v.142l-.024.1a.253.253,0,0,1,0,.072,1.057,1.057,0,0,1-.027.123.7.7,0,0,0,0,.084,1.014,1.014,0,0,0-.027.1l-.036.123a.093.093,0,0,1,0,.031l-.036.129c-.039.127-.081.259-.127.4a.371.371,0,0,1-.045.118l-.024.069a8.786,8.786,0,0,0-3.843-9.475q-.234-.149-.478-.283a8.836,8.836,0,0,0-8.48,0,7.894,7.894,0,0,0-.833.523,8.3,8.3,0,0,0-1.154.967,8.834,8.834,0,0,0-1.077-.916,8.639,8.639,0,0,0-.911-.574,9.858,9.858,0,0,0-11.6,2.632c-.175.247-.334.5-.482.76s-.264.5-.376.753c-.063.139-.12.283-.175.425a.6.6,0,0,1,.043-.163.811.811,0,0,1,.021-.087.228.228,0,0,1,0-.048l.036-.127c.027-.1.057-.192.087-.286l.048-.132c.063-.187.135-.37.211-.552l.048-.108a1.586,1.586,0,0,1,.077-.163c.027-.053.082-.175.127-.264v-.019l.06-.12.072-.13.1-.165a.7.7,0,0,1,.043-.079l.029-.045.058-.094c.021-.036.045-.072.069-.108l.156-.235.06-.079.072-.1.075-.1.091-.123a1.264,1.264,0,0,1,.087-.1.329.329,0,0,1,.029-.039l.063-.072.1-.115.043-.051.072-.084.084-.093.24-.247.1-.094.151-.139a1.282,1.282,0,0,1,.1-.093l.117-.1.079-.069.075-.063.161-.127.079-.063c.132-.1.271-.2.4-.295l.084-.057.084-.055.079-.051.117-.072.055-.036.087-.051c.113-.063.228-.132.343-.19l.072-.036.153-.069.087-.043.087-.041.087-.043.093-.039.087-.041.367-.146.087-.033.1-.036.087-.027.077-.024.166-.057.084-.024.072-.019.069-.021.118-.036.161-.039.5-.106H174c.159-.021.322-.036.482-.048h1.338a3.388,3.388,0,0,1,.4.036l.172.022h.37c.168.033.336.069.5.108l.2.051h.055c.029.007.057.015.084.024l.168.048.075.024.358.124.084.033.108.039.165.067.187.081.072.031.1.048.087.039.087.045.113.055.087.048.2.111.089.048.29.18.081.051.084.055.084.057.055.036c.12.082.237.166.348.254a.708.708,0,0,1,.079.063,1.941,1.941,0,0,1,.159.129l.081.063.075.067.117.1a1,1,0,0,1,.1.091l.151.139.1.1.1-.1.147-.139.1-.091.12-.1.075-.067.081-.063a1.933,1.933,0,0,1,.159-.129.706.706,0,0,1,.079-.063c.132-.1.268-.2.4-.295l.084-.055.084-.057.075-.051.12-.072.055-.034.089-.053c.111-.063.226-.13.343-.19l.067-.036.108-.055.093-.045.087-.039.087-.045.093-.039.087-.039.364-.147.091-.033.1-.036.087-.027.072-.024.168-.055.087-.024.067-.021.069-.019.123-.036.16-.039c.168-.041.331-.077.5-.108h.454c.159-.021.321-.036.484-.048h1.338l.4.036.171.024h.372c.166.031.331.067.5.106l.2.053h.051a.528.528,0,0,1,.089.024l.166.046.072.024.364.123.084.033.108.039.163.069.189.079.07.033.1.046.087.041.087.043.111.057.087.048.2.111.084.046.295.18.081.051.084.057.082.055.057.036.346.254.081.065.159.127.075.063.081.069.1.087.1.091.057.055.1.093.045.043.051.053.1.094.144.156.084.091c.046.048.091.1.135.151l.142.171a6.854,6.854,0,0,1,.463.621l.06.087.06.1a.844.844,0,0,1,.051.084,1.6,1.6,0,0,1,.089.139c.027.048.051.087.075.132l.048.079.036.063.036.063.048.1c0,.033.036.063.051.1a7.415,7.415,0,0,1,.31.684.716.716,0,0,1,.041.1c.039.1.075.192.106.286a.247.247,0,0,0,.033.087l.039.123.036.111a.1.1,0,0,0,.021.072c.021.024,0,.069.033.1l.034.127a.9.9,0,0,0,.053.208l.024.108.036.151v.067a.769.769,0,0,1,0,.089.433.433,0,0,1,0,.067.349.349,0,0,1,0,.06v.106q0,.054,0,.108c0,.038,0,.075,0,.111a.268.268,0,0,0,.019.12v.911C196.42,156.842,196.42,156.93,196.42,157.026Z" transform="translate(98.807 38.52)" fill="#030504" opacity="0.1"/>
    <path id="Path_2993" data-name="Path 2993" d="M127.8,162.1a.556.556,0,0,1,0,.075v.72c0,.039,0,.077,0,.117a1.752,1.752,0,0,1-.036.281c-.015.1,0,.123-.027.184a.829.829,0,0,1,0,.093v.2l-.024.1a.483.483,0,0,1,0,.07.192.192,0,0,1-.029.123.739.739,0,0,0-.019.084.716.716,0,0,0-.027.1l-.036.123a.126.126,0,0,1,0,.036l-.036.123c-.041.132-.081.259-.129.4a.95.95,0,0,1-.043.123l-.024.069a8.741,8.741,0,0,1-1.17,2.121l-.093.123a8.537,8.537,0,0,1-.746.847l-12.455,12.424-12.454-12.424a8.832,8.832,0,0,1-.978-1.154c-.183-.262-.352-.533-.508-.8a8.775,8.775,0,0,1-1.062-5,4.11,4.11,0,0,1,.051-.478c.041-.28.093-.557.159-.832a.859.859,0,0,1,.041-.168l.024-.082a.279.279,0,0,1,0-.053.483.483,0,0,1,.031-.123c.029-.094.057-.19.089-.286s.031-.087.043-.13q.1-.283.216-.55l.048-.111c.024-.051.048-.106.075-.163s.084-.175.127-.259v-.019l.06-.117.072-.13.1-.168.045-.075.027-.043.06-.1a1.232,1.232,0,0,1,.067-.108l.156-.235.06-.082.072-.1c.024-.033.048-.069.075-.1s.06-.082.093-.122l.087-.108.027-.036.06-.075.1-.115.045-.048.072-.084.084-.091.238-.252.1-.091.151-.144.1-.091.115-.1.081-.065.075-.067.159-.127.081-.063c.13-.1.266-.2.4-.295l.084-.057.084-.055.079-.048a1.228,1.228,0,0,1,.117-.075l.057-.033.087-.051c.111-.067.226-.132.343-.19l.072-.041.036-.055.087-.045.087-.043.087-.039.093-.041.087-.039.367-.147.087-.031.1-.036.087-.033.077-.024.166-.051.084-.027.072-.021h.069l.118-.031.159-.039c.168-.045.333-.081.5-.108h.264l.12-.021h.072c.159,0,.322-.039.482-.051h1.326l.4.039.173.021.115.021h.256c.168.027.334.063.5.1l.2.051h.055l.084.024.168.051.072.021c.123.039.244.079.362.127l.084.027.108.045.163.063.189.079.072.036.1.045.087.043.087.045.111.055.089.048.2.108.084.051c.1.057.2.115.295.18l.081.046.084.057.084.055a.416.416,0,0,1,.055.041c.117.079.233.163.348.25l.079.063.159.127.077.069.079.063.117.1.1.093.151.142.1.093.1-.093.147-.142.1-.093.12-.1.075-.063.081-.069.159-.127.079-.063c.132-.1.268-.2.4-.295l.084-.055.084-.057.075-.048.12-.075.055-.031.089-.053c.111-.067.226-.13.343-.19a.327.327,0,0,0,.067-.039l.108-.051.087-.045.093-.043.087-.041.091-.039.089-.039.362-.147.093-.033.1-.034.087-.033.072-.024.168-.051.087-.027.067-.021h.069l.123-.033.159-.039c.165-.043.331-.079.5-.106h.259l.123-.021h.072c.159,0,.319-.039.484-.051h1.336l.4.039.177.021.115.019h.256c.168.027.331.063.5.1l.2.051h.057l.087.024.168.051.072.019c.123.041.244.081.362.129l.084.027.108.045.163.063.183.079.077.036.1.045.087.043.087.045.111.055.089.048.2.108.084.051c.1.055.2.115.295.178l.081.048.084.057.084.055.055.039.348.252.079.063.159.127.077.067.079.065.1.091a1.015,1.015,0,0,1,.1.091l.06.053.1.091.041.039.055.051.1.1.144.153.084.091.136.154.144.171a6.794,6.794,0,0,1,.463.621l.06.087.058.1a.5.5,0,0,1,.053.081c.031.046.06.094.087.142s.051.087.075.127l.048.084.036.063.036.063.048.093a1.089,1.089,0,0,1,.051.1c.115.221.219.449.312.681l.039.1c.039.1.075.19.108.286l.031.091a.522.522,0,0,0,.041.123l.036.111a.092.092,0,0,0,.019.069l.033.1a1.139,1.139,0,0,1,.031.127c.021.069.036.135.057.2l.024.108.036.154v.063a.746.746,0,0,1,0,.087.507.507,0,0,1,0,.072.313.313,0,0,1,0,.057v.218q0,.054,0,.108v.123c0,.038,0,.077,0,.115v.25q0,.062,0,.123a.555.555,0,0,0,0,.075v.346C127.621,161.888,127.8,162.011,127.8,162.1Z" transform="translate(49.68 42.172)" fill="#e50019"/>
    <path id="Path_2994" data-name="Path 2994" d="M127.762,162.1a.551.551,0,0,1,0,.075v.72c0,.039,0,.077,0,.117a1.752,1.752,0,0,1-.036.281c-.015.1,0,.123-.027.184a.837.837,0,0,1,0,.093v.2l-.024.1a.488.488,0,0,1,0,.07.192.192,0,0,1-.029.123.488.488,0,0,0-.019.084c-.012.033-.021.067-.029.1l-.036.123a.064.064,0,0,1,0,.036l-.034.123c-.041.132-.081.259-.129.4a.958.958,0,0,1-.045.123l-.022.069a8.569,8.569,0,0,0-4-9.456c-.156-.1-.319-.194-.478-.286a8.86,8.86,0,0,0-8.48,0,8.7,8.7,0,0,0-.833.521,8.925,8.925,0,0,0-1.154.972,8.442,8.442,0,0,0-1.077-.916,8.973,8.973,0,0,0-.911-.578,8.86,8.86,0,0,0-8.48,0,8.888,8.888,0,0,0-2.953,2.636c-.175.247-.334.5-.482.76s-.264.5-.376.753c-.063.144-.12.286-.175.43a.852.852,0,0,1,.039-.168L98,159.7a.275.275,0,0,1,0-.053.483.483,0,0,1,.031-.123c.029-.094.057-.19.089-.286s.031-.087.043-.13q.1-.283.216-.55l.048-.111c.024-.051.048-.106.075-.163s.084-.175.129-.259v-.019l.058-.117.072-.13.1-.168.045-.075.027-.043.06-.1c.021-.036.045-.072.069-.108l.154-.235.06-.082.072-.1c.024-.033.048-.069.075-.1s.06-.082.093-.122l.087-.108.027-.036.06-.075.1-.115.045-.048.072-.084.084-.091.238-.252.1-.091.153-.144.1-.091.115-.1.081-.065.075-.067.159-.127.081-.063c.13-.1.268-.2.4-.295l.084-.057.084-.055.081-.048a1.022,1.022,0,0,1,.115-.075l.057-.033.087-.051c.111-.067.228-.132.343-.19l.072-.041.18-.055.087-.045.087-.043.087-.039.093-.041.087-.039.367-.147.087-.031.1-.036.087-.033.075-.024.168-.051.084-.027.072-.021h.067l.12-.031.159-.039c.168-.045.333-.081.5-.108h.264l.12-.021h.072c.159,0,.322-.039.482-.051h1.326l.4.039.171.021.117.021h.256c.168.027.334.063.5.1l.2.051h.057l.084.024.168.051.07.021c.125.039.244.079.364.127l.084.027.108.045.163.063.189.079.072.036.1.045.087.043.087.045.111.055.089.048.2.108.084.051c.1.057.2.115.295.18l.081.046.084.057.084.055a.415.415,0,0,1,.055.041c.117.079.233.163.348.25l.079.063.159.127.075.069.081.063.115.1.1.093.151.142.1.093.1-.093.147-.142.1-.093.12-.1.075-.063.081-.069.159-.127.079-.063c.132-.1.268-.2.4-.295l.084-.055.084-.057.075-.048.12-.075.055-.031.087-.053q.17-.1.345-.19a.381.381,0,0,0,.067-.039l.108-.051.087-.045.093-.043.087-.041.091-.039.089-.039.362-.147.093-.033.1-.034.087-.033.072-.024.168-.051.087-.027.067-.021h.069l.123-.033.16-.039c.163-.043.331-.079.5-.106h.259l.123-.021h.072c.159,0,.319-.039.484-.051h1.336l.4.039.175.021.117.019h.256c.168.027.331.063.5.1l.2.051h.057l.087.024.168.051.07.019c.125.041.244.081.364.129l.084.027.108.045.163.063.183.079.077.036.1.045.087.043.087.045.111.055.089.048.2.108.084.051c.1.055.2.115.295.178l.081.048.084.057.084.055.055.039.348.252.079.063.159.127.075.067.081.065.1.091a1.011,1.011,0,0,1,.1.091l.06.053.1.091.041.039.055.051.1.1.144.153.084.091.135.154.144.171a6.794,6.794,0,0,1,.463.621l.058.087.06.1a.5.5,0,0,1,.053.081c.031.046.06.094.087.142s.051.087.075.127l.048.084.036.063.036.063.048.093a1.1,1.1,0,0,1,.051.1c.115.221.219.449.312.681l.039.1c.039.1.075.19.108.286l.031.091a.523.523,0,0,0,.041.123l.034.111a.086.086,0,0,0,.021.069l.033.1c.012.043.022.084.031.127.021.069.036.135.057.2l.024.108.036.154v.063a.759.759,0,0,1,0,.087.516.516,0,0,1,0,.072.319.319,0,0,1,0,.057v.218q0,.054,0,.108v.123c0,.038,0,.077,0,.115v.25q0,.062,0,.123a.551.551,0,0,0,0,.075v.346C127.579,161.888,127.762,162.011,127.762,162.1Z" transform="translate(49.722 42.172)" fill="#030504" opacity="0.1"/>
    <path id="Path_2995" data-name="Path 2995" d="M125.565,199.057v.139a.6.6,0,0,1,0,.079v.427a.056.056,0,0,1,0,.024v.254l-.036.283a.428.428,0,0,1-.027.184v.144a.207.207,0,0,1,0,.046.487.487,0,0,1-.021.1.6.6,0,0,1-.019.1v.072a.217.217,0,0,1-.029.123l-.022.084-.024.1-.036.123v.031a.911.911,0,0,1-.041.129c-.036.127-.079.259-.123.4l-.043.12a.375.375,0,0,1-.029.067,8.584,8.584,0,0,1-1.164,2.126l-.093.118a9.017,9.017,0,0,1-.749.849L110.656,217.6,98.2,205.176a8.734,8.734,0,0,1-.977-1.156,8.921,8.921,0,0,1-.508-.8,8.741,8.741,0,0,1-1.062-5,3.1,3.1,0,0,1,.051-.473c.041-.283.093-.557.159-.837a.59.59,0,0,1,.041-.166l.024-.084v-.048l.036-.127c.031-.1.06-.192.091-.286l.045-.132c.067-.187.135-.37.214-.554l-.058-.111.07-.163c.045-.087.084-.175.132-.262v-.019l.063-.117.072-.13q.044-.085.093-.165l.048-.079.024-.045c0-.031.036-.063.055-.094s.048-.072.069-.108l.159-.235c.021-.027.036-.055.057-.079l.07-.1.077-.1.094-.123.084-.106.033-.036.06-.075.1-.117.045-.048.075-.082.115-.1c.077-.084.156-.168.24-.247l.1-.1.147-.142.1-.089.12-.1.075-.067.081-.065c.051-.043.1-.087.159-.127a.71.71,0,0,1,.079-.063c.132-.1.268-.2.4-.295l.084-.055a.716.716,0,0,1,.084-.057l.075-.051.12-.072.055-.036.089-.051c.111-.067.226-.13.343-.19l.067-.036.108-.057.087-.043.093-.039.087-.045.087-.039.093-.039.362-.147.093-.033.1-.036.087-.027.072-.024.168-.055.087-.029.067-.019h.069l.123-.036.159-.039q.247-.059.5-.108h.454c.159-.021.319-.036.484-.048h1.324l.4.036.177.024h.37c.168.027.331.063.5.1l.2.057h.057l.087.027.168.048.072.024c.123.036.244.079.362.123l.084.031.108.041.163.067.183.081.077.031.1.048.087.039.087.045.111.055.089.048.2.111.084.048c.1.06.2.115.295.178l.081.053.084.055.084.057.055.034.348.255.079.063.159.127.077.065.079.067.117.1.1.087.147.144.1.1.1-.1.147-.144.1-.087.117-.1.079-.067.075-.065.159-.127.081-.063c.135-.1.271-.2.4-.295l.084-.055.082-.057.081-.051.115-.072.06-.036.084-.051.348-.19.067-.036.108-.057.087-.043.087-.039.093-.045.087-.039.093-.039.362-.148.093-.033.1-.036.087-.027.072-.024.168-.055.087-.029.067-.019h.069l.12-.036.163-.039c.165-.041.331-.075.5-.108h.451l.484-.048h1.324a3.681,3.681,0,0,1,.4.036l.172.024h.376c.166.027.331.063.494.1l.2.057h.055l.089.027.166.048.072.024c.12.036.243.079.364.124l.081.031.106.041.165.067.187.081.072.031.1.048.093.039.087.045.111.055.087.048c.069.036.135.072.2.111l.087.048.295.178.081.053.082.055.081.057.051.034c.12.084.237.168.348.256l.084.063.154.127.081.065.075.067.1.087.1.091.055.057.1.091.045.045.051.051.1.1.147.154.084.087.135.156.144.171a7.309,7.309,0,0,1,.463.621l.06.087.06.1.051.082.087.141.075.13.048.081.036.063c0,.019.021.043.033.063s.036.063.051.1.033.063.051.094c.111.223.216.454.312.686,0,.031.027.063.039.1l.108.286.027.087a.359.359,0,0,0,.045.123.608.608,0,0,1,.031.111l.024.072.029.1.034.127c.021.067.036.135.053.207a1.064,1.064,0,0,1,.027.106,1.111,1.111,0,0,0,.033.153v1.3a.634.634,0,0,0,0,.081v.266C125.351,198.859,125.57,198.97,125.565,199.057Z" transform="translate(48.068 68.604)" fill="#e50019"/>
    <path id="Path_2996" data-name="Path 2996" d="M125.5,199.057v.139a.3.3,0,0,1,0,.079v.427a.056.056,0,0,1,0,.024v.254l-.036.283a.428.428,0,0,1-.027.184v.142a.223.223,0,0,1,0,.048.487.487,0,0,1-.021.1.6.6,0,0,1-.019.1v.072a.228.228,0,0,1-.027.123l-.024.084-.024.1-.036.123v.031a.911.911,0,0,1-.041.129c-.036.127-.079.259-.123.4l-.043.12a.375.375,0,0,1-.029.067,8.408,8.408,0,0,0,.244-2.13,8.582,8.582,0,0,0-.3-2.209,8.835,8.835,0,0,0-3.783-5.136c-.16-.1-.319-.194-.484-.283a8.826,8.826,0,0,0-8.475,0,12.727,12.727,0,0,0-2.092,1.494,8.7,8.7,0,0,0-1.988-1.489,8.826,8.826,0,0,0-9.732.832,8.918,8.918,0,0,0-.734.657,8.668,8.668,0,0,0-.967,1.142,8.015,8.015,0,0,0-.482.761,7.665,7.665,0,0,0-.376.751c-.063.141-.123.283-.175.427a.664.664,0,0,1,.039-.168l.024-.084V196.6l.036-.129c.031-.094.06-.19.091-.286l.045-.13c.069-.189.135-.37.216-.554l.036-.093.07-.163.132-.262v-.021l.065-.115.07-.13q.044-.085.093-.165l.048-.079.024-.045c0-.031.036-.063.055-.094s.048-.072.069-.108l.16-.235c.021-.027.036-.055.057-.079l.07-.1.077-.1.1-.123.082-.106.033-.036.06-.075.1-.117.045-.048.075-.082.115-.1c.077-.084.156-.168.24-.247l.1-.1.147-.142.1-.089.12-.1.075-.067.081-.065c.051-.043.1-.087.159-.127a.709.709,0,0,1,.079-.063c.132-.1.268-.2.4-.295l.084-.055a.715.715,0,0,1,.084-.057l.075-.051.12-.072.055-.036.089-.051c.111-.067.226-.13.343-.19l.067-.036.108-.057.087-.043.093-.039.087-.045.087-.039.093-.039.362-.147.093-.033.1-.036.087-.027.072-.024.168-.055.087-.029.067-.019h.069l.123-.036.159-.039q.247-.059.5-.108h.454c.16-.021.321-.036.484-.048h1.326l.4.036.177.024h.37c.168.027.331.063.5.1l.2.057h.057l.087.027.168.048.072.024c.123.036.244.079.362.123l.084.031.108.041.165.067.183.081.075.031.1.048.087.039.087.045.111.055.089.048.2.111.084.048c.1.06.2.115.295.178l.081.053.084.055.084.057.055.034.348.255.079.063.16.127.077.065.079.067.117.1.1.087.147.144.1.1.1-.1.147-.144.1-.087.117-.1.079-.067.075-.065.161-.127.079-.063c.136-.1.271-.2.4-.295l.084-.055.082-.057.081-.051.117-.072.058-.036.084-.051.348-.19.067-.036.108-.057.087-.043.089-.039.091-.045.087-.039.093-.039.364-.148.091-.033.1-.036.087-.027.072-.024.168-.055.087-.029.067-.019h.069l.12-.036.163-.039c.165-.041.331-.075.5-.108h.451l.484-.048h1.324a3.681,3.681,0,0,1,.4.036l.172.024h.376c.166.027.331.063.494.1l.2.057h.057l.087.027.166.048.072.024c.12.036.243.079.364.124l.081.031.106.041.165.067.187.081.072.031.1.048.093.039.087.045.111.055.087.048c.069.036.137.072.2.111l.087.048.295.178.081.053.084.055.079.057.051.034c.12.084.237.168.348.256l.084.063.154.127.081.065.075.067.1.087.1.091.055.057.1.091.045.045.051.051.1.1.147.154.084.087.135.156.144.171a7.306,7.306,0,0,1,.463.621l.06.087.06.1.051.082.087.141.075.13.048.081.036.063c0,.019.021.043.033.063s.036.063.051.1.033.063.051.094c.111.223.216.454.312.686,0,.031.027.063.039.1l.108.286.027.087a.359.359,0,0,0,.045.123.608.608,0,0,1,.031.111l.024.072.029.1.036.127c.019.067.034.135.051.207a1.064,1.064,0,0,1,.027.106,1.111,1.111,0,0,0,.033.153v1.3a.634.634,0,0,0,0,.081v.266C125.288,198.859,125.508,198.97,125.5,199.057Z" transform="translate(48.13 68.604)" fill="#030504" opacity="0.1"/>
    <path id="Path_2997" data-name="Path 2997" d="M141.214,174.216v.1a.263.263,0,0,1,0,.051v.418a.619.619,0,0,1,0,.079l-.024.2-.024.127v.065a.152.152,0,0,1,0,.039v.218a.763.763,0,0,0,0,.089v.055a.106.106,0,0,1-.021.075l-.024.087v.021l-.024.091c-.027.093-.058.183-.091.271s0,.06-.027.087l-.021.048a6.26,6.26,0,0,1-.821,1.5l-.069.084a5.663,5.663,0,0,1-.526.6l-8.8,8.779-8.8-8.779a6.211,6.211,0,0,1-1.8-4.915,2.648,2.648,0,0,1,.039-.34,5.672,5.672,0,0,1,.113-.585.635.635,0,0,1,.027-.12.33.33,0,0,0,0-.058v-.036l.024-.087c.019-.072.043-.141.063-.2l.033-.1c.048-.13.1-.257.151-.4l.036-.075c0-.039.033-.075.051-.115l.089-.183c.015-.027.029-.055.043-.084l.051-.091a.97.97,0,0,1,.069-.115.232.232,0,0,1,.033-.057v-.031l.043-.065.048-.075.111-.166.039-.06.048-.067.057-.077.069-.082a.52.52,0,0,1,.058-.075l.021-.029.045-.051c.024-.027.043-.055.067-.079l.033-.036.051-.057.06-.067.168-.175.067-.069.108-.1a.479.479,0,0,0,.069-.063l.084-.072.055-.046.057-.045.111-.091.055-.045.288-.211.06-.039.06-.036.055-.036.081-.051.045-.024.058-.036c.081-.048.161-.1.244-.135l.048-.027.077-.039.063-.029.063-.031.06-.027.063-.029.063-.027.261-.1.063-.024.067-.024.06-.024h.053l.118-.039h.156l.087-.024.111-.027c.12-.033.237-.057.357-.077h.319c.111,0,.226-.027.34-.034h.945l.271.027h.388c.115.019.235.043.352.072l.144.039h.1l.12.031h.046l.261.087.055.024.077.029.115.046.132.057.051.024.072.031.063.033.06.027.081.041.06.034.142.077.06.034.213.129.055.036.057.034.06.041.039.027c.084.055.163.115.243.178l.055.045.117.091.051.045.057.048.084.07.07.065a1.429,1.429,0,0,0,.1.1l.069.067.067-.067a1.423,1.423,0,0,0,.1-.1l.07-.065.084-.07.057-.048.051-.045.117-.091.055-.045c.093-.07.189-.142.288-.211l.06-.039.055-.036.057-.036.084-.051.039-.024.06-.036c.084-.046.163-.094.247-.135l.048-.027.075-.039.06-.027.063-.033.065-.027.063-.027.063-.029.256-.1.063-.024.069-.024.063-.024h.051l.117-.039h.16l.084-.024.115-.027a3.312,3.312,0,0,1,.352-.075h.324c.111,0,.223-.027.338-.036h.947l.271.027h.388l.346.072.144.039h.1l.115.033h.051l.255.087.06.024.075.027.117.048.132.055.051.024.067.033.065.031.063.029.075.039.063.036.144.075.06.036c.072.039.139.082.208.127l.057.036.058.036.06.039.036.027c.084.057.168.117.249.18l.055.043a1.176,1.176,0,0,1,.111.093l.057.043.055.048.072.063.072.063.041.041.067.067.027.027.041.036.067.072.1.108.055.063.1.106.1.123c.115.141.223.286.326.439l.041.06c0,.022.027.046.043.067l.036.06c.021.031.045.063.065.1l.051.091a.362.362,0,0,1,.031.057l.029.043.024.048.036.069.036.067c.079.156.151.319.219.482l.027.072c.027.067.051.13.075.2a.358.358,0,0,1,.021.06.1.1,0,0,0,.031.087l.024.079v.053a.094.094,0,0,0,.021.07l.024.087a.644.644,0,0,0,.039.144c.012.048,0,.051,0,.079l.024.108v.108a.221.221,0,0,0,0,.048v.358a.662.662,0,0,1,0,.082v.045a.734.734,0,0,0,0,.087.177.177,0,0,0,0,.043v.087a.313.313,0,0,1,0,.057.313.313,0,0,1,0,.057.869.869,0,0,1,0,.094.9.9,0,0,1,0,.1Z" transform="translate(65.582 52.71)" fill="#e50019"/>
    <path id="Path_2998" data-name="Path 2998" d="M141.125,174.226v.1a.259.259,0,0,1,0,.051v.418a.608.608,0,0,1,0,.079l-.024.2-.024.129v.063a.154.154,0,0,1,0,.039v.22a.734.734,0,0,0,0,.087v.055a.106.106,0,0,1-.021.075l-.024.087v.021l-.024.091c-.027.093-.058.184-.091.271s0,.06-.027.087l-.021.048a6.171,6.171,0,0,0,.171-1.5,6.353,6.353,0,0,0-.211-1.566,6.231,6.231,0,0,0-1.6-2.785,6.364,6.364,0,0,0-1.065-.852c-.113-.069-.225-.135-.34-.2a6.252,6.252,0,0,0-5.987,0,6.753,6.753,0,0,0-.59.365,6.619,6.619,0,0,0-.8.686,6.171,6.171,0,0,0-.758-.645,5.554,5.554,0,0,0-.646-.4,6.205,6.205,0,0,0-6.868.59,6.6,6.6,0,0,0-.518.461,6.435,6.435,0,0,0-.686.8c-.123.177-.237.355-.34.538a5.329,5.329,0,0,0-.268.533c-.045.1-.084.2-.123.3a.59.59,0,0,1,.027-.118.352.352,0,0,0,0-.06v-.036l.024-.087c.021-.072.045-.139.063-.2l.033-.1c.048-.132.1-.259.151-.4l.036-.075c0-.041.033-.077.053-.117l.087-.184a.748.748,0,0,0,.043-.082l.053-.093a1.1,1.1,0,0,1,.067-.115.221.221,0,0,1,.033-.055v-.033l.043-.063.048-.075.111-.168.041-.06.048-.067.055-.075.069-.084a.5.5,0,0,1,.06-.075l.019-.027.045-.051c.024-.029.045-.057.067-.081l.033-.036.051-.055.06-.069.168-.175.069-.067.106-.1a.614.614,0,0,0,.069-.063l.084-.072.055-.048.057-.045.111-.091.057-.045.286-.211.06-.039.06-.036.057-.036.079-.051.045-.024.06-.036c.079-.046.159-.094.243-.135l.048-.027.075-.039.063-.027.063-.033.06-.027.063-.027.065-.029.259-.1.063-.024.069-.024.06-.024h.051l.12-.039h.154l.089-.024.111-.027a3.276,3.276,0,0,1,.355-.075h.319c.111,0,.228-.027.34-.036h.945l.273.027h.386c.117.021.237.045.352.072l.144.039h.1l.12.033h.048l.259.087.057.024.075.027.115.048.132.055.051.024.072.033.063.031.06.029.081.039.06.036.144.075.058.036.213.127.055.036.057.036.06.039.039.027c.084.057.165.117.244.18l.057.043.115.093.051.043.057.048.084.072.072.063a1.417,1.417,0,0,0,.1.1l.069.067.067-.067a1.155,1.155,0,0,0,.1-.1l.072-.063.084-.072.055-.048.051-.043.117-.093.055-.043c.093-.072.189-.144.288-.211l.06-.041.057-.034.055-.036.084-.051.039-.024.06-.036c.084-.048.165-.1.247-.135l.048-.027.077-.041.058-.027.065-.031.063-.029.063-.027.063-.027.256-.1.065-.024.067-.022.063-.024h.053l.115-.041h.16l.084-.024.117-.027c.115-.031.235-.055.35-.075h.324c.111,0,.223-.027.34-.036h.945l.271.027h.388l.348.072.142.039h.1l.115.033h.053l.254.087.06.024.077.027.115.048.132.057.051.024.069.031.063.033.063.027.075.039.065.036.142.075.06.036c.072.039.141.084.208.127l.057.036.06.036.06.039.036.029c.082.055.166.115.247.178l.055.045a1.134,1.134,0,0,1,.113.091l.055.045.057.046.072.065.072.063.039.039.067.067.029.029.039.034.067.072.1.108.057.063.094.108.1.123c.115.139.223.286.328.437l.039.06c0,.024.027.048.045.067l.036.06c.019.033.043.063.063.1l.051.093a.577.577,0,0,1,.033.055l.027.045.024.046.036.069.036.067c.079.156.151.319.219.482l.027.072c.027.069.051.132.075.2a.419.419,0,0,1,.021.06.1.1,0,0,0,.033.087l.022.081v.051a.1.1,0,0,0,.021.072l.024.087a.632.632,0,0,0,.039.142.176.176,0,0,1,0,.081l.024.106v.108a.225.225,0,0,0,0,.048v.358a.677.677,0,0,1,0,.084v.043a.747.747,0,0,0,0,.087.2.2,0,0,0,0,.045v.087a.289.289,0,0,1,0,.055.308.308,0,0,1,0,.057.884.884,0,0,1,0,.1.853.853,0,0,1,0,.094Z" transform="translate(65.671 52.7)" fill="#030504" opacity="0.1"/>
    <path id="Path_2999" data-name="Path 2999" d="M196.1,193.841v.1a.157.157,0,0,1,0,.057v.159c0,.034,0,.07,0,.106v.151a.317.317,0,0,1,0,.081l-.024.2v.2a.077.077,0,0,1,0,.039v.036a.441.441,0,0,1,0,.067v.208a.349.349,0,0,0,0,.06v.072l-.024.087v.024c-.01.027-.019.057-.027.087-.027.091-.055.182-.087.274-.012.027-.022.055-.033.084l-.019.046a6.219,6.219,0,0,1-.823,1.5l-.063.082a6.107,6.107,0,0,1-.53.6l-8.8,8.777-8.78-8.777a5.693,5.693,0,0,1-.689-.816,5.306,5.306,0,0,1-.36-.569,6.194,6.194,0,0,1-.749-3.531,1.584,1.584,0,0,1,.036-.334,5.329,5.329,0,0,1,.111-.59.172.172,0,0,1,.031-.118.358.358,0,0,1,0-.06.13.13,0,0,1,0-.036l.024-.087a.772.772,0,0,1,.065-.2c.012-.033.022-.063.031-.1.048-.132.1-.259.153-.4l.036-.081a.306.306,0,0,1,.051-.115c.019-.039.06-.123.091-.184l.041-.082.051-.093c.024-.039.043-.079.067-.115.01-.019.021-.038.033-.057v-.031c0-.024.027-.048.045-.069l.048-.075.111-.166.039-.057.051-.072.051-.07.069-.087.06-.077v-.027l.045-.051.067-.079.033-.036.051-.06.06-.063c.055-.06.111-.12.171-.175a.506.506,0,0,1,.067-.069,1.442,1.442,0,0,1,.1-.1l.072-.063a.651.651,0,0,1,.079-.075l.057-.048.057-.045.111-.091.055-.043c.1-.072.192-.144.288-.208l.06-.039.06-.041.055-.034.084-.053.039-.024.06-.034.244-.135.048-.029.075-.036.065-.031.063-.027.063-.033.06-.027.063-.027.259-.1.065-.024.067-.024.06-.019.051-.021.12-.036h.156l.087-.024.111-.027c.12-.027.237-.055.355-.076h.321l.343-.036h.941l.274.027h.384a3.578,3.578,0,0,1,.352.075l.142.036h.1l.118.036h.053l.256.087h.055l.075.029.117.046.132.057.051.024.072.036.063.027.06.033.079.039.065.031.139.081.063.031.207.129.057.036.06.039.055.039.041.027.244.18.06.043.111.093.055.043.053.048.082.075.072.063.1.1a.512.512,0,0,1,.067.069c.024-.024.045-.048.069-.069l.108-.1a.587.587,0,0,1,.067-.063l.084-.075.057-.048.055-.043.111-.093.057-.043c.1-.072.192-.144.288-.208l.06-.039.058-.039.057-.036.081-.053.043-.022.06-.036.244-.135.048-.029.075-.034.063-.033.06-.027.063-.033.065-.027.063-.027.256-.1.063-.024.069-.024.063-.019.051-.021.12-.036h.156l.087-.024.111-.027c.117-.027.235-.055.352-.075h.322l.34-.036h.947l.271.027h.388c.115.021.235.045.35.077l.144.034h.1l.117.036h.051l.256.087h.06l.075.029.117.046.13.057.053.024.072.036.058.027.065.033.079.039.06.031.144.081.06.031c.072.041.139.084.208.129l.055.036.06.039.06.039.039.027.244.18.057.043.111.093.057.043.055.048.072.063.072.063a.455.455,0,0,0,.039.041c0,.022.045.043.069.067l.033.027.034.039.069.069.1.108.055.063a1,1,0,0,1,.1.111l.1.118c.117.144.225.286.328.439,0,.019.029.039.041.063l.043.063.036.06a.877.877,0,0,1,.063.1l.053.091.036.057.022.048.024.043.036.069.036.067c.081.159.156.319.22.482a.449.449,0,0,1,.029.072c.027.067.051.135.075.2l.024.063a.683.683,0,0,0,.027.084l.024.079v.123l.024.087a.671.671,0,0,0,.039.147c.012.048,0,.048,0,.075l.024.108v.859a.271.271,0,0,0,0,.053v.055a.9.9,0,0,1,0,.1.9.9,0,0,1,0,.1Z" transform="translate(104.865 66.714)" fill="#e50019"/>
    <path id="Path_3000" data-name="Path 3000" d="M196.026,193.838v.1a.156.156,0,0,1,0,.057v.159c0,.036,0,.072,0,.106v.153a.3.3,0,0,1,0,.079l-.022.2v.2a.15.15,0,0,1,0,.039v.31a.178.178,0,0,0,0,.06v.072l-.024.087v.024a.741.741,0,0,0-.029.087c-.027.091-.055.184-.087.274-.012.027-.022.055-.033.084l-.019.048a6.191,6.191,0,0,0-2.715-6.679c-.111-.072-.223-.141-.338-.2a6.252,6.252,0,0,0-5.987,0,5.98,5.98,0,0,0-.59.37,6.329,6.329,0,0,0-.8.684,6.074,6.074,0,0,0-.758-.648,7.3,7.3,0,0,0-.643-.4,6.249,6.249,0,0,0-5.985,0,6.355,6.355,0,0,0-.881.588,5.6,5.6,0,0,0-.52.466,6.035,6.035,0,0,0-.682.8,5.244,5.244,0,0,0-.343.542c-.1.175-.187.353-.268.533-.043.1-.084.2-.123.3a.165.165,0,0,1,.033-.118.349.349,0,0,1,0-.06.126.126,0,0,1,0-.036l.024-.087a.749.749,0,0,1,.063-.2c.012-.033.022-.063.031-.1.048-.132.1-.259.153-.4l.036-.081a.306.306,0,0,1,.051-.115c.021-.039.06-.123.093-.183l.039-.084.051-.091c.024-.039.045-.079.069-.115a.365.365,0,0,1,.031-.057v-.031c0-.024.029-.048.045-.069l.048-.075.111-.166.039-.057.051-.072.053-.07.067-.089.06-.075v-.027l.045-.051.067-.079.033-.036.051-.06.06-.063c.057-.06.111-.12.171-.175a.432.432,0,0,1,.069-.069,1.408,1.408,0,0,1,.1-.1l.072-.063a.671.671,0,0,1,.081-.075l.055-.048.057-.045.111-.091.057-.045c.094-.07.19-.142.286-.206l.06-.039.06-.041.057-.036.082-.051.041-.024.06-.036.244-.134.046-.029.077-.036.063-.031.063-.027.063-.033.06-.027.063-.029.261-.1.063-.024.069-.024.058-.019.053-.021.12-.036h.154l.087-.024.113-.027c.118-.027.235-.057.355-.076h.319l.343-.036h.941l.276.027h.382a3.559,3.559,0,0,1,.352.076l.144.036h.1l.12.036h.051l.256.087h.055l.077.027.115.048.132.057.051.024.072.036.063.027.06.031.081.041.063.031.139.081.065.031.208.127.055.036.06.041.057.039.039.027.244.18.06.043.111.091.057.045.051.048.084.075.072.063.1.1a.516.516,0,0,1,.069.069c.024-.024.043-.048.067-.069l.108-.1a.484.484,0,0,1,.069-.063l.082-.075.057-.048.057-.045.111-.091.055-.043c.1-.072.192-.144.288-.207l.06-.039.06-.041.055-.036.081-.051.043-.024.06-.034.244-.136.048-.029.075-.036.065-.031.06-.027.063-.033.063-.027.063-.027.256-.1.063-.024.069-.024.063-.019.051-.021.12-.036h.156l.087-.024.111-.027c.117-.027.237-.055.352-.075h.324l.338-.036h.947l.271.027h.388c.115.021.235.045.352.075l.142.036h.1l.115.036h.051l.256.087h.06l.075.029.117.046.132.057.051.024.072.036.06.027.063.033.081.039.058.031.144.081.06.031c.072.041.141.084.207.129l.057.034.06.041.06.039.039.027.244.18.055.043.111.093.057.043.057.048.072.063.07.063a.3.3,0,0,0,.041.039c0,.024.043.045.067.069l.033.027.036.039.067.069.1.106.055.065a1,1,0,0,1,.1.111l.1.118c.115.144.223.286.328.439,0,.019.027.039.039.063l.043.063.036.06c.024.031.045.067.065.1l.051.091.036.057.024.046.024.045.036.067.036.069c.079.159.154.319.219.482a.448.448,0,0,1,.027.072c.027.067.051.135.075.2l.024.063c.009.029.017.057.027.084l.024.079v.123l.024.087a.678.678,0,0,0,.041.147c.012.048,0,.048,0,.075l.024.108v.859a.139.139,0,0,0,0,.053v.055a.908.908,0,0,1,0,.1.876.876,0,0,1,0,.094Z" transform="translate(104.943 66.718)" fill="#030504" opacity="0.1"/>
    <path id="Path_3001" data-name="Path 3001" d="M207.315,233.111a45.863,45.863,0,0,0-4.054-3.642c.171-2.133.571-7.24.607-8.225.039-1.245-1.8-2.838-5.735-4.306s-2.794,5.381-2.737,6a4.62,4.62,0,0,0,2.394,3.1c.53.218.674.494.638.751l-.123-.019a15.4,15.4,0,0,1-4.7-1.147,24.691,24.691,0,0,0-1.2,5.3v.271a2.037,2.037,0,0,0,.1.924h.274a2.988,2.988,0,0,1-.22,1.362,10.274,10.274,0,0,1-.4.979,27.378,27.378,0,0,1-.189-2.951c.065-.955-1.459-4.836-1.459-4.836a6.771,6.771,0,0,1-1.969-1.783,7.841,7.841,0,0,0-3.3-2.483c-.905-.319-4.189-4.582-5.542-5.573-1.079-.8-1.513-.326-1.645-.1l-.081.057a4.719,4.719,0,0,1-1.073-2.284c0-.434.045-1.326.125-2.457a10.405,10.405,0,0,1,1.308,1.2c.917,1.015,1.6,2.224,2.6,3.161a4.233,4.233,0,0,0,2.866,1.25,2.676,2.676,0,0,0,1.038-.163c1.332-.514,2.19-2.135,3.591-2.2,1.1.057,1.912,1.072,2.814,1.741a3.78,3.78,0,0,0,2.319.8,2.638,2.638,0,0,0,.977-.156,2.087,2.087,0,0,0,1.272-2.658c-.734-1.545-3.233-1.2-4.3-2.54a1.049,1.049,0,0,1-.252-.463,1.066,1.066,0,0,1,0-.525.692.692,0,0,1,.647-.47,2.257,2.257,0,0,1,1.338.638c.52.525,1.2,1.194,1.84,1.122a.867.867,0,0,0,.523-.1c.019-.473.043-.947.063-1.422a4.966,4.966,0,0,0,2.219.629,2.768,2.768,0,0,0,.43-.019,1.733,1.733,0,0,0,1.549-1.7,1.947,1.947,0,0,0,1.329.442,1.785,1.785,0,0,0,.638-.081,1.929,1.929,0,0,0,1.293-1.655,3.768,3.768,0,0,0-1.01-2.389l-2.61-3.558a1.44,1.44,0,0,1-.4-1.027,2.144,2.144,0,0,1,.446-.8,2.771,2.771,0,0,0-.542-3.423,4.849,4.849,0,0,0-3.48-1.151,4.562,4.562,0,0,1-2.758-.358,3.127,3.127,0,0,1-1.079-1.874c-.554-2.094-.586-4.291-.972-6.421a8.809,8.809,0,0,0-2.953-5.618,2.737,2.737,0,0,0-1.37-.6,9.852,9.852,0,0,0-1.269.1,4.633,4.633,0,0,1-3.622-2.03,32.306,32.306,0,0,0-2.639-3.411,6.449,6.449,0,0,0-6.12-1.413c-.935.259-1.677,1.015-2.643,1.055a31.78,31.78,0,0,1-4.366-.4,12.076,12.076,0,0,0-3.991.087,4.247,4.247,0,0,0-2.794,2.066l-.338-2.871a49.956,49.956,0,0,0-1.019-5.856,1.459,1.459,0,0,1,.041-1.278l.063.06c.048-.144.1-.29.151-.437a1,1,0,0,0,0-.334c.123-1.087-1.856-8.005-1.856-8.005h-1.78a1.476,1.476,0,0,0-.043-.256c-.52-2.814-1.392-7.213-2-8.273a4.913,4.913,0,0,1-.358-2.675,21.538,21.538,0,0,0,.084-3.155,8.5,8.5,0,0,1,.07-1.521,2.13,2.13,0,0,0-.849-1.991c-2.336-1.727-8.01-5.661-11.33-5.76-4.253-.127,1.334,7.321,1.269,8.022s4.255,1.338,4.255,1.338.255,2.161.511,3.371c.175.84.47,7.069.638,10.807a11.9,11.9,0,0,1-2.86-1.07s-4.953-1.334-5.4,0,6.035,7.767,6.035,7.767,2.286,6.047,1.595,7.961-.19,10.948-.19,10.948.063,10.749.538,13.494a5.284,5.284,0,0,1-.857,4.265s-.571,6.746,0,7.384a19.655,19.655,0,0,1,1.564,2.5l.168.3c-1.876,2.286-3.74,4.471-4.718,4.778-1.9.573-14.916,5.971-14.916,5.971s-4.251,4.052-4.893,4.052,3.87,4.33,3.87,4.33,4.063,3.245,4.508,3.754,11.574,6.556,11.574,6.556,1.907.575,2.094,1.147,2.73,2.161,2.73,2.161a16.572,16.572,0,0,1,2.459,3.678.878.878,0,0,0,.027.276c.024.4.051.58.075.485.34.931,2.625,3.308,1.525,5-.511.8,0,2.224.986,3.378a12.189,12.189,0,0,1-1.037,3.584c-.763,1.019-.424,2.459-1.2,2.631s-1.019,3.9-1.019,3.9l-.659,8.228s-.171,1.7-1.1,2.123,0,2.715,0,2.715-1,1.95-.4,3.053-1.2,6.2-1.2,6.2-.761,9.845,0,11.2a11.107,11.107,0,0,1,1.2,4.328c0,.847.424,16.718.424,16.718s-1.017,6.45-1.356,7.635.933,3.822.087,5.176-.679,4.411-.679,4.411-1.269,11.966-.506,16.381-.244,5.347-.244,5.347a9.129,9.129,0,0,0,1.645.724c.019.168.039.346.06.53.4,3.7.984,10.08.451,11.545a23.18,23.18,0,0,0-.739,5.8v.259l-1.48,2.387a7.619,7.619,0,0,1-.679,2.445c-.382.338-3.564,6.1-3.991,6.839l-.045.079s-3.215,5.9,4.742,6.067,6.94-3.9,6.94-3.9.024-.8.1-1.771a8.534,8.534,0,0,1,.578-3.025,42.624,42.624,0,0,0,2.159-3.862v-4.673h-.511a.786.786,0,0,1,.029-.255,17.466,17.466,0,0,1,.442-2.886c.252-.593-.55-4.16-.55-4.16a93.222,93.222,0,0,1,.962-11.193c.036-.19.072-.379.106-.557a13.41,13.41,0,0,0,1.713-.892s0-8.653,1.017-10.183.8-5.856.8-5.856.252-3.817,1.013-4.58.583-4.16.583-4.16.674-2.205,1.435-3.98,1.2-6.788,1.2-6.788a8.594,8.594,0,0,1,1.2-2.464c.849-1.194,0-3.817,0-3.817a4.634,4.634,0,0,1-.336-3.4c.6-1.7,3.891-15.446,3.891-15.446l1.272-4.92,1.861,6.278a42.9,42.9,0,0,0,0,5.772,17.986,17.986,0,0,0,2.03,3.98v13.323s.171,9,.851,10.439,1.013,6.791,1.013,6.791,2.286,15.7.845,17.989a13.806,13.806,0,0,0,2.339,1.278v9.247s-1.66,5.6-1.094,9.408a1.477,1.477,0,0,0,.036.226c-.151.111-.319.208-.422.166l.268,6.369a19.727,19.727,0,0,1-.607,5.4,7.607,7.607,0,0,0-.4,2.022c-.147,2.519.827,5.971,6.385,5.613,7.4-.47,6.261-5.176,6.261-5.176s0-.182-.027-.5a19.163,19.163,0,0,0-1.835-6.92,17.371,17.371,0,0,1-1.521-7.81,2.692,2.692,0,0,1-.451.118,1.127,1.127,0,0,1,.021-.259c.1-1.194.244-2.742.4-3.466a22.781,22.781,0,0,0,0-4.241l.953-9.295.051-.518a7.6,7.6,0,0,0,1.314-.8,9.507,9.507,0,0,1-.492-2.588,2.283,2.283,0,0,1,.492-1.636c1.1-1.1,1.859-14.935,1.859-14.935s.6-4.869.6-6.513v-.295c-.067-.991-.593-4.872-.586-7.137a4.486,4.486,0,0,1,.165-1.417c.506-1.274,1.2-25.207,1.2-25.207l.845-10.6v-8.71a51.141,51.141,0,0,0-1.513-12.368c2.307,1.194,6.261,3.91,6.983,3.184.89-.892,1.334-16.17,1.079-17.694a1.645,1.645,0,0,0-.06-.31c-.06-.28-.147-.653-.256-1.087l.352-.609c1.735-3,4.388-7.758,4.6-9.156.238-1.591.554-5.728,1.152-7.54a3.93,3.93,0,0,1,.171-.425c.156-.314.324-.485.516-.437,1.08.254,1.778,1.082,2.349.763a.244.244,0,0,0,.075-.063.885.885,0,0,0,.144-.2,1.942,1.942,0,0,0,.132-.292c.039-.1.075-.218.111-.341v-.036a.773.773,0,0,1,.039-.156.261.261,0,0,0,0-.051.574.574,0,0,1,.033-.135l.024-.1v-.051c.1-.449.175-.916.223-1.242a1.624,1.624,0,0,1,.041-.295v-.16Z" transform="translate(67.272 29.312)" fill="url(#linear-gradient)"/>
    <path id="Path_3002" data-name="Path 3002" d="M138.493,202.586a1.354,1.354,0,0,0-.087-.713C138.433,202.447,138.466,202.71,138.493,202.586Z" transform="translate(78.653 76.867)" fill="url(#linear-gradient-2)"/>
    <path id="Path_3003" data-name="Path 3003" d="M167.437,194.221s1.509-1.027.036-1.633a4.609,4.609,0,0,1-2.394-3.082c-.057-.612-1.2-7.427,2.737-5.971s5.774,3.042,5.735,4.284-.677,9.116-.677,9.116Z" transform="translate(97.581 63.612)" fill="#e7788d"/>
    <path id="Path_3004" data-name="Path 3004" d="M178.448,195.944a2.326,2.326,0,0,1-.06.454c-.117.8-.4,2.435-.83,2.67-.571.319-1.269-.5-2.351-.76-.192-.045-.358.123-.514.437a3.449,3.449,0,0,0-.171.422c-.6,1.808-.914,5.923-1.154,7.508-.214,1.4-2.866,6.139-4.6,9.12-.259.451-.5.861-.71,1.2-.478.8-.8,1.317-.8,1.317l-4.39-8.207V198a10.646,10.646,0,0,0,.8-1.677,2.944,2.944,0,0,0,.22-1.353.684.684,0,0,0-.187-.4.464.464,0,0,1-.084-.123.579.579,0,0,1-.039-.1,1.378,1.378,0,0,1-.057-.31v-.264a24.579,24.579,0,0,1,1.2-5.278,14.844,14.844,0,0,0,4.7,1.139C172.648,190.006,178.448,195.944,178.448,195.944Z" transform="translate(96.141 67.298)" fill="#f67812"/>
    <path id="Path_3005" data-name="Path 3005" d="M178.117,196.181c-.117.8-.4,2.435-.83,2.67-.571.319-1.269-.5-2.351-.76-.192-.043-.358.123-.514.437a3.452,3.452,0,0,0-.172.422c-2.183-1.058-5.987-2.977-6.23-3.519s-2.893-.664-4.39-.688h-.271a2.019,2.019,0,0,1-.1-.919,27.682,27.682,0,0,1,1.2-5.031,14.881,14.881,0,0,0,4.7,1.137C172.211,190.282,177.51,195.567,178.117,196.181Z" transform="translate(96.411 67.516)" fill="#030504" opacity="0.1"/>
    <path id="Path_3006" data-name="Path 3006" d="M178.166,195.954s-.321,2.806-.89,3.119-1.269-.5-2.351-.756c-.192-.046-.358.12-.514.434-2.15-1.043-6.165-3.049-6.385-3.6s-3.241-.681-4.661-.7c-.523-1.091,1.1-5.971,1.1-5.971a14.893,14.893,0,0,0,4.7,1.144C172.4,190.007,178.166,195.954,178.166,195.954Z" transform="translate(96.422 67.293)" fill="#be5e1a"/>
    <path id="Path_3007" data-name="Path 3007" d="M173.389,239.229c-.89.887-6.669-3.419-8.252-3.675s-7.343-24.314-7.343-24.314l.866-13.56L155.283,185.2l-.439-1.631s.336-1,1.693,0,4.653,5.237,5.543,5.553a7.947,7.947,0,0,1,3.3,2.476,6.747,6.747,0,0,0,1.967,1.771s1.525,3.865,1.459,4.812.511,7.412,1.2,7.981,1.838,5.765,1.838,5.765,2.1,7.3,2.543,9.379c.029.122.048.225.06.31C174.721,223.141,174.279,238.34,173.389,239.229Z" transform="translate(90.405 63.468)" fill="#f67812"/>
    <path id="Path_3008" data-name="Path 3008" d="M160.915,198.238l4.191,1.118s.8,7.221,1.092,7.6,1.317,15.2,1.317,15.2l-6.6-2.979-2.478-7.96V202.41Z" transform="translate(92.973 74.268)" fill="#030504" opacity="0.1"/>
    <path id="Path_3009" data-name="Path 3009" d="M145.549,267.214a14.164,14.164,0,0,0-.6,2.389,89.824,89.824,0,0,0-.962,11.147s.8,3.546.55,4.14a17.26,17.26,0,0,0-.442,2.871c-.069.621-.108,1.094-.108,1.094l-7.75-.506s0-.458.024-1.158a23.509,23.509,0,0,1,.737-5.765c.523-1.456-.048-7.818-.451-11.5-.171-1.593-.31-2.684-.31-2.684S146.854,263.823,145.549,267.214Z" transform="translate(77.101 122.505)" fill="#e7788d"/>
    <path id="Path_3010" data-name="Path 3010" d="M163.14,269.293l-.953,9.248a22.546,22.546,0,0,1,0,4.219c-.144.72-.292,2.257-.4,3.452-.072.9-.12,1.615-.12,1.615s-5.927,4.14-7.278.506a6.428,6.428,0,0,1-.336-1.362c-.566-3.793,1.094-9.363,1.094-9.363v-11.9l8.213,1.338Z" transform="translate(89.755 122.504)" fill="#e7788d"/>
    <path id="Path_3011" data-name="Path 3011" d="M145.541,267.215a13.986,13.986,0,0,0-.6,2.387,11.854,11.854,0,0,1-8.381.316c-.171-1.593-.312-2.684-.312-2.684S146.846,263.823,145.541,267.215Z" transform="translate(77.109 122.505)" fill="#030504" opacity="0.1"/>
    <path id="Path_3012" data-name="Path 3012" d="M162.862,267.048l-.232,2.241c-2.874,1.314-5.942.509-7.981-.4v-3.185Z" transform="translate(90.265 122.501)" fill="#030504" opacity="0.1"/>
    <path id="Path_3013" data-name="Path 3013" d="M143.536,205.87s-.676,4.985-1.437,6-.424,2.447-1.2,2.615-1.019,3.884-1.019,3.884l-.646,8.194s-.172,1.687-1.1,2.109,0,2.7,0,2.7-1,1.943-.4,3.041-1.2,6.163-1.2,6.163-.761,9.8,0,11.145a11.04,11.04,0,0,1,1.2,4.308c0,.844.424,16.636.424,16.636s-1.017,6.421-1.357,7.6.933,3.8.087,5.15-.679,4.38-.679,4.38-1.308,11.922-.545,16.3-.243,5.32-.243,5.32a11.88,11.88,0,0,0,11.924-.506s0-8.614,1.017-10.135.851-5.824.851-5.824.252-3.8,1.014-4.562.583-4.129.583-4.129.674-2.2,1.435-3.98,1.2-6.767,1.2-6.767a8.462,8.462,0,0,1,1.2-2.452c.849-1.194,0-3.8,0-3.8a4.6,4.6,0,0,1-.336-3.378c.6-1.689,3.891-15.371,3.891-15.371l1.272-4.9,1.861,6.249a42.443,42.443,0,0,0,0,5.741,18.154,18.154,0,0,0,2.03,3.98v13.259s.171,8.953.851,10.387,1.013,6.767,1.013,6.767,2.286,15.624.845,17.914c0,0,6.522,4.641,11.685.844,0,0-1.1-3.126,0-4.224s1.859-14.865,1.859-14.865.679-5.489.6-6.767-.929-7.261-.424-8.526,1.2-25.08,1.2-25.08l.847-10.552v-8.64a50.625,50.625,0,0,0-1.916-13.829c-1.434-5.035-3.416-10.811-5.085-11.174C174.8,207.108,148.532,210.011,143.536,205.87Z" transform="translate(76.521 79.724)" fill="#008bce"/>
    <path id="Path_3014" data-name="Path 3014" d="M144.093,279.333c-.069.621-.108,1.094-.108,1.094l-7.75-.506s0-.458.024-1.158c3.636-3.217,7.259.569,7.259.569Z" transform="translate(77.101 130.908)" fill="#030504" opacity="0.1"/>
    <path id="Path_3015" data-name="Path 3015" d="M147.418,279.49v4.69a37.638,37.638,0,0,1-2.159,3.841,8.4,8.4,0,0,0-.578,3.01c-.075.955-.1,1.759-.1,1.759s1.017,4.056-6.94,3.884-4.742-6.038-4.742-6.038l.045-.076c.4-.741,3.62-6.489,3.991-6.808a7.722,7.722,0,0,0,.679-2.432l1.48-2.389c3.644-3.248,7.283.55,7.283.55Z" transform="translate(74.258 131.017)" fill="#003e70"/>
    <path id="Path_3016" data-name="Path 3016" d="M144.582,287.38s1.017,4.056-6.94,3.884-4.742-6.023-4.742-6.023l.045-.076c.22,1.194,1.158,2.432,4.147,2.274a18.412,18.412,0,0,0,7.582-1.8C144.606,286.576,144.582,287.38,144.582,287.38Z" transform="translate(74.258 136.412)" fill="#030504" opacity="0.1"/>
    <path id="Path_3017" data-name="Path 3017" d="M161.745,277.973c-.072.9-.12,1.615-.12,1.615s-5.925,4.141-7.278.506a6.432,6.432,0,0,1-.336-1.362,3.322,3.322,0,0,0,.336-.286c.969-1.434,6.132-1.477,6.385-.8C160.888,278.04,161.378,278.04,161.745,277.973Z" transform="translate(89.809 130.734)" fill="#030504" opacity="0.1"/>
    <path id="Path_3018" data-name="Path 3018" d="M159.762,298.312c-5.585.35-6.547-3.078-6.385-5.573a7.507,7.507,0,0,1,.4-2.01,19.559,19.559,0,0,0,.607-5.371l-.268-6.333c.211.084.722-.422.722-.422.969-1.434,6.132-1.477,6.385-.8s1.44.218,1.44.218a17.189,17.189,0,0,0,1.521,7.767,19,19,0,0,1,1.835,6.887c.024.319.027.5.027.5S167.166,297.845,159.762,298.312Z" transform="translate(89.345 130.846)" fill="#003e70"/>
    <path id="Path_3019" data-name="Path 3019" d="M159.762,291.939c-5.585.35-6.547-3.078-6.385-5.573,0,0,1.449,2.456,6.609,1.866a14.5,14.5,0,0,0,6.026-1.938c.024.319.027.5.027.5S167.166,291.473,159.762,291.939Z" transform="translate(89.345 137.218)" fill="#030504" opacity="0.1"/>
    <g id="Group_1541" data-name="Group 1541" transform="translate(249.004 286.85)" opacity="0.1">
      <path id="Path_3020" data-name="Path 3020" d="M162.9,212.8c-1.146-3.265-2.394-5.971-3.528-6.2l-1.01.1c1.055.566,2.212,3.082,3.269,6.095a63.023,63.023,0,0,1,3.473,20.795v6.649l-.847,10.557s-.677,23.813-1.2,25.079.34,7.261.424,8.532-.6,6.767-.6,6.767-.761,13.765-1.859,14.86,0,4.224,0,4.224a7.593,7.593,0,0,1-3.991,1.47,7.775,7.775,0,0,0,5.272-1.47s-1.1-3.125,0-4.224,1.859-14.86,1.859-14.86.679-5.489.6-6.767-.929-7.266-.424-8.532,1.2-25.079,1.2-25.079l.847-10.557v-6.649A62.981,62.981,0,0,0,162.9,212.8Z" transform="translate(-157.034 -206.602)" fill="#030504" opacity="0.1"/>
    </g>
    <g id="Group_1542" data-name="Group 1542" transform="translate(211.971 285.594)" opacity="0.1">
      <path id="Path_3021" data-name="Path 3021" d="M136.964,311.433s1-.933.244-5.323.506-16.3.506-16.3-.168-3.042.679-4.38-.424-3.98-.087-5.152,1.356-7.6,1.356-7.6-.436-15.8-.436-16.648a11.009,11.009,0,0,0-1.2-4.3c-.761-1.353,0-11.147,0-11.147s1.777-5.067,1.2-6.162.4-3.042.4-3.042-.929-2.281,0-2.7,1.1-2.109,1.1-2.109l.674-8.192s.256-3.714,1.019-3.886.422-1.593,1.2-2.615c.571-.76,1.1-3.757,1.32-5.206a5.3,5.3,0,0,1-1.4-.8s-.679,4.98-1.441,6-.424,2.449-1.2,2.615-1.013,3.886-1.013,3.886l-.655,8.2s-.172,1.687-1.1,2.109,0,2.7,0,2.7-1,1.943-.4,3.041-1.2,6.163-1.2,6.163-.761,9.8,0,11.145a11.023,11.023,0,0,1,1.2,4.3c0,.847.424,16.636.424,16.636s-1.019,6.421-1.353,7.6.929,3.8.084,5.152-.679,4.378-.679,4.378-1.281,11.927-.518,16.305-.244,5.323-.244,5.323a11.686,11.686,0,0,0,6.282,1.334A11.394,11.394,0,0,1,136.964,311.433Z" transform="translate(-135.439 -205.87)" fill="#030504" opacity="0.1"/>
    </g>
    <path id="Path_3022" data-name="Path 3022" d="M165.721,160.079a31.336,31.336,0,0,1,2.638,3.4,4.67,4.67,0,0,0,3.624,2.024,9.847,9.847,0,0,1,1.269-.108,2.738,2.738,0,0,1,1.37.6,8.743,8.743,0,0,1,2.953,5.573c.386,2.111.4,4.308.972,6.393a3.181,3.181,0,0,0,1.079,1.868,4.656,4.656,0,0,0,2.758.355,4.876,4.876,0,0,1,3.48,1.146,2.753,2.753,0,0,1,.542,3.407,2.082,2.082,0,0,0-.446.773,1.407,1.407,0,0,0,.1.551,1.44,1.44,0,0,0,.3.472l2.61,3.543a3.776,3.776,0,0,1,1.01,2.389,1.877,1.877,0,0,1-3.3,1.07c.283.88-.587,1.792-1.5,1.91a4.841,4.841,0,0,1-2.646-.691l-.069,1.5c-.765.4-1.576-.4-2.186-1.02s-1.868-.979-2.159-.166a1.066,1.066,0,0,0,0,.525,1.049,1.049,0,0,0,.252.463c1.065,1.326,3.564.986,4.3,2.523a2.069,2.069,0,0,1-1.272,2.648,3.493,3.493,0,0,1-3.121-.636c-.89-.638-1.759-1.747-2.922-1.741-1.447,0-2.313,1.672-3.666,2.193a3.75,3.75,0,0,1-3.723-1.079c-.995-.931-1.684-2.137-2.6-3.149-2.361-2.6-5.94-3.63-9.278-4.742s-6.868-2.622-8.592-5.68a23.394,23.394,0,0,0-1.516-2.855c-1.125-1.465-3.016-2.149-4.251-3.522a5.431,5.431,0,0,1-.833-5.815,19.493,19.493,0,0,1,2.43-3.272,10.994,10.994,0,0,0,2.168-6.458,8.157,8.157,0,0,1,.187-2.612,4.077,4.077,0,0,1,2.958-2.428,12.2,12.2,0,0,1,3.991-.091,36.685,36.685,0,0,0,4.364.4c.967-.045,1.708-.8,2.643-1.051A6.467,6.467,0,0,1,165.721,160.079Z" transform="translate(80.067 45.816)" fill="#1f2f4a"/>
    <g id="Group_1543" data-name="Group 1543" transform="translate(220.974 214.562)" opacity="0.1">
      <path id="Path_3023" data-name="Path 3023" d="M162.195,167.109c.4,2.121.4,4.306.978,6.388a4.022,4.022,0,0,0,.634,1.437c-.048-.139-.091-.281-.127-.422-.556-2.085-.587-4.27-.974-6.393a11.353,11.353,0,0,0-1.281-3.67A12.6,12.6,0,0,1,162.195,167.109Z" transform="translate(-125.865 -164.449)" fill="#030504" opacity="0.1"/>
      <path id="Path_3024" data-name="Path 3024" d="M167.214,174.526a2.034,2.034,0,0,0-.451.8,1.4,1.4,0,0,0,.1.55,1.381,1.381,0,0,0,.3.468c.036.048.067.1.1.141a.7.7,0,0,1,0-.147,2.093,2.093,0,0,1,.451-.773,2.7,2.7,0,0,0-.244-3.073,2.454,2.454,0,0,1-.259,2.039Z" transform="translate(-122.049 -158.703)" fill="#030504" opacity="0.1"/>
      <path id="Path_3025" data-name="Path 3025" d="M179.63,187.317a2.176,2.176,0,0,1-1.411,2.15,3.493,3.493,0,0,1-3.121-.641c-.89-.641-1.759-1.744-2.917-1.735-1.452,0-2.315,1.672-3.672,2.188a3.735,3.735,0,0,1-3.723-1.079c-.995-.931-1.684-2.137-2.6-3.143-2.363-2.6-5.942-3.636-9.283-4.745s-6.848-2.617-8.574-5.661c.154.338.314.672.494.995,1.723,3.058,5.251,4.57,8.588,5.68s6.92,2.142,9.283,4.742c.917,1.012,1.595,2.217,2.6,3.149a3.754,3.754,0,0,0,3.725,1.079c1.356-.521,2.217-2.181,3.67-2.193,1.158,0,2,1.051,2.922,1.741a3.357,3.357,0,0,0,3.116.636A2.071,2.071,0,0,0,180,187.83,1.889,1.889,0,0,0,179.63,187.317Z" transform="translate(-138.085 -157.156)" fill="#030504" opacity="0.1"/>
      <path id="Path_3026" data-name="Path 3026" d="M173.958,177.7a2.164,2.164,0,0,1,.111.816,1.878,1.878,0,0,1-1.291,1.646,1.884,1.884,0,0,1-2.017-.571c.285.876-.587,1.787-1.5,1.91a4.8,4.8,0,0,1-2.646-.693c-.024.5-.043,1-.067,1.5-.767.4-1.6-.4-2.183-1.015s-1.868-.983-2.162-.166a1.046,1.046,0,0,0,.247.983,2.038,2.038,0,0,0,.219.235.78.78,0,0,1,.039-.208c.295-.8,1.552-.446,2.162.168s1.416,1.422,2.188,1.019c0-.5.043-1,.063-1.5a5.037,5.037,0,0,0,2.65.693c.917-.1,1.787-1.031,1.5-1.91a1.879,1.879,0,0,0,3.308-1.072A3,3,0,0,0,173.958,177.7Z" transform="translate(-125.337 -154.974)" fill="#030504" opacity="0.1"/>
      <path id="Path_3027" data-name="Path 3027" d="M145.4,174.7c-1.122-1.465-3.016-2.145-4.246-3.522a4.491,4.491,0,0,1-.466-.614,5.044,5.044,0,0,0,.972,1.629c1.23,1.374,3.126,2.058,4.246,3.522a5.089,5.089,0,0,1,.427.653A8.891,8.891,0,0,0,145.4,174.7Z" transform="translate(-140.689 -160.078)" fill="#030504" opacity="0.1"/>
    </g>
    <path id="Path_3028" data-name="Path 3028" d="M149.561,172.485s.931,10.3-3.3,13.424,9.058,11.654,9.058,11.654l10.077-2.2s-4.913-4.558-4.913-6.5.847-12.838,2.2-14.1S149.561,172.485,149.561,172.485Z" transform="translate(83.671 55.858)" fill="#e7788d"/>
    <path id="Path_3029" data-name="Path 3029" d="M156.46,189.39l-2.3,5.019s-3.431,2.03-3.684,2.217-2.984,3.3-2.984,3.3l-6.733,4.308s-.165-.307-.4-.741A20.164,20.164,0,0,0,138.793,201c-.571-.633,0-7.345,0-7.345a5.254,5.254,0,0,0,.857-4.243c-.475-2.723-.538-13.428-.538-13.428s-.506-9,.192-10.9-1.6-7.918-1.6-7.918-6.472-6.417-6.03-7.743,5.4,0,5.4,0a11.2,11.2,0,0,0,2.982,1.079c.614.036,3.9.053,6.417.057h2.98s2.1,7.281,1.844,8.041c-.051.147-.1.295-.153.437-.2.585-.358,1.108-.1,1.461a49.676,49.676,0,0,1,1.017,5.829l.7,5.827a50.31,50.31,0,0,1,1.013,5.2c-.065.636-1.653,1.962-.953,3.164s.957,4.877.957,4.877a13.88,13.88,0,0,0,2.319,3.721A1.892,1.892,0,0,0,156.46,189.39Z" transform="translate(73.828 38.952)" fill="#f67812"/>
    <path id="Path_3030" data-name="Path 3030" d="M157.448,186.62a12.162,12.162,0,1,0-12.191-12.162A12.177,12.177,0,0,0,157.448,186.62Z" transform="translate(83.551 48.574)" fill="#030504" opacity="0.1"/>
    <path id="Path_3031" data-name="Path 3031" d="M157.448,186.324a12.161,12.161,0,1,0-12.191-12.16A12.176,12.176,0,0,0,157.448,186.324Z" transform="translate(83.551 48.364)" fill="#e7788d"/>
    <path id="Path_3032" data-name="Path 3032" d="M175.518,213.093c-1.1,1.194-1.353,12.738-.7,13.765s-3.277,3.042-5.563,2.955-8.544,1.859-8.544,1.859-12.536-3.38-15.165-1.689-6.35-3.041-5.248-4.728-1.2-4.052-1.525-4.98a7.372,7.372,0,0,1-.135-1.2c-.307-4.251-.628-17.873-.628-17.873V185.566l11.517-8.108a55.074,55.074,0,0,1,5.344,3.085,26.066,26.066,0,0,1,3.455,2.655c3.137,2.958,10.922,6.083,10.922,6.083s8.552,10.219,9.65,11.234S176.616,211.912,175.518,213.093Z" transform="translate(78.37 59.413)" fill="#fff"/>
    <path id="Path_3033" data-name="Path 3033" d="M138.013,196.9V183.453s.35,24.494.626,31.321C138.332,210.523,138.013,196.9,138.013,196.9Z" transform="translate(78.372 63.699)" fill="#030504" opacity="0.1"/>
    <path id="Path_3034" data-name="Path 3034" d="M138.406,202.307a1.337,1.337,0,0,1,.087.708C138.466,203.135,138.433,202.873,138.406,202.307Z" transform="translate(78.653 77.177)" fill="#030504" opacity="0.1"/>
    <path id="Path_3035" data-name="Path 3035" d="M154.944,184.89a10.29,10.29,0,0,0-1.84,2.595c-.635,1.394-15.091.256-15.091.256v-2.174l11.515-8.108a55.072,55.072,0,0,1,5.344,3.085C154.944,182.923,154.944,184.89,154.944,184.89Z" transform="translate(78.372 59.413)" fill="#030504" opacity="0.1"/>
    <path id="Path_3036" data-name="Path 3036" d="M138.406,201.715a1.341,1.341,0,0,1,.087.71C138.466,202.547,138.433,202.284,138.406,201.715Z" transform="translate(78.653 76.754)" fill="#030504" opacity="0.1"/>
    <path id="Path_3037" data-name="Path 3037" d="M152.833,172.6l-2.3,5.019s-3.431,2.03-3.684,2.217-2.984,3.3-2.984,3.3l-6.733,4.308s-.163-.307-.4-.741a46.768,46.768,0,0,1,4.79-5.405c2.159-1.645-.063-1.835,0-2.154s4.764-2.025,6.033-3.227a53.28,53.28,0,0,1,4.925-3.584A1.871,1.871,0,0,0,152.833,172.6Z" transform="translate(77.455 55.745)" fill="#030504" opacity="0.1"/>
    <path id="Path_3038" data-name="Path 3038" d="M163.013,172.485a57.557,57.557,0,0,0-5.287,3.8c-1.269,1.2-5.987,2.914-6.035,3.233s2.159.5,0,2.152-7.425,9.372-9.334,9.953-14.916,5.971-14.916,5.971-4.255,3.98-4.889,3.98,3.87,4.308,3.87,4.308,4.063,3.231,4.51,3.737,11.565,6.5,11.565,6.5,1.907.569,2.094,1.139,2.73,2.154,2.73,2.154,2.838,3.251,2.562,4.411-.761-33.041-.761-33.041,14.456,1.139,15.091-.256a10.289,10.289,0,0,1,1.84-2.595s-.039-11.716-.849-12.584S163.028,173.56,163.013,172.485Z" transform="translate(67.275 55.858)" fill="#f67812"/>
    <path id="Path_3039" data-name="Path 3039" d="M126.524,192.657s3.807,4.116,5.587,4.814a4.8,4.8,0,0,1,2.475,2.535,14.515,14.515,0,0,0,3.239,1.394c1.146.2,2.857,1.9,2.857,1.9s4.255,1.194,4.255,2.09,1.717,2.094,1.717,2.094l-.427-24.324s-7.067.885-9.1,3.862S126.524,192.657,126.524,192.657Z" transform="translate(70.159 63.488)" fill="#030504" opacity="0.1"/>
    <path id="Path_3040" data-name="Path 3040" d="M131.364,194.894c.319-.19,8.988-11.329,8.988-11.329l1.6-.326s-4.116,6.146-4.051,6.65S131.364,194.894,131.364,194.894Z" transform="translate(73.619 63.546)" fill="#030504" opacity="0.1"/>
    <path id="Path_3041" data-name="Path 3041" d="M133.484,197.583s2.288-5.258,2.922-6.146,4.051-6.839,4.051-6.839a4.051,4.051,0,0,1,0,1.521C140.277,186.688,133.484,197.583,133.484,197.583Z" transform="translate(75.135 64.517)" fill="#030504" opacity="0.1"/>
    <path id="Path_3042" data-name="Path 3042" d="M144.349,169.307s-5.08,9.248-4.634,9.694S144.349,169.307,144.349,169.307Z" transform="translate(79.57 53.586)" fill="#030504" opacity="0.1"/>
    <path id="Path_3043" data-name="Path 3043" d="M145.043,171.45s-4.191,6.11-3.81,6.031S145.043,171.45,145.043,171.45Z" transform="translate(80.656 55.118)" fill="#030504" opacity="0.1"/>
    <path id="Path_3044" data-name="Path 3044" d="M148.056,161.787l-8,.569s0-.259-.027-.7c-.113-2.636-.516-11.822-.731-12.85-.256-1.2-.511-3.356-.511-3.356s-4.318-.633-4.255-1.329-5.522-8.11-1.269-7.962c3.32.1,8.995,4.013,11.33,5.728a2.123,2.123,0,0,1,.849,1.967,8.41,8.41,0,0,0-.07,1.513,21.364,21.364,0,0,1-.084,3.142,4.812,4.812,0,0,0,.358,2.663c.592,1.055,1.465,5.429,2,8.228C147.888,160.776,148.056,161.787,148.056,161.787Z" transform="translate(73.833 29.884)" fill="#e7788d"/>
    <path id="Path_3045" data-name="Path 3045" d="M148.6,158.039l-.151.434c-1.735-1.717-12.611-2.811-12.611-2.811-.953-1.108-.1-1.593.919-2.946.593-.8,4.157-1.928,7.019-2.727h2.98S148.856,157.277,148.6,158.039Z" transform="translate(76.524 39.776)" fill="#030504" opacity="0.1"/>
    <path id="Path_3046" data-name="Path 3046" d="M144.569,152.107l-8,.569s0-.259-.027-.7a34.82,34.82,0,0,1,6.445-2.277h1.158C144.4,151.1,144.569,152.107,144.569,152.107Z" transform="translate(77.319 39.565)" fill="#030504" opacity="0.1"/>
    <path id="Path_3047" data-name="Path 3047" d="M148.6,157.89c-.051.147-.1.295-.151.437-1.735-1.718-12.611-2.814-12.611-2.814-.953-1.106-.1-1.591.919-2.941.593-.8,4.157-1.931,7.019-2.732h2.98S148.856,157.13,148.6,157.89Z" transform="translate(76.524 39.669)" fill="#be5e1a"/>
    <path id="Path_3048" data-name="Path 3048" d="M147.311,191.1s-.89,17.039,0,17.862S147.311,191.1,147.311,191.1Z" transform="translate(84.736 69.163)" fill="#030504" opacity="0.1"/>
    <path id="Path_3049" data-name="Path 3049" d="M150.87,195.272s-.319,18.749,0,18.936S150.87,195.272,150.87,195.272Z" transform="translate(87.462 72.148)" fill="#030504" opacity="0.1"/>
    <path id="Path_3050" data-name="Path 3050" d="M155.1,196.564s1.2,12.922,2.288,13.428S155.1,196.564,155.1,196.564Z" transform="translate(90.588 73.072)" fill="#030504" opacity="0.1"/>
    <path id="Path_3051" data-name="Path 3051" d="M174.253,221.465a2.651,2.651,0,0,1-1.017-.4c-1.077-.7-2.286-8.173-3.871-9.183s-7.3-10.96-7.3-10.96a52.312,52.312,0,0,0-3.113-5c-.89-1.022-.442-5.573-.442-5.573a24.783,24.783,0,0,1-3.368-5,4.511,4.511,0,0,1-.439-1.627s.34-1,1.691,0,4.654,5.239,5.544,5.553a7.973,7.973,0,0,1,3.3,2.473,6.874,6.874,0,0,0,1.967,1.775s1.525,3.862,1.459,4.812.508,7.408,1.2,7.983,1.838,5.76,1.838,5.76S173.811,219.383,174.253,221.465Z" transform="translate(90.302 63.568)" fill="#030504" opacity="0.1"/>
    <path id="Path_3052" data-name="Path 3052" d="M163.256,191.831v-.262a2.48,2.48,0,0,1,.069.573A1.273,1.273,0,0,1,163.256,191.831Z" transform="translate(96.418 69.501)" fill="#030504" opacity="0.1"/>
    <path id="Path_3053" data-name="Path 3053" d="M168.756,212.542c-.259.451-.5.861-.71,1.2-1.05-1.079-2.231-8.117-3.768-9.1a7.142,7.142,0,0,1-1.4-1.566v-8.358a10.8,10.8,0,0,0,.8-1.677c.187,2.262.619,5.613,1.113,6.019.7.569,1.84,5.764,1.84,5.764S168,209.616,168.756,212.542Z" transform="translate(96.151 70.552)" fill="#030504" opacity="0.1"/>
    <path id="Path_3054" data-name="Path 3054" d="M174.4,221.315a2.512,2.512,0,0,1-1.017-.4c-1.082-.7-2.288-8.168-3.876-9.183s-7.3-10.955-7.3-10.955a52.1,52.1,0,0,0-3.113-5c-.89-1.024-.442-5.573-.442-5.573a24.949,24.949,0,0,1-3.368-5,4.547,4.547,0,0,1-.439-1.633s.334-.995,1.691,0,4.654,5.239,5.544,5.553a7.976,7.976,0,0,1,3.3,2.476,6.708,6.708,0,0,0,1.967,1.771s1.525,3.865,1.461,4.814.511,7.412,1.2,7.981,1.84,5.764,1.84,5.764S173.96,219.233,174.4,221.315Z" transform="translate(90.408 63.463)" fill="#be5e1a"/>
    <path id="Path_3055" data-name="Path 3055" d="M159.056,192.312a.856.856,0,1,0-.859-.856A.857.857,0,0,0,159.056,192.312Z" transform="translate(92.802 68.809)" fill="#fff"/>
    <path id="Path_3056" data-name="Path 3056" d="M162.342,196.8a.856.856,0,1,0-.859-.856A.856.856,0,0,0,162.342,196.8Z" transform="translate(95.151 72.016)" fill="#fff"/>
    <path id="Path_3057" data-name="Path 3057" d="M167.289,194.751s-4.129-1.883-3.495-.868S167.289,194.751,167.289,194.751Z" transform="translate(96.755 70.94)" fill="#030504" opacity="0.1"/>
    <path id="Path_3058" data-name="Path 3058" d="M167.233,196.147s-4.193-1.139-3.3-.473S167.233,196.147,167.233,196.147Z" transform="translate(96.811 72.286)" fill="#030504" opacity="0.1"/>
    <path id="Path_3059" data-name="Path 3059" d="M166.346,198.231s-2.859-2.063-2.159-1.3A6.731,6.731,0,0,0,166.346,198.231Z" transform="translate(97.005 73.212)" fill="#030504" opacity="0.1"/>
    <path id="Path_3060" data-name="Path 3060" d="M167.929,198.89s-2.914,5.717-1.521,6.091S167.929,198.89,167.929,198.89Z" transform="translate(98.402 74.734)" fill="#030504" opacity="0.1"/>
    <path id="Path_3061" data-name="Path 3061" d="M145.076,253.587s-6.688,6.333-4.742,6.249S145.076,253.587,145.076,253.587Z" transform="translate(79.778 113.837)" fill="#030504" opacity="0.1"/>
    <path id="Path_3062" data-name="Path 3062" d="M137.47,259.156c.34,0,7.112-.677,5.332-1.015S137.47,259.156,137.47,259.156Z" transform="translate(77.984 117.053)" fill="#030504" opacity="0.1"/>
    <path id="Path_3063" data-name="Path 3063" d="M156.673,253s7.184.25,7.028,1.012S156.673,253,156.673,253Z" transform="translate(91.712 113.415)" fill="#030504" opacity="0.1"/>
    <path id="Path_3064" data-name="Path 3064" d="M155.982,254.671s4.147,3.125,5.08,2.109S155.982,254.671,155.982,254.671Z" transform="translate(91.218 114.612)" fill="#030504" opacity="0.1"/>
    <path id="Path_3065" data-name="Path 3065" d="M147.649,230.125a2.079,2.079,0,0,1-.264.641.647.647,0,0,1-.184.19,11.4,11.4,0,0,1-3.389,1.593c-.154-.039-.761-.223-1.428-.4-.777-.228-1.639-.47-1.964-.514s-.509-.557-.557-1.058,0-.892.211-.967a.509.509,0,0,0,.18-.262,3.707,3.707,0,0,0,.111-.355l.031-.12a15.282,15.282,0,0,0,.268-1.528c.036-.259.06-.49.081-.645v-.214l.559-.029h.53a32.893,32.893,0,0,1,4.841.048,1.36,1.36,0,0,1,.881,1.012,4.533,4.533,0,0,1,.2,1.142A5.062,5.062,0,0,1,147.649,230.125Z" transform="translate(79.683 94.398)" fill="#008bce"/>
    <path id="Path_3066" data-name="Path 3066" d="M166.21,232.352a.346.346,0,0,0,0,.084c0,.863-.06,1.516-.06,1.624,0,.334-8.8,2.7-11,2.531-1.444-.111-.37-1.1.436-2.118a3.351,3.351,0,0,0,.638-1.079.778.778,0,0,0,0-.434c-.045-.159-.084-.3-.111-.434-.208-.912-.1-1.194.111-1.416a1.711,1.711,0,0,0,.292-.545,2.228,2.228,0,0,0,.123-.566,1.712,1.712,0,0,0-.322-1.223c-.679-.9,2.541-1.38,2.541-1.38h6.117c.6,0,.917.844,1.079,1.934a.064.064,0,0,0,0,.036c.043.319.079.657.1,1s.036.652.039.971S166.21,232.03,166.21,232.352Z" transform="translate(90.113 95.113)" fill="#008bce"/>
    <path id="Path_3067" data-name="Path 3067" d="M148.274,246.36s-6.784,1.593-6.095,1.2c.261-.163.321-.713.3-1.334a8.715,8.715,0,0,0-.081-.919c-.087-.7-.216-1.295-.216-1.295s3.557-.76,4.826-.422a1.522,1.522,0,0,1,.6.394,1.493,1.493,0,0,1,.352.626.962.962,0,0,1,.051.139A5.746,5.746,0,0,1,148.274,246.36Z" transform="translate(81.316 106.624)" fill="#008bce"/>
    <path id="Path_3068" data-name="Path 3068" d="M151.182,171.366a29.066,29.066,0,0,0,2.641-1.286,3.647,3.647,0,0,1,2.842-.278,4.5,4.5,0,0,1,1.245.871c.8.7,1.6,1.41,2.348,2.162a13.792,13.792,0,0,0,2.445,2.176c2.1,1.279,4.757.991,7.184.61a4.448,4.448,0,0,0,1.417-.4,2.929,2.929,0,0,0,1.224-3.164,7.079,7.079,0,0,0-1.823-3.1,25.558,25.558,0,0,0-8.329-6.148c-3.359-1.54-7.359-2.308-10.711-.76a11.568,11.568,0,0,0-2.792,1.9c-1.166,1.036-4.179,3.668-3.512,5.446C146.094,171.4,149.446,171.948,151.182,171.366Z" transform="translate(83.556 47.793)" fill="#030504" opacity="0.1"/>
    <path id="Path_3069" data-name="Path 3069" d="M150.978,170.725a28.435,28.435,0,0,0,2.643-1.286,3.65,3.65,0,0,1,2.84-.28,4.672,4.672,0,0,1,1.245.873c.8.7,1.6,1.408,2.348,2.161a13.615,13.615,0,0,0,2.445,2.178c2.1,1.278,4.757.991,7.184.609a4.346,4.346,0,0,0,1.416-.4,2.929,2.929,0,0,0,1.224-3.164,7.084,7.084,0,0,0-1.823-3.1,25.482,25.482,0,0,0-8.329-6.143c-3.359-1.54-7.359-2.308-10.709-.765a11.766,11.766,0,0,0-2.794,1.9c-1.166,1.034-4.179,3.672-3.512,5.45C145.89,170.765,149.242,171.31,150.978,170.725Z" transform="translate(83.41 47.337)" fill="#1f2f4a"/>
    <path id="Path_3070" data-name="Path 3070" d="M171.316,171.481a4.276,4.276,0,0,1-1.411.4c-2.427.4-5.085.665-7.184-.609a13.74,13.74,0,0,1-2.459-2.2c-.749-.756-1.552-1.458-2.346-2.162a4.613,4.613,0,0,0-1.245-.875,3.639,3.639,0,0,0-2.845.283,28.115,28.115,0,0,1-2.638,1.284c-1.737.581-5.088.036-5.839-1.958a1.58,1.58,0,0,1-.075-.3,1.649,1.649,0,0,0,.075.8c.751,1.991,4.1,2.54,5.839,1.96a29.014,29.014,0,0,0,2.638-1.286,3.644,3.644,0,0,1,2.845-.28,4.544,4.544,0,0,1,1.245.873c.8.7,1.6,1.408,2.346,2.161a13.813,13.813,0,0,0,2.447,2.178c2.1,1.278,4.752.991,7.184.609a4.4,4.4,0,0,0,1.411-.4,2.824,2.824,0,0,0,1.29-2.732,2.667,2.667,0,0,1-1.278,2.253Z" transform="translate(83.55 50.755)" fill="#030504" opacity="0.1"/>
    <path id="Path_3071" data-name="Path 3071" d="M140.591,226.608a16.414,16.414,0,0,1-.442,2.265,18.576,18.576,0,0,0,.4-2.293Z" transform="translate(79.899 94.53)" fill="#030504" opacity="0.1"/>
    <path id="Path_3072" data-name="Path 3072" d="M147.2,230.974a11.43,11.43,0,0,1-3.389,1.591c-.338-.1-2.792-.844-3.39-.928s-.755-1.859-.348-2.025a.509.509,0,0,0,.18-.262,3.317,3.317,0,0,1-.144.353,1.759,1.759,0,0,0,.4,1.859l3.519.907,3.317-1.806c.8-1.1-.1-3.618-.55-4.03s-5.894,0-5.894,0l-.12-.115v-.031l.559-.029h.53a32.893,32.893,0,0,1,4.841.048C148.046,226.75,148.046,230.384,147.2,230.974Z" transform="translate(79.683 94.398)" fill="#030504" opacity="0.1"/>
    <path id="Path_3073" data-name="Path 3073" d="M164.985,227.391h-6.117s-3.221.482-2.541,1.38a2.04,2.04,0,0,1-.093,2.334c-.243.254-.346.593,0,1.859s-3.287,3.462-1.089,3.63,11-2.2,11-2.533S166.621,227.391,164.985,227.391Zm.827,6.553c0,.317-8.3,2.543-10.375,2.389s1.353-2.226,1.026-3.419-.232-1.514,0-1.753a1.923,1.923,0,0,0,.087-2.2c-.638-.847,2.394-1.3,2.394-1.3h5.767C166.259,227.653,165.812,233.625,165.812,233.944Z" transform="translate(90.112 95.109)" fill="#003e70" opacity="0.1"/>
    <path id="Path_3074" data-name="Path 3074" d="M147,243.579c-1.269-.34-4.824.422-4.824.422s.677,3.124,0,3.546,6.1-1.194,6.1-1.194S148.276,243.917,147,243.579Zm-4.721,3.9c.655-.4,0-3.426,0-3.426s3.437-.732,4.661-.4,1.224,2.691,1.224,2.691S141.624,247.885,142.283,247.479Z" transform="translate(81.317 106.62)" fill="#003e70" opacity="0.1"/>
    <path id="Path_3075" data-name="Path 3075" d="M165.5,230.092l-10.084,1.2,10.044-2.157C165.484,229.444,165.5,229.763,165.5,230.092Z" transform="translate(90.816 96.353)" fill="#030504" opacity="0.1"/>
    <path id="Path_3076" data-name="Path 3076" d="M155.365,231.185l10.476-2.248.223.979Z" transform="translate(90.777 96.215)" fill="#007ab5"/>
    <path id="Path_3077" data-name="Path 3077" d="M165.736,230.286a.684.684,0,0,0,0,.084L155.1,232.407a3.355,3.355,0,0,0,.64-1.079Z" transform="translate(90.588 97.179)" fill="#030504" opacity="0.1"/>
    <path id="Path_3078" data-name="Path 3078" d="M154.435,231.415l12.769-1.338-12.431,2.384Z" transform="translate(90.112 97.03)" fill="#007ab5"/>
    <path id="Path_3079" data-name="Path 3079" d="M165.192,228.519l-9.415.669a2.13,2.13,0,0,1-.123.566l9.542-1.194Z" transform="translate(90.984 95.916)" fill="#030504" opacity="0.1"/>
    <path id="Path_3080" data-name="Path 3080" d="M155.431,229.106l10.7-.761-10.859,1.362Z" transform="translate(90.711 95.791)" fill="#007ab5"/>
    <path id="Path_3081" data-name="Path 3081" d="M147.546,228.247l-7.379.238a15.275,15.275,0,0,0,.268-1.528l6.913.147A4.691,4.691,0,0,1,147.546,228.247Z" transform="translate(79.912 94.799)" fill="#030504" opacity="0.1"/>
    <path id="Path_3082" data-name="Path 3082" d="M139.846,226.8l10.065.211-1.23,1.072-8.835.281Z" transform="translate(79.683 94.686)" fill="#007ab5"/>
    <path id="Path_3083" data-name="Path 3083" d="M147.642,228.57a2.1,2.1,0,0,1-.264.641l-5,1.38c-.777-.226-1.639-.47-1.962-.513s-.511-.557-.559-1.06Z" transform="translate(79.69 95.952)" fill="#030504" opacity="0.1"/>
    <path id="Path_3084" data-name="Path 3084" d="M139.076,229.026l11.725-.681-10.751,2.97Z" transform="translate(79.132 95.791)" fill="#007ab5"/>
    <path id="Path_3085" data-name="Path 3085" d="M147.9,244.276l-5.534,1.476a8.71,8.71,0,0,0-.081-.919c1.545-.207,4.119-.521,5.563-.7A1.223,1.223,0,0,1,147.9,244.276Z" transform="translate(81.426 107.081)" fill="#030504" opacity="0.1"/>
    <path id="Path_3086" data-name="Path 3086" d="M141.543,244.924c.211-.084,7.918-1.012,7.918-1.012l-7.918,2.109Z" transform="translate(80.896 106.92)" fill="#007ab5"/>
    <path id="Path_3087" data-name="Path 3087" d="M218.127,128.632a8.61,8.61,0,1,0-8.633-8.61A8.62,8.62,0,0,0,218.127,128.632Z" transform="translate(129.473 12.197)" fill="#4553a0"/>
    <path id="Path_3088" data-name="Path 3088" d="M239.7,138.328a6.772,6.772,0,1,0-6.788-6.772A6.78,6.78,0,0,0,239.7,138.328Z" transform="translate(146.214 21.757)" fill="#4553a0"/>
    <path id="Path_3089" data-name="Path 3089" d="M218.127,128.632a8.61,8.61,0,1,0-8.633-8.61A8.62,8.62,0,0,0,218.127,128.632Z" transform="translate(129.473 12.197)" fill="#008bce" opacity="0.4"/>
    <path id="Path_3090" data-name="Path 3090" d="M239.7,138.328a6.772,6.772,0,1,0-6.788-6.772A6.78,6.78,0,0,0,239.7,138.328Z" transform="translate(146.214 21.757)" fill="#008bce" opacity="0.4"/>
    <path id="Path_3091" data-name="Path 3091" d="M81.09,159.523a21.731,21.731,0,1,0-21.784-21.731A21.758,21.758,0,0,0,81.09,159.523Z" transform="translate(22.106 15.521)" fill="#4553a0"/>
    <path id="Path_3092" data-name="Path 3092" d="M81.09,159.523a21.731,21.731,0,1,0-21.784-21.731A21.758,21.758,0,0,0,81.09,159.523Z" transform="translate(22.106 15.521)" fill="#008bce" opacity="0.4"/>
    <path id="Path_3093" data-name="Path 3093" d="M236.7,114.484a2.388,2.388,0,1,0-2.4-2.389A2.391,2.391,0,0,0,236.7,114.484Z" transform="translate(147.21 10.979)" fill="#4553a0"/>
    <path id="Path_3094" data-name="Path 3094" d="M236.7,114.484a2.388,2.388,0,1,0-2.4-2.389A2.391,2.391,0,0,0,236.7,114.484Z" transform="translate(147.21 10.979)" fill="#008bce" opacity="0.4"/>
    <path id="Path_3095" data-name="Path 3095" d="M118.386,271.282s2.481,3.236-1.146,8.125-6.616,9.012-5.407,12.061c0,0,5.471-9.075,9.924-9.2S123.274,276.744,118.386,271.282Z" transform="translate(59.462 126.487)" fill="#008bce"/>
    <path id="Path_3096" data-name="Path 3096" d="M118.328,271.282a3.959,3.959,0,0,1,.506,1.015c4.346,5.095,6.661,9.849,2.487,9.951-3.891.108-8.561,7.05-9.677,8.8a3.6,3.6,0,0,0,.132.4s5.47-9.077,9.924-9.2S123.215,276.744,118.328,271.282Z" transform="translate(59.521 126.487)" fill="#030504" opacity="0.1"/>
    <path id="Path_3097" data-name="Path 3097" d="M118.462,274c0,1.137-.129,2.061-.288,2.061s-.283-.924-.283-2.061.16-.605.316-.605S118.462,272.853,118.462,274Z" transform="translate(63.987 127.904)" fill="#ffc521"/>
    <path id="Path_3098" data-name="Path 3098" d="M119.962,274.808c-1,.545-1.88.876-1.952.737s.676-.693,1.677-1.238.607-.147.683,0S120.961,274.263,119.962,274.808Z" transform="translate(64.07 128.45)" fill="#ffc521"/>
    <path id="Path_3099" data-name="Path 3099" d="M110.214,271.282s-2.483,3.236,1.146,8.125,6.616,9.012,5.407,12.061c0,0-5.472-9.075-9.926-9.2S105.313,276.744,110.214,271.282Z" transform="translate(54.517 126.487)" fill="#008bce"/>
    <path id="Path_3100" data-name="Path 3100" d="M110.214,271.282a3.965,3.965,0,0,0-.508,1.015c-4.346,5.095-6.661,9.849-2.487,9.951,3.891.108,8.561,7.05,9.677,8.8a3.59,3.59,0,0,1-.13.4s-5.472-9.077-9.926-9.2S105.313,276.744,110.214,271.282Z" transform="translate(54.517 126.487)" fill="#030504" opacity="0.1"/>
    <path id="Path_3101" data-name="Path 3101" d="M105.2,274c0,1.137.127,2.061.286,2.061s.285-.924.285-2.061-.161-.605-.316-.605S105.2,272.853,105.2,274Z" transform="translate(54.916 127.904)" fill="#ffc521"/>
    <path id="Path_3102" data-name="Path 3102" d="M104.532,274.808c1,.545,1.876.876,1.952.737s-.674-.693-1.675-1.238-.607-.147-.683,0S103.53,274.263,104.532,274.808Z" transform="translate(54.002 128.45)" fill="#ffc521"/>
    <path id="Path_3103" data-name="Path 3103" d="M105.663,284.368s6.935-.211,9.025-1.7,10.675-3.255,11.193-.875,10.425,11.846,2.591,11.91-18.2-1.218-20.284-2.483S105.663,284.368,105.663,284.368Z" transform="translate(55.246 133.167)" fill="#989898"/>
    <path id="Path_3104" data-name="Path 3104" d="M128.612,291.312c-7.828.065-18.2-1.218-20.284-2.483-1.6-.967-2.222-4.435-2.433-6.031h-.231s.439,5.573,2.526,6.851,12.454,2.548,20.284,2.485c2.262,0,3.044-.821,3-2.012C131.158,290.86,130.3,291.312,128.612,291.312Z" transform="translate(55.246 134.719)" fill="#030504" opacity="0.2"/>
    <path id="Path_3105" data-name="Path 3105" d="M198.539,305.7s-4.435-15.019.83-26.073a23.669,23.669,0,0,0,1.922-14.884,39.857,39.857,0,0,0-2.111-6.986" transform="translate(120.393 116.821)" fill="none" stroke="#2e59a5" stroke-miterlimit="10" stroke-width="2"/>
    <path id="Path_3106" data-name="Path 3106" d="M202.881,255.03c0,1.842-3.339,7.165-3.339,7.165s-3.344-5.338-3.344-7.165a3.344,3.344,0,0,1,6.683,0Z" transform="translate(119.968 112.566)" fill="#4553a0"/>
    <path id="Path_3107" data-name="Path 3107" d="M206.116,261.779c-1,1.545-6.716,4.212-6.716,4.212s.1-6.29,1.1-7.835a3.341,3.341,0,0,1,6.093,2.414A3.322,3.322,0,0,1,206.116,261.779Z" transform="translate(122.257 116.015)" fill="#4553a0"/>
    <path id="Path_3108" data-name="Path 3108" d="M206.479,272.425c-1.643.828-7.928.256-7.928.256s3.275-5.378,4.92-6.21a3.35,3.35,0,0,1,4.5,1.483,3.343,3.343,0,0,1-1.489,4.488Z" transform="translate(121.65 122.792)" fill="#4553a0"/>
    <path id="Path_3109" data-name="Path 3109" d="M204.574,279.964c-1.483,1.094-7.774,1.591-7.774,1.591s2.315-5.851,3.8-6.945a3.345,3.345,0,0,1,5.239,1.864,3.339,3.339,0,0,1-.372,2.528,3.368,3.368,0,0,1-.876.966Z" transform="translate(120.398 128.394)" fill="#4553a0"/>
    <path id="Path_3110" data-name="Path 3110" d="M195.743,264.7c1.326,1.281,7.491,2.61,7.491,2.61s-1.513-6.11-2.833-7.391a3.346,3.346,0,0,0-4.752.038,3.34,3.34,0,0,0-.945,2.389,3.317,3.317,0,0,0,1.039,2.349Z" transform="translate(118.899 117.667)" fill="#4553a0"/>
    <path id="Path_3111" data-name="Path 3111" d="M193.994,273.9c1.648.828,7.928.256,7.928.256s-3.272-5.378-4.92-6.211a3.337,3.337,0,0,0-3.008,5.956Z" transform="translate(117.14 123.873)" fill="#4553a0"/>
    <path id="Path_3112" data-name="Path 3112" d="M193.061,282.806c1.48,1.094,7.768,1.591,7.768,1.591s-2.313-5.855-3.8-6.95a3.342,3.342,0,1,0-3.991,5.362Z" transform="translate(116.744 130.424)" fill="#4553a0"/>
    <path id="Path_3113" data-name="Path 3113" d="M202.881,255.03c0,1.842-3.339,7.165-3.339,7.165s-3.344-5.338-3.344-7.165a3.344,3.344,0,0,1,6.683,0Z" transform="translate(119.968 112.566)" fill="#008bce"/>
    <path id="Path_3114" data-name="Path 3114" d="M206.116,261.779c-1,1.545-6.716,4.212-6.716,4.212s.1-6.29,1.1-7.835a3.341,3.341,0,0,1,6.093,2.414A3.322,3.322,0,0,1,206.116,261.779Z" transform="translate(122.257 116.015)" fill="#008bce"/>
    <path id="Path_3115" data-name="Path 3115" d="M206.479,272.425c-1.643.828-7.928.256-7.928.256s3.275-5.378,4.92-6.21a3.35,3.35,0,0,1,4.5,1.483,3.343,3.343,0,0,1-1.489,4.488Z" transform="translate(121.65 122.792)" fill="#008bce"/>
    <path id="Path_3116" data-name="Path 3116" d="M204.574,279.964c-1.483,1.094-7.774,1.591-7.774,1.591s2.315-5.851,3.8-6.945a3.345,3.345,0,0,1,5.239,1.864,3.339,3.339,0,0,1-.372,2.528,3.368,3.368,0,0,1-.876.966Z" transform="translate(120.398 128.394)" fill="#008bce"/>
    <path id="Path_3117" data-name="Path 3117" d="M195.743,264.7c1.326,1.281,7.491,2.61,7.491,2.61s-1.513-6.11-2.833-7.391a3.346,3.346,0,0,0-4.752.038,3.34,3.34,0,0,0-.945,2.389,3.317,3.317,0,0,0,1.039,2.349Z" transform="translate(118.899 117.667)" fill="#008bce"/>
    <path id="Path_3118" data-name="Path 3118" d="M193.994,273.9c1.648.828,7.928.256,7.928.256s-3.272-5.378-4.92-6.211a3.337,3.337,0,0,0-3.008,5.956Z" transform="translate(117.14 123.873)" fill="#008bce"/>
    <path id="Path_3119" data-name="Path 3119" d="M193.061,282.806c1.48,1.094,7.768,1.591,7.768,1.591s-2.313-5.855-3.8-6.95a3.342,3.342,0,1,0-3.991,5.362Z" transform="translate(116.744 130.424)" fill="#008bce"/>
    <path id="Path_3120" data-name="Path 3120" d="M191.7,287.356s5.4-1.07,6.841-2.5,7.921-3.92,8.643-2.137,9.718,7.842,3.593,8.912-14.4,1.425-16.2.713S191.7,287.356,191.7,287.356Z" transform="translate(116.75 134.222)" fill="#989898"/>
    <path id="Path_3121" data-name="Path 3121" d="M210.78,288.8c-6.12,1.072-14.4,1.43-16.2.717-1.368-.545-2.322-3.152-2.7-4.378l-.18.036s1.082,4.279,2.881,4.992,10.082.358,16.2-.713c1.765-.31,2.27-1.034,2.08-1.95C212.708,288.112,212.094,288.573,210.78,288.8Z" transform="translate(116.75 136.392)" fill="#030504" opacity="0.2"/>
    <path id="Path_3122" data-name="Path 3122" d="M93.3,117.87v.142a.581.581,0,0,0,0,.077v.425a.056.056,0,0,1,0,.024v.259l-.036.278a.934.934,0,0,1-.031.184.8.8,0,0,0,0,.091v.057a.225.225,0,0,1,0,.048.158.158,0,0,1-.021.094c-.019.033,0,.065-.019.1s0,.048,0,.072a1.113,1.113,0,0,1-.029.123.5.5,0,0,1-.019.084c-.009.034-.017.069-.029.1a.466.466,0,0,1-.031.123.1.1,0,0,0,0,.033.378.378,0,0,1-.041.127c-.034.127-.079.259-.123.4,0,.039-.031.079-.043.12a.391.391,0,0,1-.029.067,8.64,8.64,0,0,1-1.164,2.126l-.093.118a8.853,8.853,0,0,1-.749.852L78.272,136.429l-12.45-12.421a8.75,8.75,0,0,1-.977-1.158,8.553,8.553,0,0,1-.508-.8,8.791,8.791,0,0,1-1.065-4.992,3.251,3.251,0,0,1,.057-.478c.039-.266.091-.544.154-.835a.617.617,0,0,1,.045-.165l.024-.087v-.046l.036-.129c.027-.094.06-.19.091-.286s.029-.087.045-.13c.063-.189.135-.37.216-.554l.048-.108.072-.163.127-.262c0-.039.039-.081.063-.12a.968.968,0,0,1,.072-.13c.027-.057.06-.108.093-.165a.7.7,0,0,0,.043-.079.154.154,0,0,0,.029-.045l.058-.094c.024-.036.045-.072.069-.1l.159-.238.057-.079.072-.1.075-.1.1-.123.082-.1.033-.039.06-.072a1.291,1.291,0,0,1,.1-.115.611.611,0,0,1,.039-.053l.072-.082.089-.093c.075-.082.154-.166.238-.247l.1-.094.147-.141.1-.091.12-.1.075-.069.081-.063.156-.127.079-.063c.135-.1.271-.2.4-.295l.079-.057.084-.055.081-.051.115-.072.06-.036.084-.051c.117-.063.231-.132.348-.192l.067-.034.108-.057.087-.039.093-.045.087-.043.087-.039.093-.041c.118-.051.242-.1.362-.142l.093-.036.1-.036.087-.027.072-.024.166-.057.137-.091.067-.021h.069l.123-.036.159-.039c.163-.039.331-.075.5-.106H70.9c.159,0,.319-.036.484-.048h1.336c.132,0,.259.024.4.036l.175.024h.372c.166.031.331.067.494.106l.2.051h.057l.087.024.166.048.072.024.364.123.081.033.106.039.168.067.184.081.072.031.1.048.087.045.087.039.111.06.087.043.2.111.084.048.295.18.081.051.084.055.079.057.057.036.346.254.081.063.154.129.081.063.075.067.12.1.1.091.147.139.1.1.1-.1c.048-.048.1-.094.147-.139a1.009,1.009,0,0,1,.1-.091l.115-.1.081-.067.075-.063.159-.129.079-.063c.137-.1.273-.2.4-.295l.084-.055.084-.057.079-.051.117-.072.06-.034.084-.053c.115-.063.232-.13.346-.19l.069-.036.106-.055.089-.041.087-.043.091-.045.089-.039.091-.039c.12-.051.24-.1.364-.144l.087-.036.1-.034.087-.029.072-.024.168-.055.084-.024.072-.021h.067l.12-.036.159-.039c.168-.039.336-.075.5-.106h.451c.161,0,.324-.036.484-.048H85.17l.4.036.172.022h.376c.163.033.331.069.5.108l.2.051h.057l.087.024.168.048.072.024.362.123.081.033.108.039.163.067.189.081.07.031.1.048.087.045.091.039.108.06.087.043.2.111.087.048.295.18.077.051.084.055.087.063.051.036c.12.084.235.168.346.256a.486.486,0,0,1,.081.063c.057.039.108.084.159.127l.081.063.075.069.1.087.1.091.055.057.1.091.045.045.051.051.1.1.147.154a1.018,1.018,0,0,1,.079.093c.048.046.093.1.141.151l.144.171a7.249,7.249,0,0,1,.458.621.532.532,0,0,1,.084.067.68.68,0,0,1,.063.093l.051.082.089.141.075.13.043.081.036.063.036.063.053.1.048.094c.115.223.22.454.314.686l.041.1c.036.094.072.19.1.286a.655.655,0,0,1,.033.087.471.471,0,0,0,.039.123l.036.111.024.07a.488.488,0,0,0,.027.1l.036.127c.021.067.036.139.051.208s.021.07.029.106.019.1.031.151a.459.459,0,0,0,0,.069v1.151a.6.6,0,0,1,0,.079.629.629,0,0,1,0,.081v.266Z" transform="translate(24.918 10.551)" fill="#e50019"/>
    <path id="Path_3123" data-name="Path 3123" d="M93.2,117.87v.142a.576.576,0,0,0,0,.077v.425a.057.057,0,0,1,0,.024v.259l-.036.278a.934.934,0,0,1-.031.184.8.8,0,0,0,0,.091v.057a.227.227,0,0,1,0,.048.158.158,0,0,1-.021.094c-.019.033,0,.065-.019.1s0,.048,0,.072a1.112,1.112,0,0,1-.029.123.742.742,0,0,1-.019.084c-.009.034-.017.069-.029.1a.466.466,0,0,1-.031.123.1.1,0,0,0,0,.033.378.378,0,0,1-.041.127c-.036.127-.079.259-.123.4,0,.039-.031.079-.043.12a.391.391,0,0,1-.029.067,8.737,8.737,0,0,0-2.334-8.267,8.947,8.947,0,0,0-1.5-1.2c-.159-.1-.319-.194-.484-.281a8.793,8.793,0,0,0-9.43.521,8.35,8.35,0,0,0-1.149.967,9.611,9.611,0,0,0-1.077-.916,8.637,8.637,0,0,0-.911-.573,8.824,8.824,0,0,0-8.48,0,8.79,8.79,0,0,0-2.953,2.631c-.175.247-.338.5-.485.76a7.893,7.893,0,0,0-.376.753c-.063.139-.123.283-.18.425a.548.548,0,0,1,.045-.163l.024-.087v-.048l.036-.127c.027-.1.058-.19.091-.286s.027-.087.045-.132c.063-.187.135-.37.214-.552l.048-.108.072-.163.129-.262c0-.041.039-.081.063-.12a.987.987,0,0,1,.072-.132c.027-.055.06-.106.091-.163a.717.717,0,0,0,.045-.079.149.149,0,0,0,.027-.045l.06-.1c.024-.034.045-.07.069-.1l.159-.238.055-.081.072-.1.075-.1.1-.123.084-.1.033-.039.06-.072a1.278,1.278,0,0,1,.1-.117c.012-.017.026-.034.039-.051l.072-.084.087-.091c.075-.084.156-.166.24-.247l.1-.1.147-.139.1-.091.12-.1.075-.067.079-.063.156-.127.081-.065c.135-.1.271-.2.4-.293l.081-.057.084-.055.079-.053.117-.07.06-.036.084-.051c.115-.063.232-.132.346-.192l.069-.036.106-.055.089-.039.091-.045.087-.043.089-.041.091-.039c.12-.051.244-.1.364-.142l.091-.036.1-.036.087-.027.072-.024.168-.057.129-.063.067-.021h.069l.123-.036.159-.039c.163-.039.331-.075.5-.106h.454c.159,0,.319-.036.484-.048h1.336c.132,0,.259.024.4.036l.175.024h.372c.166.031.331.067.494.106l.2.051h.055l.089.024.166.048.072.024.364.123.081.033.106.039.168.067.184.081.072.031.1.048.087.045.087.039.111.06.087.043.2.111.084.048.295.18.081.051.082.055.081.057.057.036.346.254.081.063.154.129.081.063.075.067.12.1.1.091.147.139.1.1.1-.1c.048-.048.1-.094.147-.139a1.01,1.01,0,0,1,.1-.091l.115-.1.081-.067.075-.063.159-.129.079-.063c.135-.1.273-.2.4-.295l.084-.055.084-.057.079-.051.117-.072.06-.034.084-.053c.115-.063.232-.13.346-.19l.069-.036.106-.055.089-.041.087-.043.091-.045.089-.039.091-.039c.12-.051.24-.1.364-.144l.087-.036.1-.034.087-.029.072-.024.168-.055.084-.024.072-.021h.067l.12-.036.159-.039c.168-.039.336-.075.5-.106h.451c.159,0,.324-.036.484-.048h1.338l.4.036.171.022h.376c.163.033.331.069.5.108l.2.051h.057l.087.024.168.048.072.024.362.123.081.033.108.039.163.067.189.081.07.031.1.048.087.045.091.039.108.06.087.043.2.111.087.048.295.18.077.051.084.055.087.063.051.036c.12.084.235.168.346.256a.569.569,0,0,1,.081.063c.057.039.108.084.159.127l.081.063.075.069.1.087.1.091.057.057.1.091.043.045.053.051.1.1.147.154a1.021,1.021,0,0,1,.079.093c.048.046.093.1.141.151l.142.171a6.918,6.918,0,0,1,.46.621.534.534,0,0,1,.084.067.681.681,0,0,1,.063.093l.051.082.089.141.075.13.043.081.036.063.036.063.053.1.046.094c.117.223.22.454.316.686l.041.1c.036.094.07.19.1.286a.658.658,0,0,1,.033.087.471.471,0,0,0,.039.123l.036.111.024.07a.489.489,0,0,0,.027.1l.036.127c.021.067.036.139.051.208s.021.07.029.106.019.1.031.151a.457.457,0,0,0,0,.069v1.151a.6.6,0,0,1,0,.079.631.631,0,0,1,0,.081v.266Z" transform="translate(25.023 10.551)" fill="#030504" opacity="0.1"/>
  </g>
</svg>
