<svg xmlns="http://www.w3.org/2000/svg" xmlns:xlink="http://www.w3.org/1999/xlink" width="218.539" height="64.752" viewBox="0 0 218.539 64.752">
  <defs>
    <linearGradient id="linear-gradient" x1="0.915" y1="6.614" x2="-0.383" y2="5.945" gradientUnits="objectBoundingBox">
      <stop offset="0" stop-color="#00a0ff"/>
      <stop offset="0.007" stop-color="#00a1ff"/>
      <stop offset="0.26" stop-color="#00beff"/>
      <stop offset="0.512" stop-color="#00d2ff"/>
      <stop offset="0.76" stop-color="#00dfff"/>
      <stop offset="1" stop-color="#00e3ff"/>
    </linearGradient>
    <linearGradient id="linear-gradient-2" x1="1.076" y1="17.098" x2="-1.305" y2="17.098" gradientUnits="objectBoundingBox">
      <stop offset="0" stop-color="#ffe000"/>
      <stop offset="0.409" stop-color="#ffbd00"/>
      <stop offset="0.775" stop-color="orange"/>
      <stop offset="1" stop-color="#ff9c00"/>
    </linearGradient>
    <linearGradient id="linear-gradient-3" x1="0.862" y1="10.863" x2="-0.501" y2="9.093" gradientUnits="objectBoundingBox">
      <stop offset="0" stop-color="#ff3a44"/>
      <stop offset="1" stop-color="#c31162"/>
    </linearGradient>
    <linearGradient id="linear-gradient-4" x1="-0.188" y1="13.583" x2="0.421" y2="12.793" gradientUnits="objectBoundingBox">
      <stop offset="0" stop-color="#32a071"/>
      <stop offset="0.068" stop-color="#2da771"/>
      <stop offset="0.476" stop-color="#15cf74"/>
      <stop offset="0.801" stop-color="#06e775"/>
      <stop offset="1" stop-color="#00f076"/>
    </linearGradient>
  </defs>
  <g id="Group_1539" data-name="Group 1539" transform="translate(-10 -10)">
    <rect id="Rectangle_1889" data-name="Rectangle 1889" width="218.539" height="64.753" rx="5" transform="translate(10 10)"/>
    <path id="Path_2964" data-name="Path 2964" d="M94.9,34.664a6.885,6.885,0,1,0,6.911,6.885A6.786,6.786,0,0,0,94.9,34.664Zm0,11.057a4.183,4.183,0,1,1,3.885-4.172A3.983,3.983,0,0,1,94.9,45.72ZM79.826,34.664a6.885,6.885,0,1,0,6.911,6.885A6.786,6.786,0,0,0,79.826,34.664Zm0,11.057a4.183,4.183,0,1,1,3.885-4.172A3.983,3.983,0,0,1,79.826,45.72ZM61.891,36.776V39.7H68.88a6.1,6.1,0,0,1-1.59,3.676,7.156,7.156,0,0,1-5.4,2.138,7.772,7.772,0,0,1,0-15.542,7.446,7.446,0,0,1,5.268,2.087l2.061-2.061a10.191,10.191,0,0,0-7.328-2.948,10.694,10.694,0,1,0,0,21.386,9.771,9.771,0,0,0,7.458-3,9.651,9.651,0,0,0,2.53-6.833,9.436,9.436,0,0,0-.157-1.824Zm73.345,2.268a6.4,6.4,0,0,0-5.894-4.381,6.542,6.542,0,0,0-6.493,6.885,6.737,6.737,0,0,0,6.833,6.885,6.847,6.847,0,0,0,5.737-3.051l-2.347-1.565a3.933,3.933,0,0,1-3.39,1.9,3.5,3.5,0,0,1-3.34-2.085l9.206-3.809Zm-9.389,2.3a3.777,3.777,0,0,1,3.6-4.016A2.663,2.663,0,0,1,132,38.783Zm-7.484,6.676h3.024V27.777h-3.024ZM113.407,36.2h-.1a4.772,4.772,0,0,0-3.625-1.538,6.891,6.891,0,0,0,0,13.77,4.69,4.69,0,0,0,3.625-1.565h.1v.992c0,2.634-1.407,4.042-3.676,4.042a3.81,3.81,0,0,1-3.469-2.453l-2.634,1.1a6.561,6.561,0,0,0,6.1,4.068c3.547,0,6.546-2.087,6.546-7.171V35.08h-2.87Zm-3.467,9.519a3.95,3.95,0,0,1-3.833-4.146,3.982,3.982,0,0,1,3.833-4.2c2.061,0,3.676,1.774,3.676,4.2A3.846,3.846,0,0,1,109.939,45.72Zm39.468-17.941h-7.238V48.016h3.019V40.349h4.219a6.294,6.294,0,1,0,0-12.57Zm.078,9.753h-4.3V30.6h4.3a3.469,3.469,0,1,1,0,6.937Zm18.668-2.906a5.674,5.674,0,0,0-5.391,3.1l2.682,1.12a2.861,2.861,0,0,1,2.76-1.484c1.562,0,3.15.937,3.176,2.6v.207a6.682,6.682,0,0,0-3.15-.78c-2.89,0-5.833,1.588-5.833,4.555,0,2.708,2.37,4.453,5.025,4.453a4.262,4.262,0,0,0,3.854-1.98h.1v1.562H174.3V40.223C174.3,36.63,171.616,34.626,168.153,34.626Zm-.364,11.091c-.991,0-2.37-.494-2.37-1.718,0-1.562,1.718-2.161,3.2-2.161a5.389,5.389,0,0,1,2.76.677A3.662,3.662,0,0,1,167.789,45.717Zm17.13-10.649-3.463,8.774h-.1l-3.594-8.774h-3.254l5.389,12.263-3.073,6.822h3.15l8.306-19.084ZM157.712,48.016h3.021V27.779h-3.021Z" transform="translate(25.397 10.549)" fill="#fff"/>
    <g id="Group_1533" data-name="Group 1533" transform="translate(26.144 21.559)">
      <path id="Path_2965" data-name="Path 2965" d="M20.721,17.583a3.249,3.249,0,0,0-.748,2.274v35.8a3.246,3.246,0,0,0,.748,2.274l.12.117L40.9,37.995v-.473L20.841,17.465Z" transform="translate(-19.973 -16.94)" fill="url(#linear-gradient)"/>
      <path id="Path_2966" data-name="Path 2966" d="M39.584,39.573,32.9,32.884v-.473l6.687-6.687.151.087,7.921,4.5c2.261,1.285,2.261,3.388,0,4.674l-7.921,4.5Z" transform="translate(-11.975 -11.829)" fill="url(#linear-gradient-2)"/>
      <path id="Path_2967" data-name="Path 2967" d="M47.448,36.839,40.61,30,20.435,50.176c.746.79,1.978.887,3.366.1L47.448,36.839" transform="translate(-19.687 -9.182)" fill="url(#linear-gradient-3)"/>
      <path id="Path_2968" data-name="Path 2968" d="M47.448,31.121,23.8,17.685c-1.387-.788-2.619-.691-3.366.1L40.61,37.959Z" transform="translate(-19.687 -17.14)" fill="url(#linear-gradient-4)"/>
      <g id="Group_1532" data-name="Group 1532" transform="translate(0 27.506)">
        <path id="Path_2969" data-name="Path 2969" d="M47.3,34.132,23.8,47.482c-1.314.748-2.49.7-3.244.018h0l-.121.12h0l.12.118,0,0c.754.68,1.93.73,3.244-.018L47.448,34.283Z" transform="translate(-19.687 -34.132)" opacity="0.2"/>
        <path id="Path_2970" data-name="Path 2970" d="M20.721,43.187a3.246,3.246,0,0,1-.748-2.274v.238a3.242,3.242,0,0,0,.748,2.273l.121-.12Z" transform="translate(-19.973 -29.936)" opacity="0.12"/>
      </g>
      <path id="Path_2971" data-name="Path 2971" d="M45.1,32.1l-8.071,4.586.151.151,7.921-4.5A2.842,2.842,0,0,0,46.8,30h0A3.012,3.012,0,0,1,45.1,32.1Z" transform="translate(-9.419 -9.182)" opacity="0.12"/>
      <path id="Path_2972" data-name="Path 2972" d="M24.086,17.922,55.655,35.858a3.012,3.012,0,0,1,1.7,2.1h0a2.837,2.837,0,0,0-1.7-2.338L24.086,17.685c-2.263-1.285-4.113-.217-4.113,2.373V20.3C19.973,17.7,21.823,16.636,24.086,17.922Z" transform="translate(-19.973 -17.14)" fill="#fff" opacity="0.25"/>
    </g>
    <g id="Group_1535" data-name="Group 1535" transform="translate(77.867 22.085)">
      <g id="Group_1534" data-name="Group 1534">
        <path id="Path_2973" data-name="Path 2973" d="M55.225,17.6c2.464,0,3.88,1.484,3.88,4.075,0,2.694-1.4,4.2-3.88,4.2h-3.3V17.6ZM53.74,24.314h1.187c1.5,0,2.326-.907,2.326-2.614a2.229,2.229,0,0,0-2.326-2.545H53.74Z" transform="translate(-51.924 -17.384)" fill="#fff"/>
        <path id="Path_2974" data-name="Path 2974" d="M65.119,21.815c0,2.687-1.541,4.356-4,4.356s-4-1.669-4-4.356,1.559-4.35,4-4.35S65.119,19.132,65.119,21.815Zm-6.15,0c0,1.674.837,2.75,2.155,2.75,1.3,0,2.138-1.077,2.138-2.75s-.837-2.746-2.138-2.746S58.969,20.136,58.969,21.815Z" transform="translate(-48.709 -17.465)" fill="#fff"/>
        <path id="Path_2975" data-name="Path 2975" d="M66.454,25.869H64.74L62.558,17.6h1.884l1.25,5.7h.092l1.467-5.7h1.514l1.5,5.7h.1l1.232-5.7h1.875L71.28,25.869h-1.7l-1.523-5.324h-.092Z" transform="translate(-45.344 -17.381)" fill="#fff"/>
        <path id="Path_2976" data-name="Path 2976" d="M70.2,25.869V17.6h1.5l3.723,4.968h.1V17.6h1.73v8.269H75.768l-3.738-5h-.1v5Z" transform="translate(-40.616 -17.381)" fill="#fff"/>
        <path id="Path_2977" data-name="Path 2977" d="M81.228,25.869H75.771V17.6h1.818v6.676h3.639Z" transform="translate(-37.167 -17.381)" fill="#fff"/>
        <path id="Path_2978" data-name="Path 2978" d="M87.718,21.815c0,2.687-1.541,4.356-3.994,4.356s-4.007-1.669-4.007-4.356,1.561-4.35,4.007-4.35S87.718,19.132,87.718,21.815Zm-6.148,0c0,1.674.837,2.75,2.155,2.75,1.3,0,2.138-1.077,2.138-2.75s-.837-2.746-2.138-2.746S81.57,20.136,81.57,21.815Z" transform="translate(-34.725 -17.465)" fill="#fff"/>
        <path id="Path_2979" data-name="Path 2979" d="M90.329,23.955H87.475l-.614,1.913H85.045L87.892,17.6h2.155L92.9,25.869H90.936Zm-2.477-1.4h2.109l-1-3.181h-.1Z" transform="translate(-31.428 -17.381)" fill="#fff"/>
        <path id="Path_2980" data-name="Path 2980" d="M94.036,17.6c2.465,0,3.88,1.484,3.88,4.075,0,2.694-1.4,4.2-3.88,4.2h-3.3V17.6Zm-1.483,6.718h1.185c1.5,0,2.328-.907,2.328-2.614a2.229,2.229,0,0,0-2.328-2.545H92.553Z" transform="translate(-27.907 -17.384)" fill="#fff"/>
        <path id="Path_2981" data-name="Path 2981" d="M101.329,17.6c2.465,0,3.88,1.484,3.88,4.075,0,2.694-1.4,4.2-3.88,4.2h-3.3V17.6Zm-1.484,6.718h1.187c1.5,0,2.328-.907,2.328-2.614a2.229,2.229,0,0,0-2.328-2.545H99.844Z" transform="translate(-23.395 -17.384)" fill="#fff"/>
        <path id="Path_2982" data-name="Path 2982" d="M103.439,25.869V17.6h1.816v8.269Z" transform="translate(-20.046 -17.381)" fill="#fff"/>
      </g>
    </g>
  </g>
</svg>
