<svg xmlns="http://www.w3.org/2000/svg" xmlns:xlink="http://www.w3.org/1999/xlink" width="483.787" height="417.605" viewBox="0 0 483.787 417.605">
  <defs>
    <linearGradient id="linear-gradient" x1="0.499" y1="-2.026" x2="0.499" y2="-1.026" gradientUnits="objectBoundingBox">
      <stop offset="0" stop-color="#6c6c6c" stop-opacity="0.251"/>
      <stop offset="0.54" stop-color="#6c6c6c" stop-opacity="0.122"/>
      <stop offset="1" stop-color="#6c6c6c" stop-opacity="0.102"/>
    </linearGradient>
    <linearGradient id="linear-gradient-2" x1="0.499" y1="-466.372" x2="0.499" y2="-164.494" xlink:href="#linear-gradient"/>
  </defs>
  <g id="Group_1392" data-name="Group 1392" transform="translate(-136.902 -274.408)">
    <path id="Path_2733" data-name="Path 2733" d="M620.689,493.891c0-30.125-12.712-56.731-32.14-72.733q.4-4.561.424-9.258c0-48.914-33.511-88.564-74.851-88.564a65.719,65.719,0,0,0-36.331,11.123c-29.26-22.458-67.458-36.051-109.247-36.051-68,0-126.485,35.988-152.434,87.6-1.441-.1-2.892-.152-4.356-.152-41.332,0-74.851,39.65-74.851,88.564A100.075,100.075,0,0,0,149.217,523.1a79.583,79.583,0,0,0,79.5,79.664H547.209A62.5,62.5,0,0,0,609.642,540.2,100.521,100.521,0,0,0,620.689,493.891Z" transform="translate(0 25.409)" fill="#dae9f0"/>
    <path id="Path_2734" data-name="Path 2734" d="M418,311.346v91.975c0,2.734-2.633,4.961-5.884,4.961H287.573c-3.251,0-5.884-2.228-5.884-4.961V311.346a5.932,5.932,0,0,1,5.884-5.532H412.116A5.951,5.951,0,0,1,418,311.346Z" transform="translate(153.281 33.249)" fill="#fff"/>
    <path id="Path_2735" data-name="Path 2735" d="M418,311.71v14.458h-136.3V311.71a5.887,5.887,0,0,1,5.877-5.9H412.112a5.89,5.89,0,0,1,5.884,5.9Z" transform="translate(153.284 33.249)" fill="#006eb3"/>
    <path id="Path_2736" data-name="Path 2736" d="M302.718,349.069a15.413,15.413,0,1,0-15.382-15.413A15.4,15.4,0,0,0,302.718,349.069Z" transform="translate(159.26 46.406)" fill="#9fd7f3" opacity="0.5"/>
    <path id="Path_2737" data-name="Path 2737" d="M375.616,320.693H310.747v2.3h64.869Z" transform="translate(184.044 49.001)" fill="#9fd7f3"/>
    <path id="Path_2738" data-name="Path 2738" d="M375.616,323.409H310.747v2.3h64.869Z" transform="translate(184.044 51.877)" fill="#41549a" opacity="0.2"/>
    <path id="Path_2739" data-name="Path 2739" d="M375.616,326.124H310.747v2.3h64.869Z" transform="translate(184.044 54.751)" fill="#41549a" opacity="0.2"/>
    <path id="Path_2740" data-name="Path 2740" d="M375.616,328.842H310.747v2.3h64.869Z" transform="translate(184.044 57.628)" fill="#41549a" opacity="0.2"/>
    <path id="Path_2741" data-name="Path 2741" d="M302.718,366.588a15.414,15.414,0,1,0-15.382-15.415A15.4,15.4,0,0,0,302.718,366.588Z" transform="translate(159.26 64.951)" fill="#9fd7f3" opacity="0.5"/>
    <path id="Path_2742" data-name="Path 2742" d="M375.616,338.208H310.747v2.3h64.869Z" transform="translate(184.044 67.544)" fill="#9fd7f3"/>
    <path id="Path_2743" data-name="Path 2743" d="M375.616,340.927H310.747v2.3h64.869Z" transform="translate(184.044 70.422)" fill="#41549a" opacity="0.2"/>
    <path id="Path_2744" data-name="Path 2744" d="M375.616,343.642H310.747v2.3h64.869Z" transform="translate(184.044 73.297)" fill="#41549a" opacity="0.2"/>
    <path id="Path_2745" data-name="Path 2745" d="M375.616,346.357H310.747v2.3h64.869Z" transform="translate(184.044 76.171)" fill="#41549a" opacity="0.2"/>
    <path id="Path_2746" data-name="Path 2746" d="M405.167,504.554s-8.941,2.16-12.482,6.223a12.142,12.142,0,0,1-4.764,3.032v-6.135c2.044-3.436,4.111-7.271,4.111-7.271.093-.187.836-2.827.836-2.827,1.678-1.322-.093-5.941-.093-5.941s1.023-2.925.469-3.494-.1-2.071.371-2.73a3.414,3.414,0,0,0,.371-2.077c0-.572-.741-1.414-1.954-1.884s.093-1.225.836-1.414.931-1.98.1-2.925.091-1.5.57-2.547-1.484-.846-1.484-.846V464.2s-.572-3.115-1.143-8.587-2.7-6.034-2.7-6.034a24.29,24.29,0,0,1-3.354-1.322,23.078,23.078,0,0,0-3.541-1.318,18.054,18.054,0,0,1-4.57-.634,14.059,14.059,0,0,0-3.119-.677l-.319-.165a12.252,12.252,0,0,1-5.657-6.005c-.056-.126-.107-.257-.158-.383a13.7,13.7,0,0,0,1.49-1.98v1.11c1.49-2.633,5.8-3.234,6.209-6.234a3.048,3.048,0,0,0,.029-.412v-.3c-.058-.842-.342-1.678-.4-2.526a5.357,5.357,0,0,1,0-.727c.189-2.328,1.947-4.356,2.748-6.623a8.265,8.265,0,0,0,.422-1.888c0-.2.035-.389.039-.572,0-.049,0-.1,0-.144v-.405a8.842,8.842,0,0,0-2.907-6.378c-1.484-1.293-3.428-2.106-4.478-3.794-.482-.784-.714-1.719-1.241-2.474a6.2,6.2,0,0,0-4.5-2.215,25.735,25.735,0,0,1-5.114-.681c-1.143-.377-2.215-1.052-3.387-1.4a6.476,6.476,0,0,0-6.964,2.518,12.234,12.234,0,0,1-1.857,2.691c-1.713,1.443-4.6.819-6.1,2.485a4.43,4.43,0,0,0-.817,3.434v.63c.051.459.119.91.177,1.351v.2c0,.062.035.274.045.412a2.389,2.389,0,0,1,0,.3v.663a20.063,20.063,0,0,1-2.137,10.052c-1.4,2.775-3.5,5.328-3.866,8.426a8.6,8.6,0,0,0-.041,1.527v.453l.035.315v.183c0,.062.039.274.062.418v.084c.373,2.112,1.213,4.2,1.657,6.3a17.5,17.5,0,0,1,.331,2.382,5.614,5.614,0,0,0,.035.766c.033.257,0,.694,0,1.035a17.133,17.133,0,0,1-2.176.671c-1.3.189-5.143,3.582-4.846,4.43s-1.713,6.8-1.764,6.973l-3.142,21.688s-1.663,1.6-1.143,2.639a4.583,4.583,0,0,1-.1,2.827s-2.806,1.225-2.182,1.98.336,2.17-.093,3.115-1.143,2.639,0,2.919.2,3.961.2,3.961,3.93-.451,3.644,1.89c-.091.743,2.748,2.794,3.936,3.611v11.265a33.863,33.863,0,0,1-4.661-1.585c-2.423-1.145-16.025-3.3-19.006,3.205s4.1,15.181,5.871,16.126a12.254,12.254,0,0,1,2.046,1.98c.377.659,2.518.848,2.518.848a16.184,16.184,0,0,1,2.794,1.6c.412.418,3.817,1.507,7.86,2.347,0,0-3.255,7.522,2.063,6.9s7.911-3.247,11.664-3.247c1.5,0,4.28-.206,7.084-.457a17.668,17.668,0,0,1,2.085.492,27.023,27.023,0,0,0,4.844,1.036s4.194,2.289,6.427,1.717a1.458,1.458,0,0,0,.509-.27h.051a3,3,0,0,0,1.348-1.145,41.6,41.6,0,0,1,7.187,1.145c2.318.9,18.89-.342,18.89-.342s10.711.212,13.779,1.145,1.976-9.49-3.685-10.664a22.716,22.716,0,0,0-4.6-.408,10.656,10.656,0,0,0,1.069-1.305c2.038-.189,3.38-.3,3.38-.3s5.406-2.639,8.478-4.243a19.452,19.452,0,0,0,5.223-4.148s2.7-1.719,3.815-2.353,1.68-2.862,1.68-2.862C426.693,502.007,405.167,504.554,405.167,504.554Zm-24.261-24.132v-.951C381.2,479.689,381.163,480.027,380.906,480.422Zm.086,6.668c.229.3.445.572.605.772.57.774-.492,1.145-.412,2.45,0,.292.045.694.068,1.145C381.14,489.6,381.048,488.051,380.992,487.09Z" transform="translate(177.857 134.244)" fill="url(#linear-gradient)"/>
    <path id="Path_2747" data-name="Path 2747" d="M332.379,459.233a54.986,54.986,0,0,1-7.642-2.335c-2.423-1.122-16.025-3.269-19.006,3.177s4.1,15.03,5.871,15.965,19.006-11.862,19.006-11.862l13.6,5.725,2.61-8.918Z" transform="translate(177.968 191.861)" fill="#e41319"/>
    <path id="Path_2748" data-name="Path 2748" d="M370.815,458.242H330.574a9.486,9.486,0,0,0-9.476,9.5v1.643a9.486,9.486,0,0,0,9.476,9.5h40.241a9.486,9.486,0,0,0,9.476-9.5v-1.643A9.486,9.486,0,0,0,370.815,458.242Z" transform="translate(195.003 194.62)" fill="#e41319"/>
    <path id="Path_2749" data-name="Path 2749" d="M380.293,468.567a10.294,10.294,0,0,1-10.283,10.3H331.393a10.317,10.317,0,0,1,0-20.634h38.6a10.29,10.29,0,0,1,10.281,10.3Z" transform="translate(195 194.615)" fill="#e41319" opacity="0.1"/>
    <path id="Path_2750" data-name="Path 2750" d="M354.389,463.547a49.178,49.178,0,0,1-10.781,1.46c-4.844-.068-27.5,9.365-27.5,9.365s-3.257,7.442,2.063,6.835,7.911-3.212,11.664-3.212,15.549-1.3,15.549-1.3l11.387-8.41Z" transform="translate(188.676 200.236)" fill="#f5b29b"/>
    <path id="Path_2751" data-name="Path 2751" d="M350.373,443.1,339.729,445.2l-.69.138s-8.422-2.244-8.7-2.433-7.918-10.5-7.918-10.5a15.3,15.3,0,0,0,6.9-1.719,3.348,3.348,0,0,0,.319-.194,6.715,6.715,0,0,0,2.855-3.52c.051-.154.1-.315.15-.482a9.543,9.543,0,0,0-.093-4.578c-1.027-4.35,1.355-5.546,4.535-5.443,4.57.148,10.855,3.022,10.855,3.022a12.725,12.725,0,0,0,.982,4.253c.051.132.109.257.161.383a12.15,12.15,0,0,0,5.655,5.941l.338.167a11.349,11.349,0,0,0,1.066.457C364.26,433.761,350.373,443.1,350.373,443.1Z" transform="translate(196.404 150.389)" fill="#f5b29b"/>
    <path id="Path_2752" data-name="Path 2752" d="M343.991,424.121a13.4,13.4,0,0,1-16.566,2.862,9.06,9.06,0,0,0,.058-5.077c-2.514-10.641,15.372-2.421,15.372-2.421A13.044,13.044,0,0,0,343.991,424.121Z" transform="translate(201.505 150.382)" opacity="0.1"/>
    <path id="Path_2753" data-name="Path 2753" d="M350.82,422.515a13.44,13.44,0,0,1-12.6,13.418h-.811a13.452,13.452,0,1,1,13.414-13.418Z" transform="translate(198.055 142.532)" fill="#f5b29b"/>
    <path id="Path_2754" data-name="Path 2754" d="M350.373,436.1,339.729,438.2l-.69.138s-8.422-2.244-8.7-2.433-7.918-10.5-7.918-10.5a15.317,15.317,0,0,0,6.9-1.717c.109-.06.216-.126.319-.2a12.5,12.5,0,0,0,9.083,4.006,12.7,12.7,0,0,0,1.9-.154c1.5-.229,3.006-.377,4.513-.531,2.886-.3,7.3-1.18,9.616-3.739l.336.167a11.343,11.343,0,0,0,1.068.457C364.26,426.761,350.373,436.1,350.373,436.1Z" transform="translate(196.404 157.389)" opacity="0.1"/>
    <path id="Path_2755" data-name="Path 2755" d="M368.867,463.281c.093,2.057,1.583,25.188,1.583,25.188h-46.5l.315-14.579.251-11.66.084-3.825.373-13.256-1.342-1.157-7.325-6.468c.058-.177,2.04-6.079,1.766-6.909s3.541-4.2,4.844-4.385a17.645,17.645,0,0,0,2.188-.669c2.2-.774,5.141-1.912,5.456-1.719.457.247,5.025-.177,5.221-.2a12.437,12.437,0,0,0,9.408,4.321,12.157,12.157,0,0,0,1.9-.148c1.5-.229,3.006-.377,4.513-.531,3.028-.321,7.741-1.272,9.952-4.134a14.162,14.162,0,0,1,3.119.669,18.134,18.134,0,0,0,4.57.63,23.131,23.131,0,0,1,3.543,1.305,24.469,24.469,0,0,0,3.354,1.305s2.141.572,2.7,5.976,1.143,8.5,1.143,8.5L368.9,451.151S368.77,461.226,368.867,463.281Z" transform="translate(189.935 157.468)" fill="#008ccb"/>
    <path id="Path_2756" data-name="Path 2756" d="M317.172,454.567l1.628,2.617,6.106,2.157,4.194-7.664-3.866-2.617-6.2-2.427L315.5,448.69Z" transform="translate(189.074 182.33)" fill="#f5b29b"/>
    <rect id="Rectangle_1855" data-name="Rectangle 1855" width="14.587" height="26.257" rx="1" transform="translate(527.309 614.695)" fill="#2f3045"/>
    <path id="Path_2757" data-name="Path 2757" d="M333.46,447.39l-9.336,5.628h-1.556l-3.111,8.44c5.186-.937,16.181-3.094,18.672-4.22,3.111-1.406,1.554-2.814,3.111-5.628,1.245-2.25.519-2.814,0-2.814h-1.556V447.39c1.038-.469,3.113-1.688,3.113-2.814s-2.075-.469-3.113,0l-4.667,2.814Z" transform="translate(193.265 179.494)" fill="#f5b29b"/>
    <path id="Path_2758" data-name="Path 2758" d="M341.547,450.224l9.336,5.628h1.556l3.111,8.44c-5.186-.937-16.181-3.094-18.67-4.22-3.113-1.406-1.556-2.814-3.113-5.626-1.246-2.252-.519-2.814,0-2.814h1.556v-1.408c-1.037-.469-3.113-1.688-3.113-2.814s2.075-.469,3.113,0l4.667,2.814Z" transform="translate(206.768 182.495)" fill="#f5b29b"/>
    <path id="Path_2759" data-name="Path 2759" d="M342.042,462.376s8.665-.659,12.208-4.671,12.482-6.16,12.482-6.16,21.525-2.524,13.048,16.525c0,0-.572,2.147-1.68,2.8s-3.817,2.335-3.817,2.335l-33.075-2.9Z" transform="translate(216.292 187.413)" fill="#e41319"/>
    <path id="Path_2760" data-name="Path 2760" d="M367.669,467.2a10.325,10.325,0,0,1-1.713,5.725c-5.565.5-17.886,1.659-20.463,2.376-3.17.881-9.579-.653-10.283-.826h-.062s-1.235-3.755-1.822-6.16c-.27-1.087-.4-1.9-.228-1.962.57-.183,5.711-1.587,5.591-.8s15.372-6.021,15.372-6.021l.475,5.976C356.1,467.293,367.669,464.6,367.669,467.2Z" transform="translate(207.624 195.986)" opacity="0.1"/>
    <path id="Path_2761" data-name="Path 2761" d="M383.315,462.068l-.651,2.427a19.413,19.413,0,0,1-5.221,4.1c-3.074,1.591-8.478,4.2-8.478,4.2s-19.846,1.684-23.205,2.617-10.339-.819-10.339-.819-2.612-7.934-2.052-8.122,5.684-1.587,5.593-.79,15.372-6.022,15.372-6.022Z" transform="translate(207.911 196.124)" fill="#e41319"/>
    <path id="Path_2762" data-name="Path 2762" d="M330.749,475.632s9.756.688,12.076,1.575,18.89-.344,18.89-.344,10.711.212,13.779,1.145,1.976-9.4-3.683-10.561-13.643.572-13.643.572l-10.094-1.357c-1.091-.136-8.284.07-8.284.07Z" transform="translate(205.22 203.486)" fill="#f5b29b"/>
    <path id="Path_2763" data-name="Path 2763" d="M312.129,458.481s12.893,1.145,16.434,3.28Z" transform="translate(185.507 194.873)" opacity="0.1"/>
    <path id="Path_2764" data-name="Path 2764" d="M358.414,454.363s-10.094,2.462-14.046,6.085Z" transform="translate(219.638 190.513)" opacity="0.1"/>
    <path id="Path_2765" data-name="Path 2765" d="M312.493,457.052c.206.068,5.935.823,5.8,1.367S312.493,457.052,312.493,457.052Z" transform="translate(185.893 193.36)" opacity="0.1"/>
    <path id="Path_2766" data-name="Path 2766" d="M308.119,467.026l.743,2.8a11.844,11.844,0,0,1,2.05,1.964c.373.659,2.52.836,2.52.836a15.834,15.834,0,0,1,2.794,1.591c.56.56,6.614,2.328,12.3,3.08s16.212,2.145,18.452,2.862a26.67,26.67,0,0,0,4.844,1.031s4.194,2.238,6.427,1.676,6.055-10.732,6.055-10.732-14.722-3.436-15.183-4.581-14.641-6.314-14.641-6.314l-8.387.2Z" transform="translate(181.262 197.793)" opacity="0.1"/>
    <path id="Path_2767" data-name="Path 2767" d="M307.848,469.616l.749,2.8a12.026,12.026,0,0,1,2.044,1.958c.377.659,2.52.842,2.52.842a15.974,15.974,0,0,1,2.794,1.591c.56.562,6.615,2.33,12.3,3.08s16.212,2.147,18.452,2.862a26.665,26.665,0,0,0,4.844,1.031s4.193,2.238,6.427,1.676,6.061-10.732,6.061-10.732-14.728-3.434-15.189-4.581-21.245-9.616-21.245-9.616l-6.547-1.466Z" transform="translate(180.975 195.485)" fill="#e41319"/>
    <path id="Path_2768" data-name="Path 2768" d="M321.678,429.672l-1.628.933-3.142,21.478s-1.661,1.585-1.143,2.61a4.5,4.5,0,0,1-.1,2.8s-2.8,1.215-2.182,1.958.338,2.147-.09,3.08-1.143,2.617,0,2.9.193,3.922.193,3.922,3.93-.447,3.644,1.865c-.119.933,4.445,3.922,4.445,3.922s-5.186-9.435,6.433-8.123l1-5.311s1-2.993,0-3.928.229-5.369.229-5.369l.218-19.279Z" transform="translate(186.196 164.374)" fill="#008ccb"/>
    <path id="Path_2769" data-name="Path 2769" d="M315.872,443.144c.206.338,6.479,1.036,6.89,2.157S315.872,443.144,315.872,443.144Z" transform="translate(189.47 178.636)" opacity="0.1"/>
    <path id="Path_2770" data-name="Path 2770" d="M314.912,446.886s.852-2.666,2.857-2.186S314.912,446.886,314.912,446.886Z" transform="translate(188.454 180.222)" opacity="0.1"/>
    <path id="Path_2771" data-name="Path 2771" d="M314.382,449.317s1.5-3.549,3.549-3.279S314.382,449.317,314.382,449.317Z" transform="translate(187.893 181.684)" opacity="0.1"/>
    <path id="Path_2772" data-name="Path 2772" d="M356.887,449.845l-.65,3.922s-6.736,12.323-7.924,12.513-7.825-8.22-7.825-8.22l-1.772-8.214,6.971-1.322,3.1-3.07S356.607,446.205,356.887,449.845Z" transform="translate(213.653 181.082)" fill="#f5b29b"/>
    <path id="Path_2773" data-name="Path 2773" d="M351.086,432.054l2.52,1.775v9.429s1.954-.189,1.484.842-1.394,1.585-.57,2.518.65,2.707-.1,2.9-2.052.932-.834,1.4,1.954,1.311,1.954,1.873a3.37,3.37,0,0,1-.373,2.048c-.467.659-.93,2.153-.371,2.707s-.469,3.436-.469,3.436,1.77,4.578.093,5.884c0,0-.743,2.61-.834,2.8,0,0,1.169-9.091-10.553-5.243l-.3-4.751c-.08-1.283,1.011-1.659.412-2.421s-2.114-2.524-1.4-2.989.469-1.309.189-1.962-1.268-.653-.379-1.449,1.423-1.54.9-1.912-1.433-1.591-.708-2.145.747-8.683.747-8.683S345.495,426.17,351.086,432.054Z" transform="translate(216.283 165.169)" fill="#008ccb"/>
    <path id="Path_2774" data-name="Path 2774" d="M345.428,439.239s3.582-.972,3.7,0S345.428,439.239,345.428,439.239Z" transform="translate(220.76 174.045)" opacity="0.1"/>
    <path id="Path_2775" data-name="Path 2775" d="M343.472,440.649s4.912-1.231,5.523-.274S343.472,440.649,343.472,440.649Z" transform="translate(218.689 175.319)" opacity="0.1"/>
    <path id="Path_2776" data-name="Path 2776" d="M342.942,441.756s7.37-1.025,7.844.482S342.942,441.756,342.942,441.756Z" transform="translate(218.128 176.807)" opacity="0.1"/>
    <path id="Path_2777" data-name="Path 2777" d="M343.472,443.144c.274.062,7.094.572,7.232,1.843S343.472,443.144,343.472,443.144Z" transform="translate(218.689 178.636)" opacity="0.1"/>
    <path id="Path_2778" data-name="Path 2778" d="M321.608,435.289s5.6,4.286,9.923,1.019C331.531,436.29,324.2,436.977,321.608,435.289Z" transform="translate(195.542 170.32)" opacity="0.1"/>
    <path id="Path_2779" data-name="Path 2779" d="M335.378,435.85s5.6,4.288,9.927,1.019C345.3,436.869,337.988,437.534,335.378,435.85Z" transform="translate(210.12 170.914)" opacity="0.1"/>
    <path id="Path_2780" data-name="Path 2780" d="M356.973,422.468a13.431,13.431,0,0,1-2.03,7.115,20.543,20.543,0,0,0-3.026-10.619c-1.863-2.862-7.518-7.889-11.426-6.485a2.773,2.773,0,0,0-1.713,1.83c-.383,1.466.747,2.079,1.468,3.247a9.982,9.982,0,0,1,1.359,6.709,8.312,8.312,0,0,1-.2.926c-.611,2.289-2.011,4.941-.572,6.829,1.013,1.317,3.177,1.77,3.475,3.407a2.115,2.115,0,0,1,0,.457c-.07,1.1-1.007,2.073-1.412,3.15a5.154,5.154,0,0,0,.286,3.811c.646,1.672,1.68,3.356,1.931,5.112a10.083,10.083,0,0,1-.926,5.056,22.539,22.539,0,0,0-1.542,4.749c-.445,3.1.685,6.693-1.262,9.159a1.322,1.322,0,0,1-.369.373,1.368,1.368,0,0,1-.484.2c-1.25.132-1.033-2.112-2.038-2.862a8.84,8.84,0,0,1-.27,3.9,3,3,0,0,1-3,2.055q-.225-1.47-.441-2.938a8.535,8.535,0,0,1-3.109,1.947,22.742,22.742,0,0,1,3.24-8.786c-3.279,1.585-5.194,5.009-6.9,8.231-1.068,2.015-2.166,4.218-1.8,6.468.148.916.572,1.787.63,2.707a2.3,2.3,0,0,1-1.1,2.353,2.01,2.01,0,0,1-2.166-.669l-.091-.115-.148-.206a3.616,3.616,0,0,1-.247-.447,8.478,8.478,0,0,1-.525-1.717l-.062-.251c-.863-3.819-1.647-7.751-1.013-11.615a21.727,21.727,0,0,0,.611-4.27,7.828,7.828,0,0,0-.484-2.388c-.762-2.135-2.229-4.1-3.063-6.244a.22.22,0,0,1,0-.051c-.438-1.147-.657-2.559.154-3.475a6.945,6.945,0,0,1,1.554-1.054c1.622-1.058,2.353-3.067,2.645-4.986a17.19,17.19,0,0,0,.206-2.621c2.2-.774,5.141-1.913,5.455-1.717.457.245,5.025-.177,5.221-.2a6.816,6.816,0,0,0,3.2-3.714c.052-.154.1-.315.148-.482a13.437,13.437,0,1,1,19.829-11.876Z" transform="translate(191.901 142.58)" opacity="0.1"/>
    <path id="Path_2781" data-name="Path 2781" d="M341.422,432.358c-.611,2.289-2.011,4.939-.572,6.829,1.011,1.315,3.177,1.768,3.473,3.405.228,1.295-.918,2.382-1.381,3.613-1.108,2.932,1.777,5.816,2.211,8.918.48,3.372-1.972,6.44-2.462,9.805-.447,3.1.686,6.691-1.264,9.159a1.355,1.355,0,0,1-.85.572c-1.252.132-1.04-2.118-2.04-2.862a8.751,8.751,0,0,1-.268,3.891,2.994,2.994,0,0,1-3,2.057l-.441-2.938a8.506,8.506,0,0,1-3.107,1.948,22.781,22.781,0,0,1,3.238-8.789c-3.277,1.587-5.192,5.009-6.9,8.233-1.068,2.015-2.164,4.218-1.793,6.462.148.922.57,1.791.628,2.713a2.3,2.3,0,0,1-1.1,2.353,2.038,2.038,0,0,1-2.285-.778,5.875,5.875,0,0,1-.92-2.376c-.891-3.893-1.715-7.918-1.075-11.866a21.722,21.722,0,0,0,.611-4.272c-.113-3.154-2.433-5.723-3.57-8.677-.441-1.145-.653-2.563.161-3.479a7.017,7.017,0,0,1,1.558-1.054c1.616-1.058,2.349-3.067,2.645-4.986a17.34,17.34,0,0,0-.177-6.234c-.657-3.074-2.153-6.067-1.783-9.159s2.462-5.591,3.868-8.34a19.756,19.756,0,0,0,2-11.535c-.245-1.836-.669-3.971.57-5.346,1.5-1.647,4.393-1.029,6.1-2.46a12.185,12.185,0,0,0,1.857-2.668,6.509,6.509,0,0,1,6.962-2.491c1.171.338,2.23,1.009,3.389,1.385a26.569,26.569,0,0,0,5.112.671,6.213,6.213,0,0,1,4.5,2.2c.525.751.76,1.672,1.239,2.45,1.029,1.672,2.993,2.475,4.48,3.755a8.73,8.73,0,0,1,2.444,9.3c-.885,2.479-2.936,4.665-2.765,7.286a15.9,15.9,0,0,1,.383,3.207c-.412,2.975-4.718,3.566-6.209,6.176a21.34,21.34,0,0,0-3.028-12.255c-1.861-2.864-7.518-7.889-11.426-6.493a2.783,2.783,0,0,0-1.713,1.832c-.383,1.466.743,2.079,1.468,3.247a9.9,9.9,0,0,1,1.229,7.59Z" transform="translate(191.897 134.853)" fill="#2f3045"/>
    <g id="Group_1389" data-name="Group 1389" transform="translate(510.106 546.707)" opacity="0.2">
      <path id="Path_2782" data-name="Path 2782" d="M321.722,429.886a17.339,17.339,0,0,0-.373-4.006c-.57-2.61-1.713-5.153-1.828-7.792-.148,2.921,1.213,5.725,1.828,8.632A17.243,17.243,0,0,1,321.722,429.886Z" transform="translate(-316.784 -394.597)" opacity="0.2"/>
      <path id="Path_2783" data-name="Path 2783" d="M330.12,434.76c.228-.418.463-.832.714-1.231-3.279,1.579-5.194,5.009-6.9,8.231-.988,1.861-2,3.887-1.851,5.964a13.776,13.776,0,0,1,1.851-5.151C325.514,439.619,327.268,436.465,330.12,434.76Z" transform="translate(-314.077 -378.25)" opacity="0.2"/>
      <path id="Path_2784" data-name="Path 2784" d="M325.281,447.466a2,2,0,0,1-1.091,1.643,2.045,2.045,0,0,1-2.285-.784,5.98,5.98,0,0,1-.92-2.37,42.592,42.592,0,0,1-1.3-8.478,37.7,37.7,0,0,0,1.3,9.32,5.981,5.981,0,0,0,.92,2.37,2.031,2.031,0,0,0,2.285.778,2.255,2.255,0,0,0,1.108-2.353Z" transform="translate(-316.602 -374.07)" opacity="0.2"/>
      <path id="Path_2785" data-name="Path 2785" d="M330.379,415.275a9.025,9.025,0,0,1-.3,1.987c-.451,1.717-1.336,3.594-1.178,5.225a28.611,28.611,0,0,1,1.178-4.389A9.385,9.385,0,0,0,330.379,415.275Z" transform="translate(-306.865 -397.575)" opacity="0.2"/>
      <path id="Path_2786" data-name="Path 2786" d="M322.68,411.91a18.927,18.927,0,0,0-.161-2.977c-.1-.727-.216-1.5-.255-2.256a17.14,17.14,0,0,0,.255,3.1A18.553,18.553,0,0,1,322.68,411.91Z" transform="translate(-313.87 -406.677)" opacity="0.2"/>
      <path id="Path_2787" data-name="Path 2787" d="M331.7,421.65v-.064a21.823,21.823,0,0,1-1.365,2.833,3.971,3.971,0,0,0-.229,1.826,3.7,3.7,0,0,1,.229-.984C330.786,424.03,331.933,422.943,331.7,421.65Z" transform="translate(-305.587 -390.893)" opacity="0.2"/>
      <path id="Path_2788" data-name="Path 2788" d="M322.134,438.955c-.113-3.154-2.433-5.725-3.564-8.677a5.606,5.606,0,0,1-.366-1.437,4.764,4.764,0,0,0,.366,2.289c1.143,2.89,3.37,5.439,3.553,8.523C322.134,439.412,322.14,439.184,322.134,438.955Z" transform="translate(-318.186 -383.213)" opacity="0.2"/>
      <path id="Path_2789" data-name="Path 2789" d="M341.352,416.675c-1.861-2.862-7.522-7.887-11.423-6.491a2.744,2.744,0,0,0-1.715,1.832,2.015,2.015,0,0,0-.035.984,1.124,1.124,0,0,1,.035-.144,2.8,2.8,0,0,1,.636-1.122,2.724,2.724,0,0,1,1.079-.708c3.889-1.4,9.55,3.623,11.423,6.491a20.752,20.752,0,0,1,3.028,11.041A21.211,21.211,0,0,0,341.352,416.675Z" transform="translate(-307.655 -403.218)" opacity="0.2"/>
      <path id="Path_2790" data-name="Path 2790" d="M342.228,416.187c-.406,2.971-4.7,3.566-6.2,6.16v.858c1.493-2.6,5.8-3.2,6.211-6.176a3.938,3.938,0,0,0,0-.881A.235.235,0,0,1,342.228,416.187Z" transform="translate(-299.297 -396.65)" opacity="0.2"/>
      <path id="Path_2791" data-name="Path 2791" d="M341.624,412.285c-.885,2.474-2.936,4.661-2.765,7.288v.115c.189-2.291,1.947-4.323,2.748-6.567a8.1,8.1,0,0,0,.457-3.193A7.931,7.931,0,0,1,341.624,412.285Z" transform="translate(-296.311 -403.235)" opacity="0.2"/>
      <path id="Path_2792" data-name="Path 2792" d="M330.953,438.637a1.348,1.348,0,0,1-.85.572c-1.252.132-1.033-2.118-2.04-2.862,0,.3.045.572.064.9.924.807.76,2.942,1.976,2.816a1.351,1.351,0,0,0,.85-.574c1.143-1.4,1.223-3.17,1.194-5.007A6.6,6.6,0,0,1,330.953,438.637Z" transform="translate(-307.73 -377.24)" opacity="0.2"/>
      <path id="Path_2793" data-name="Path 2793" d="M331.3,438.21a2.951,2.951,0,0,1-2.993,2.055l-.445-2.936a8.516,8.516,0,0,1-2.948,1.888c-.058.3-.115.6-.161.9a8.533,8.533,0,0,0,3.109-1.948l.445,2.938a2.977,2.977,0,0,0,2.993-2.055,6.579,6.579,0,0,0,.348-2.656A5.573,5.573,0,0,1,331.3,438.21Z" transform="translate(-311.235 -375.214)" opacity="0.2"/>
      <path id="Path_2794" data-name="Path 2794" d="M330.143,436.43a15.009,15.009,0,0,0-.115,2.376,11.272,11.272,0,0,1,.115-1.536c.463-3.21,2.707-6.153,2.507-9.336C332.473,430.8,330.571,433.5,330.143,436.43Z" transform="translate(-305.658 -384.173)" opacity="0.2"/>
    </g>
    <path id="Path_2795" data-name="Path 2795" d="M254.831,392.646c2.717,1.828,6.841.957,6.841.957s6.223-2.954,8.066-2.954,6.314-1.826,6.314-1.826l-.148-1.231-.447-3.708c2.837,2.213,5.987,1.451,7.537,1.289,1.666-.175,10.567-5.476,11.419-5.824a2.253,2.253,0,0,0,.791-.791,20.2,20.2,0,0,0,1.5-2.769c.56-.49.968-.885.935-.974a6.455,6.455,0,0,1,.55-1.458,7.132,7.132,0,0,0,2.7-.974,2.318,2.318,0,0,0,.661-.854,2.375,2.375,0,0,0,.216-1.058s8.681-8.778,7.541-12.428,2.806-3.736,2.806-3.736,6.052-2.606,6.892-4.173c.521-.961,5.06-3.072,8.474-4.558l.422-.183c1.326,2.915,8.058.673,9.383-.562,1.4-1.3,5.525-1.908,5.525-1.908s.173-17.035,1.49-19.209c.624-1.029.791-4.393.758-7.64v-.348c1.842-.36,6.227-1.186,8.263-1.4a7.943,7.943,0,0,0,3.667-1.721l.117.154a2.538,2.538,0,0,0,1.126.185,1.747,1.747,0,0,0,.982-.185c.788-.434,3.681-1.305,4.735-1.74s-.177-3.559-.965-4.171-1.316-1.39-.877-1.738-1.054-1.217-1.929-1.392a28.318,28.318,0,0,1-3.508-1.392s-.964-2-2.543-2-3.685-1.581-3.685-1.581c-.086-.7-1.752-.791-1.752-.791s-6.314-4.865-7.368-4.259-3.946-.953-3.946-.953-3.551.4-4.383-.257a1.006,1.006,0,0,0-.214-.589,6.245,6.245,0,0,0-1.972-2.067,8.533,8.533,0,0,0,.1-1.254,4.769,4.769,0,0,0-.021-.546.65.65,0,0,0,0-.091c.043-.4.082-.815.126-1.223a2.531,2.531,0,0,1,.3-1.151c.15-.229.366-.4.533-.628a1.37,1.37,0,0,0,.105-.163l.029-.047c.023-.043.043-.086.064-.132a.135.135,0,0,0,.018-.043,1.793,1.793,0,0,0,.115-.371v-.033c0-.031.019-.113.023-.173v-.025a3.708,3.708,0,0,0-.2-1.49,9.981,9.981,0,0,1-.716-2.47,7.984,7.984,0,0,0-.045-1.274,3.24,3.24,0,0,0-2.127-1.95,11.882,11.882,0,0,1-2.991-1.95c-.883-.688-2.343-.34-3.461-.268a30.119,30.119,0,0,0-7.446,1.723,7.41,7.41,0,0,0-2.6,1.293,2.894,2.894,0,0,0-.951,1.614,1.956,1.956,0,0,0-.031.438v.039a.662.662,0,0,0,.019.167.245.245,0,0,0,0,.056c.012.068.029.136.047.2.1.321.288.609.4.928.023.07.043.142.06.214v.025l.035.208a9.226,9.226,0,0,1-.323,2.421,2.809,2.809,0,0,0-.039.348,4.206,4.206,0,0,0,.117,1.388.621.621,0,0,0,.052.163l.025.07a.54.54,0,0,0,.049.14.714.714,0,0,1,.041.091c0,.039.035.078.054.117s.037.068.051.1a1.207,1.207,0,0,0,.064.107l.064.1.062.095.08.1c.023.029.043.06.07.089l.091.095.072.074.109.091.076.064.134.091.068.043a1.487,1.487,0,0,0,.22.115c.5.233,1.136.313,1.445.756a1.075,1.075,0,0,1,.144.348v.167a7.235,7.235,0,0,0,.045.762,3.193,3.193,0,0,0,.019.4,1.4,1.4,0,0,0,.086.3,7.925,7.925,0,0,0,2.66,4.475c.029.134.056.292.091.469a8.727,8.727,0,0,1-2.553,1.338c-2.11.692-5.079,3.526-5.079,3.526s-1.48,10.676-1.834,11.994a58.329,58.329,0,0,0-.62,6.345,14.676,14.676,0,0,1-.877,3.129c-.371.735-.3,3.895.735,5.812a4.886,4.886,0,0,1-.646,1.052c-2.1,2.435-8.418,2.349-10.526,2.349a2.659,2.659,0,0,0-2.616,1.365c-3.854,1.1-16.336,4.665-17.816,5.313-1.752.768-2.72,8.356-2.72,8.356s-3.681,12.6-3.508,14.262-1.227,6.248-1.227,6.248,0,5.2-.6,5.554h-.019c-.611.261-.525,2.769-.525,2.769s.449.134,1.157.313a20.325,20.325,0,0,1-1.42,4.321c-.274-.348-.541-.494-.7-.086-.439,1.1-7.016,8.924-8.681,8.924a5.054,5.054,0,0,0-2.967,1.534C253.807,390.452,253.408,391.693,254.831,392.646ZM285,347.352a73.009,73.009,0,0,0,15.438-.529,17.9,17.9,0,0,1-1.141,3.047,31.047,31.047,0,0,0-2.022,6.87c0,1.044-2.368,9.993-3.065,10.427a2.6,2.6,0,0,0-.766,1.108,10.318,10.318,0,0,0-.461,1.328,5.572,5.572,0,0,0,.058.64c-.525.482-1.077.988-1.577,1.435a34.955,34.955,0,0,0-4.169,2.722c-1.038.949-5.962,2.127-5.962,2.127a30.434,30.434,0,0,0-3.551,1.8c-1.519.922-3.043,2.087-3.442,3.238.175-1.941.455-4.278.64-5.768h.28c2.458-.15,2.092-2.5,1.972-3.084a.724.724,0,0,0-.031-.132c1.756-1.913,5.7-16.165,5.173-17.729a2.8,2.8,0,0,1,.648-2.954,3.557,3.557,0,0,0,.053-2.7C282.639,348.245,285,347.352,285,347.352ZM345.28,309l-.467.113v-.1a2.325,2.325,0,0,0,.467.012ZM319.8,295.883c-.072.089-.142.171-.218.253l-.091.095v-.482Zm-8.784,16.863.031.49s-.047.3-.138.791Zm40.3-4.856-1.53.261c.216-.08.43-.171.638-.27a1.428,1.428,0,0,1,.486-.13,2.578,2.578,0,0,1,.572.121.77.77,0,0,0-.167.043Z" transform="translate(123.864)" fill="url(#linear-gradient-2)"/>
    <path id="Path_2796" data-name="Path 2796" d="M281.058,322.527a33.373,33.373,0,0,0-1.674,3.911c.086.257-3.788,3.364-3.788,3.364l-4.218-3.02.43-2.069s4.735-4.274,5.079-4.768S281.058,322.527,281.058,322.527Z" transform="translate(142.365 48.153)" fill="#f5b29b"/>
    <path id="Path_2797" data-name="Path 2797" d="M264.688,333.125c2.927,2.847,6.371,1.976,8.006,1.81s10.37-5.433,11.212-5.781a2.253,2.253,0,0,0,.766-.791,19.7,19.7,0,0,0,1.478-2.736c-.058,0-2.919.834-3.642,0,0,0-1.206-1.482-1.464-1.482s-.021-2.6-.021-2.6a33.49,33.49,0,0,0-4.111,2.685c-1.033.949-5.853,2.112-5.853,2.112a29.5,29.5,0,0,0-3.465,1.791C265.309,329.539,263.026,331.507,264.688,333.125Z" transform="translate(134.68 49.905)" fill="#2f3045"/>
    <path id="Path_2798" data-name="Path 2798" d="M264.688,329.746c2.927,2.847,6.371,1.976,8.006,1.81s10.37-5.433,11.212-5.781a2.253,2.253,0,0,0,.766-.791c-1.019-.609-7.673,3.629-9.536,4.406s-6.573.348-9.241-.79c-1.334-.558,0-2.279,1.7-3.86C265.309,326.157,263.026,328.128,264.688,329.746Z" transform="translate(134.68 53.285)" opacity="0.1"/>
    <path id="Path_2799" data-name="Path 2799" d="M269.513,323.662s-1.229,9.229-.916,10.438-7.7-4.14-7.7-4.14,2.8-5.785,1.972-7.117S269.513,323.662,269.513,323.662Z" transform="translate(131.275 50.817)" fill="#f5b29b"/>
    <path id="Path_2800" data-name="Path 2800" d="M260.843,345.6s4.992,1.468,7.747,1.293c2.415-.15,2.052-2.483,1.927-3.061a.978.978,0,0,0-.033-.13c1.725-1.9,5.6-16.041,5.079-17.6a2.8,2.8,0,0,1,.636-2.932,3.532,3.532,0,0,0,.056-2.676c-.43-.949,1.894-1.812,1.894-1.812a70.769,70.769,0,0,0,15.15-.525,17.852,17.852,0,0,1-1.122,3.028,30.877,30.877,0,0,0-1.972,6.814c0,1.035-2.324,9.921-3.012,10.351a2.6,2.6,0,0,0-.749,1.1,10.253,10.253,0,0,0-.453,1.318c.255,5.781,6.8,3.539,7.745,2.767a2.44,2.44,0,0,0,.369-.375,2.4,2.4,0,0,0,.492-1.523s8.521-8.7,7.4-12.331,2.763-3.71,2.763-3.71,5.939-2.586,6.765-4.14c.509-.953,4.964-3.049,8.317-4.523,2.1-.922,3.769-1.583,3.769-1.583l-1.4-5.017-1.1-3.955-2.071-.79-6.621-2.5-11.891-1.637-1.089.142-11.553,1.495S271,307.906,269.3,308.668s-2.668,8.3-2.668,8.3-3.613,12.506-3.444,14.151-1.219,6.176-1.219,6.176,0,5.14-.585,5.509h-.021C260.761,343.093,260.843,345.6,260.843,345.6Z" transform="translate(131.208 28.636)" fill="#f1780f"/>
    <path id="Path_2801" data-name="Path 2801" d="M269.247,313.329a70.77,70.77,0,0,0,15.15-.525c.517-1.63,7.749-6.114,7.749-6.114C286.21,305.224,269.247,313.329,269.247,313.329Z" transform="translate(140.11 33.989)" opacity="0.1"/>
    <path id="Path_2802" data-name="Path 2802" d="M273.051,321.223c.257,5.781,6.8,3.539,7.747,2.767a2.339,2.339,0,0,0,.366-.375c-2.287.846-6.341,1.495-7.658-3.7A10.461,10.461,0,0,0,273.051,321.223Z" transform="translate(144.137 48.177)" fill="#343343"/>
    <path id="Path_2803" data-name="Path 2803" d="M260.843,324.327s4.992,1.466,7.747,1.293c2.415-.15,2.052-2.483,1.927-3.061a44.6,44.6,0,0,1-9.136-1h-.021C260.761,321.815,260.843,324.327,260.843,324.327Z" transform="translate(131.208 49.913)" fill="#af5b60"/>
    <path id="Path_2804" data-name="Path 2804" d="M273.051,321.223c.257,5.781,6.8,3.539,7.747,2.767a2.339,2.339,0,0,0,.366-.375c-2.287.846-6.341,1.495-7.658-3.7A10.461,10.461,0,0,0,273.051,321.223Z" transform="translate(144.137 48.177)" fill="#f1780f"/>
    <path id="Path_2805" data-name="Path 2805" d="M260.843,324.327s4.992,1.466,7.747,1.293c2.415-.15,2.052-2.483,1.927-3.061a44.6,44.6,0,0,1-9.136-1h-.021C260.761,321.815,260.843,324.327,260.843,324.327Z" transform="translate(131.208 49.913)" fill="#f1780f"/>
    <path id="Path_2806" data-name="Path 2806" d="M255.331,338.733c2.668,1.81,6.709.949,6.709.949s6.108-2.934,7.916-2.934,6.207-1.8,6.207-1.8l-.15-1.223-.71-5.853s-6.707-.169-6.973-.791c0,0-1.206-2.969-1.637-1.873s-6.886,8.86-8.521,8.86a4.9,4.9,0,0,0-2.915,1.519C254.329,336.553,253.936,337.784,255.331,338.733Z" transform="translate(124.411 53.526)" fill="#2f3045"/>
    <path id="Path_2807" data-name="Path 2807" d="M266.11,306.891s5.6,3.559,4.045,4.315S266.11,306.891,266.11,306.891Z" transform="translate(136.788 34.39)" opacity="0.1"/>
    <path id="Path_2808" data-name="Path 2808" d="M264.982,310.2s4.817,4.583,3.01,4.706S264.982,310.2,264.982,310.2Z" transform="translate(135.594 37.896)" opacity="0.1"/>
    <path id="Path_2809" data-name="Path 2809" d="M262.472,317.283s2.448,4.609,1.523,5.408S262.472,317.283,262.472,317.283Z" transform="translate(132.937 45.391)" opacity="0.1"/>
    <path id="Path_2810" data-name="Path 2810" d="M275.589,321.1c-.861.863,8.181-2.847,6.112-3.02S275.589,321.1,275.589,321.1Z" transform="translate(146.762 46.229)" opacity="0.1"/>
    <path id="Path_2811" data-name="Path 2811" d="M284.34,294.139l.288-.043c1.068-.163,4.953-.772,8.432-1.532.848-.185,1.67-.375,2.423-.576,2.668-.7,4.455-1.455,3.319-2.073a6.1,6.1,0,0,1-2.726-3.6c-.039-.128-.08-.249-.111-.368a9.471,9.471,0,0,1-.352-1.976s-9.723-3.452-7.829,0a3.276,3.276,0,0,1-.574,4.041,7.609,7.609,0,0,1-2.1,1.581Z" transform="translate(156.088 8.503)" fill="#f5b29b"/>
    <path id="Path_2812" data-name="Path 2812" d="M300.313,286.823s-3.477,2.5-7.032.432-8.183,18.287-8.183,18.287l-4.823,11.9s-3.121,2.586.762,3.708,12.51-1.122,14.7,2.155a9.52,9.52,0,0,0,6.728,3.78c.4,0,2.063-12.335,2.063-12.335l.426-17.855Z" transform="translate(150.528 13.144)" opacity="0.1"/>
    <path id="Path_2813" data-name="Path 2813" d="M281.113,320.815c3.887,1.124,12.506-1.12,14.7,2.155a8.417,8.417,0,0,0,3.7,2.989,9.687,9.687,0,0,0,3.053.791c.056,0,.138-.224.233-.618.605-2.5,1.832-11.716,1.832-11.716l.426-17.818-4.093-8.881-.556-1.229a7.477,7.477,0,0,1-1.773.863,6.237,6.237,0,0,1-5.264-.432c-1.042-.607-2.178.716-3.263,2.886-2.617,5.237-4.937,15.4-4.937,15.4l-4.819,11.9c-.113.1-.224.206-.327.317C279.339,318.143,278.056,319.93,281.113,320.815Z" transform="translate(150.609 12.791)" fill="#edf2f8"/>
    <path id="Path_2814" data-name="Path 2814" d="M289.756,323.883a22.5,22.5,0,0,0-.113,4.544,52.947,52.947,0,0,0,.788,6.415,2.452,2.452,0,0,0,.107.4c2.1-.922,3.767-1.583,3.767-1.583l-1.4-5.017c.6-2.5,1.83-11.716,1.83-11.716l.455-17.853-4.093-8.881c2.668-.7,4.455-1.456,3.319-2.073a6.328,6.328,0,0,1-2.837-3.955,14.578,14.578,0,0,1-2.448,2.637l-.056.045-.307,3.008-.095.926-.2,1.921s.947,22.682,1.639,23.979.342,3.792-.261,6.722C289.824,323.535,289.791,323.706,289.756,323.883Z" transform="translate(160.469 10.324)" opacity="0.1"/>
    <path id="Path_2815" data-name="Path 2815" d="M290,325.847c-.6,2.93-.086,7.763.6,11.467s8.008,1.293,9.385,0,5.421-1.9,5.421-1.9.175-16.9,1.466-19.063c.612-1.019.76-4.348.745-7.584,0-2.895-.154-5.7-.21-6.65v-.34s5.6-9.49,5.525-10.178-1.721-.793-1.721-.793-6.2-4.832-7.234-4.226-3.87-.949-3.87-.949-3.6.4-4.342-.284a.424.424,0,0,1-.1-.146.392.392,0,0,1-.029-.175c.082-1.1-3.669-3.459-3.784-3.535,3.156,2.855-1.972,7.249-2.534,7.726l-.053.047-.6,5.853s.947,22.684,1.635,23.977S290.6,322.913,290,325.847Z" transform="translate(160.668 7.501)" fill="#008ccb"/>
    <path id="Path_2816" data-name="Path 2816" d="M289.7,291.722a.431.431,0,1,0-.43-.432A.432.432,0,0,0,289.7,291.722Z" transform="translate(161.305 17.417)" fill="#343343"/>
    <path id="Path_2817" data-name="Path 2817" d="M289.049,289.4l2.612,2.534,3.837-6.409a.395.395,0,0,1-.136-.317c.089-1.108-3.664-3.465-3.784-3.535C294.743,284.523,289.63,288.917,289.049,289.4Z" transform="translate(161.073 7.691)" opacity="0.1"/>
    <path id="Path_2818" data-name="Path 2818" d="M290.116,298.425a.431.431,0,1,0-.43-.43A.431.431,0,0,0,290.116,298.425Z" transform="translate(161.748 24.513)" opacity="0.1"/>
    <path id="Path_2819" data-name="Path 2819" d="M290.116,298.339a.43.43,0,1,0-.43-.43A.43.43,0,0,0,290.116,298.339Z" transform="translate(161.748 24.424)" fill="#343343"/>
    <path id="Path_2820" data-name="Path 2820" d="M288.965,289.227l2.617,2.538,3.831-6.409a.424.424,0,0,1-.1-.146.394.394,0,0,1-.029-.175c.082-1.1-3.671-3.461-3.784-3.535C294.659,284.361,289.546,288.754,288.965,289.227Z" transform="translate(160.984 7.51)" fill="#53546d"/>
    <path id="Path_2821" data-name="Path 2821" d="M288.312,303.513l4.646.1a.67.67,0,0,0,.688-.657l.257-11.337a.672.672,0,0,0-.655-.688l-4.646-.107a.673.673,0,0,0-.688.657l-.257,11.339A.671.671,0,0,0,288.312,303.513Z" transform="translate(159.6 17.385)" fill="#2f3045"/>
    <path id="Path_2822" data-name="Path 2822" d="M288.312,303.513l4.646.1a.67.67,0,0,0,.688-.657l.257-11.337a.672.672,0,0,0-.655-.688l-4.646-.107a.673.673,0,0,0-.688.657l-.257,11.339A.671.671,0,0,0,288.312,303.513Z" transform="translate(159.6 17.385)" opacity="0.1"/>
    <path id="Path_2823" data-name="Path 2823" d="M288.328,303.648l4.648.1a.669.669,0,0,0,.686-.657l.257-11.337a.67.67,0,0,0-.655-.688l-4.646-.105a.671.671,0,0,0-.688.655l-.257,11.339A.671.671,0,0,0,288.328,303.648Z" transform="translate(159.616 17.53)" fill="#2f3045"/>
    <path id="Path_2824" data-name="Path 2824" d="M289.749,294.23a.945.945,0,1,0-.943-.945A.944.944,0,0,0,289.749,294.23Z" transform="translate(160.816 18.985)" fill="#53546d"/>
    <path id="Path_2825" data-name="Path 2825" d="M273.511,322.156c2.151.949,16.268-1.55,18.335-2.155s5.079-5.262,3.615-8.624a7.878,7.878,0,0,1,.517-6.643s3.1-6.639,3.784-7.936a60.14,60.14,0,0,0,2.324-5.69.519.519,0,0,0-.019-.21.5.5,0,0,0-.1-.185,15,15,0,0,0-2.715-2.372c-.607.22-.686-1.523-.663-2.808,0-.716.06-1.289.06-1.289s-.288.292-.753.688c-.171.142-.364.3-.581.467a8.889,8.889,0,0,1-2.711,1.486c-2.067.609-4.992,3.44-4.992,3.44l.861,13.244s-1.972,12.459-4.049,14.87-8.261,2.33-10.326,2.33A2.57,2.57,0,0,0,273.511,322.156Z" transform="translate(144.624 10.414)" opacity="0.1"/>
    <path id="Path_2826" data-name="Path 2826" d="M273.427,321.9c2.151.949,16.272-1.55,18.335-2.155s5.079-5.258,3.615-8.624a7.876,7.876,0,0,1,.517-6.643s3.1-6.639,3.788-7.932a61.289,61.289,0,0,0,2.324-5.692.492.492,0,0,0-.021-.212.542.542,0,0,0-.1-.185,15.219,15.219,0,0,0-2.72-2.372c-.607.222-.683-1.523-.659-2.8,0-.718.056-1.293.056-1.293s-.284.292-.749.688c-.175.146-.368.3-.581.467a8.912,8.912,0,0,1-2.715,1.486c-2.063.614-4.992,3.44-4.992,3.44l.861,13.248s-1.972,12.455-4.045,14.872-8.263,2.324-10.33,2.324A2.567,2.567,0,0,0,273.427,321.9Z" transform="translate(144.535 10.147)" fill="#008ccb"/>
    <path id="Path_2827" data-name="Path 2827" d="M284.8,284.165s.078.455.216,1.151c.463,2.374,1.579,7.541,2.367,7.343a7.218,7.218,0,0,0,2.289-2.036,15.174,15.174,0,0,0-2.717-2.374c-.609.222-.683-1.521-.661-2.8l-.694-.6Z" transform="translate(156.575 10.33)" opacity="0.1"/>
    <path id="Path_2828" data-name="Path 2828" d="M284.882,284s.078.455.216,1.155c.463,2.372,1.579,7.541,2.37,7.339a7.15,7.15,0,0,0,2.287-2.034,15.224,15.224,0,0,0-2.717-2.372c-.609.222-.683-1.521-.661-2.8l-.706-.6Z" transform="translate(156.662 10.151)" fill="#53546d"/>
    <path id="Path_2829" data-name="Path 2829" d="M284.16,299.023s4.3-.863,5.525-2.769,9.4-3.539,8.4-1.554-8.422,8.482-8.422,8.482l-3.207,4.6-4.29-1.087-1.8-3.516Z" transform="translate(151.879 20.526)" fill="#f5b29b"/>
    <path id="Path_2830" data-name="Path 2830" d="M289.645,298.724s-4.167,1.554-4.795,3.623S289.645,298.724,289.645,298.724Z" transform="translate(156.575 25.743)" opacity="0.1"/>
    <path id="Path_2831" data-name="Path 2831" d="M290.888,299.9s.393,2.155-4.846,1.976Z" transform="translate(157.89 26.984)" opacity="0.1"/>
    <path id="Path_2832" data-name="Path 2832" d="M302.493,286.578l1.894-.173s2.063,1.554,3.615,1.554,2.493,1.976,2.493,1.976a27.361,27.361,0,0,0,3.446,1.379c.859.171,2.324,1.035,1.894,1.381s.082,1.122.858,1.727,1.974,3.71.949,4.14-3.876,1.293-4.651,1.723a2.108,2.108,0,0,1-1.719,0s-4.562-5.95-6.886-4.832a15.013,15.013,0,0,1-5.525,1.124l-2.479-5.26Z" transform="translate(168.838 12.702)" opacity="0.1"/>
    <path id="Path_2833" data-name="Path 2833" d="M280.7,314.382a2.308,2.308,0,0,0,1.6,1.118,12.089,12.089,0,0,0,5.015-.467s-8.681-2.767-.323-9.488h-2.238l-.745-.286.344-1.787.49-16.109-1.82-.412s-1.456,10.61-1.8,11.9a58.579,58.579,0,0,0-.607,6.3,14.512,14.512,0,0,1-.861,3.1A9.065,9.065,0,0,0,280.7,314.382Z" transform="translate(151.023 13.279)" fill="#008ccb"/>
    <path id="Path_2834" data-name="Path 2834" d="M280.282,304.965a2.31,2.31,0,0,0,1.606,1.12,12.1,12.1,0,0,0,5.011-.467s-8.681-2.767-.319-9.488h-2.242l-.745-.286C282.361,298.038,280.432,301.91,280.282,304.965Z" transform="translate(151.792 22.693)" opacity="0.1"/>
    <path id="Path_2835" data-name="Path 2835" d="M280.111,304.965a2.3,2.3,0,0,0,1.6,1.12,12.137,12.137,0,0,0,5.017-.467s-8.683-2.767-.325-9.488h-2.236l-.747-.286C282.2,298.038,280.27,301.91,280.111,304.965Z" transform="translate(151.611 22.693)" fill="#53546d"/>
    <path id="Path_2836" data-name="Path 2836" d="M285.734,288.006a7.831,7.831,0,0,0,8.867-1.688c-.039-.128-.08-.249-.111-.368a9.471,9.471,0,0,1-.352-1.976s-9.723-3.452-7.829,0A3.263,3.263,0,0,1,285.734,288.006Z" transform="translate(157.564 8.503)" opacity="0.1"/>
    <path id="Path_2837" data-name="Path 2837" d="M283.5,285.531v.074a4.382,4.382,0,0,0,.043.756c.025.239.06.473.107.708a7.83,7.83,0,0,0,15.09,1.013c.051-.15.1-.3.142-.459a7.814,7.814,0,0,0,.284-2.092,4.715,4.715,0,0,0-.021-.541,7.832,7.832,0,0,0-15.646.541Z" transform="translate(155.203 3.484)" fill="#f5b29b"/>
    <path id="Path_2838" data-name="Path 2838" d="M283.5,285.612a3.3,3.3,0,0,1,.043.753,3.652,3.652,0,0,0,.021.4,1.087,1.087,0,0,0,.086.3,1.462,1.462,0,0,0,2.028.747,2.176,2.176,0,0,0,.611-.793c.727-1.346,1.733-2.9,3.314-2.925a8.184,8.184,0,0,1,1.974.443,2.074,2.074,0,0,0,1.917-.261c.373-.34.55-.924,1.054-1.048s.963.346,1.184.793.416.984.881,1.217c.208.1.449.132.655.241.935.515.5,2.314,1.476,2.606a.728.728,0,0,0,.095.025l.047-.484c.086-.877.177-1.752.263-2.633a7.832,7.832,0,0,0-15.646.541Z" transform="translate(155.203 3.479)" opacity="0.1"/>
    <path id="Path_2839" data-name="Path 2839" d="M299.094,277.028a3.2,3.2,0,0,1,2.083,1.933,7.647,7.647,0,0,1,.043,1.266,10.207,10.207,0,0,0,.706,2.452,2.729,2.729,0,0,1-.165,2.454c-.163.218-.375.4-.521.626a2.519,2.519,0,0,0-.3,1.143l-.426,4.243c-1.093-.2-.607-2.1-1.579-2.629-.2-.111-.441-.14-.651-.243-.465-.233-.646-.766-.879-1.217s-.683-.914-1.186-.791-.677.7-1.048,1.048a2.119,2.119,0,0,1-1.919.257,7.754,7.754,0,0,0-1.972-.445c-1.579.029-2.594,1.583-3.317,2.927a2.146,2.146,0,0,1-.611.791,1.472,1.472,0,0,1-2.114-1.044c-.072-.506.082-1.073-.206-1.5s-.922-.523-1.416-.751a3.187,3.187,0,0,1-1.441-3.475,6.07,6.07,0,0,0,.222-2.843c-.107-.317-.292-.605-.4-.922a2.494,2.494,0,0,1,.883-2.5,7.225,7.225,0,0,1,2.559-1.285,29.19,29.19,0,0,1,7.308-1.713c1.093-.07,2.528-.416,3.4.27A11.329,11.329,0,0,0,299.094,277.028Z" transform="translate(153.527 0.271)" fill="#044272"/>
    <path id="Path_2840" data-name="Path 2840" d="M289.489,288.409a.43.43,0,1,0-.43-.43A.429.429,0,0,0,289.489,288.409Z" transform="translate(161.084 13.912)" opacity="0.1"/>
    <path id="Path_2841" data-name="Path 2841" d="M289.489,288.326a.43.43,0,1,0-.43-.43A.429.429,0,0,0,289.489,288.326Z" transform="translate(161.084 13.824)" fill="#343343"/>
    <path id="Path_2842" data-name="Path 2842" d="M290.827,301.564a.43.43,0,1,0-.43-.43A.43.43,0,0,0,290.827,301.564Z" transform="translate(162.5 27.838)" opacity="0.1"/>
    <path id="Path_2843" data-name="Path 2843" d="M290.827,301.483a.431.431,0,1,0-.43-.432A.432.432,0,0,0,290.827,301.483Z" transform="translate(162.5 27.751)" fill="#343343"/>
    <path id="Path_2844" data-name="Path 2844" d="M290.116,305.044a.431.431,0,1,0-.43-.43A.431.431,0,0,0,290.116,305.044Z" transform="translate(161.748 31.521)" opacity="0.1"/>
    <path id="Path_2845" data-name="Path 2845" d="M290.116,304.958a.43.43,0,1,0-.43-.43A.43.43,0,0,0,290.116,304.958Z" transform="translate(161.748 31.432)" fill="#343343"/>
    <path id="Path_2846" data-name="Path 2846" d="M282.926,291.068s-.949,6.442,0,7.566S282.926,291.068,282.926,291.068Z" transform="translate(154.144 17.638)" opacity="0.1"/>
    <path id="Path_2847" data-name="Path 2847" d="M297.663,296.878a9.764,9.764,0,0,1,0,7.644c-1.807,3.741-2.927,5.264-2.324,7.652S297.663,296.878,297.663,296.878Z" transform="translate(167.558 23.789)" opacity="0.1"/>
    <path id="Path_2848" data-name="Path 2848" d="M255.332,334.229c2.668,1.81,6.709.949,6.709.949s6.108-2.936,7.916-2.936,6.207-1.8,6.207-1.8l-.15-1.221c-1.783.344-5.836,1.167-6.314,1.581-.6.519-8.006,3.022-8.006,3.022s-5.04-.634-6.444-2.709C254.329,332.049,253.936,333.28,255.332,334.229Z" transform="translate(124.411 58.031)" opacity="0.1"/>
    <g id="Group_1390" data-name="Group 1390" transform="translate(435.457 279.525)" opacity="0.1">
      <path id="Path_2849" data-name="Path 2849" d="M291.3,277.173v.043A.148.148,0,0,0,291.3,277.173Z" transform="translate(-272.005 -276.893)" opacity="0.1"/>
      <path id="Path_2850" data-name="Path 2850" d="M283.515,282.306c.492.224,1.116.309,1.416.747s.134.992.2,1.5a1.479,1.479,0,0,0,2.116,1.048,2.168,2.168,0,0,0,.611-.791c.723-1.344,1.733-2.895,3.314-2.923a8.373,8.373,0,0,1,1.974.438,2.091,2.091,0,0,0,1.917-.255c.371-.342.55-.926,1.05-1.048s.968.34,1.184.791a2.332,2.332,0,0,0,.881,1.212c.208.1.449.136.65.245.966.531.482,2.425,1.579,2.631l.426-4.247a2.544,2.544,0,0,1,.3-1.143c.146-.226.36-.4.521-.622a1.884,1.884,0,0,0,.352-.912,2.181,2.181,0,0,1-.352,1.6c-.161.218-.375.4-.521.626a2.543,2.543,0,0,0-.3,1.143l-.426,4.243c-1.093-.2-.609-2.1-1.579-2.629-.2-.111-.443-.14-.65-.241-.467-.235-.648-.768-.881-1.219s-.683-.914-1.184-.791-.679.7-1.05,1.048a2.115,2.115,0,0,1-1.917.257,7.684,7.684,0,0,0-1.974-.443c-1.579.027-2.592,1.581-3.314,2.925a2.131,2.131,0,0,1-.611.791,1.474,1.474,0,0,1-2.116-1.044c-.07-.506.084-1.073-.2-1.5s-.924-.523-1.416-.751a3.056,3.056,0,0,1-1.48-3.131A2.82,2.82,0,0,0,283.515,282.306Z" transform="translate(-281.823 -274.687)" opacity="0.1"/>
      <path id="Path_2851" data-name="Path 2851" d="M282.007,277.182c.1.317.284.605.393.922a2.747,2.747,0,0,1,.1,1.134,2.337,2.337,0,0,0-.1-.443c-.1-.317-.29-.605-.393-.92a1.94,1.94,0,0,1-.051-.9C281.97,277.044,281.987,277.112,282.007,277.182Z" transform="translate(-281.925 -276.807)" opacity="0.1"/>
    </g>
    <path id="Path_2852" data-name="Path 2852" d="M299.717,300.142c1.972-.434,6.625-1.812,6.625-1.812l.834-.167c0-2.894-.154-5.7-.21-6.649a33,33,0,0,0-4.906,1.976c-.957.684-3.874.519-3.874.519a13.252,13.252,0,0,0-8.35,4.484C286.048,302.719,297.737,300.576,299.717,300.142Z" transform="translate(161.112 18.11)" opacity="0.1"/>
    <path id="Path_2853" data-name="Path 2853" d="M319.07,293.2a1.149,1.149,0,0,1,.665.9,1.147,1.147,0,0,1-.4,1.038,8.439,8.439,0,0,1-4.041,2.061c-2.439.245-8.286,1.425-8.891,1.542a.35.35,0,0,0-.091.025c-.484.142-4.735,1.383-6.582,1.791-1.972.434-13.69,2.594-9.9-1.633a13.363,13.363,0,0,1,8.286-4.482h.15c.443.025,2.944.107,3.809-.517a7.97,7.97,0,0,1,1.421-.712,27.251,27.251,0,0,1,5.82-1.68l4.049-.708a1.156,1.156,0,0,1,.681.087Z" transform="translate(161.103 17.355)" fill="#f5b29b"/>
    <path id="Path_2854" data-name="Path 2854" d="M302.669,286.578l1.894-.173s2.065,1.554,3.615,1.554,2.5,1.976,2.5,1.976a27.245,27.245,0,0,0,3.442,1.379c.861.171,2.324,1.035,1.894,1.381s.086,1.122.861,1.727,1.972,3.71.947,4.14-3.874,1.289-4.634,1.727a2.129,2.129,0,0,1-1.719,0s-4.593-5.95-6.9-4.832a14.953,14.953,0,0,1-5.523,1.124l-2.5-5.264Z" transform="translate(169.004 12.702)" fill="#008ccb"/>
    <g id="Group_1391" data-name="Group 1391" transform="translate(526.013 543.907)" opacity="0.1">
      <path id="Path_2855" data-name="Path 2855" d="M340.36,407.131a.146.146,0,0,1-.035.113,3.72,3.72,0,0,1-.177.455A2.9,2.9,0,0,1,340.36,407.131Z" transform="translate(-310.843 -403.397)" opacity="0.1"/>
      <path id="Path_2856" data-name="Path 2856" d="M326.037,406.414a5.185,5.185,0,0,1,.422-1.1c-.029.095-.06.187-.08.284a7.824,7.824,0,0,0,.241,3.6,2.491,2.491,0,0,0,.875,1.606c.8.521,2.057.068,2.711.768.422.422.422,1.233.99,1.5a1.074,1.074,0,0,0,.646.076c1.437-.2,2.271-1.834,3.658-2.283a3.653,3.653,0,0,1,2.423.212,1.788,1.788,0,0,1,.8.517c.461.6.136,1.482.352,2.207.3,1.009,1.5,1.412,2.536,1.544s2.211.2,2.9.99a2.632,2.632,0,0,1,.517,2.118,1.721,1.721,0,0,0,0,.78c.288.813,1.692.692,2.059.047.268-.467.187-.848.821-.984a2.677,2.677,0,0,1,1.328.229,9.715,9.715,0,0,0,3.5.527,4.686,4.686,0,0,0,2.748-.848,3.233,3.233,0,0,0,.846-1.025,3.432,3.432,0,0,1-1.167,1.838,4.657,4.657,0,0,1-2.748.848,9.661,9.661,0,0,1-3.5-.525,2.729,2.729,0,0,0-1.328-.231c-.634.132-.554.519-.821.988-.366.64-1.771.764-2.059-.051a1.715,1.715,0,0,1,0-.778,2.639,2.639,0,0,0-.517-2.12c-.694-.782-1.865-.846-2.9-.99s-2.242-.531-2.536-1.538c-.216-.729.109-1.616-.352-2.213a1.836,1.836,0,0,0-.8-.517,3.665,3.665,0,0,0-2.423-.208c-1.383.424-2.221,2.077-3.658,2.281a1.1,1.1,0,0,1-.646-.072c-.546-.276-.572-1.064-.99-1.509-.657-.7-1.9-.247-2.711-.768a2.493,2.493,0,0,1-.875-1.606A7.565,7.565,0,0,1,326.037,406.414Z" transform="translate(-325.913 -405.317)" opacity="0.1"/>
    </g>
    <path id="Path_2857" data-name="Path 2857" d="M374.652,458.4c0,.8-1.579,1.575-4.494,2.3-11.669,2.89-44.657,4.974-83.592,4.974-38.306,0-70.9-2.017-83.014-4.84-3.261-.76-5.075-1.579-5.075-2.433,0-.3.218-.593.646-.883l174.655-.146C374.355,457.715,374.652,458.04,374.652,458.4Z" transform="translate(65.188 193.702)" opacity="0.1"/>
    <path id="Path_2858" data-name="Path 2858" d="M419.73,377.408H287.8a6.909,6.909,0,0,0-6.9,6.919v30.161a6.909,6.909,0,0,0,6.9,6.919H419.73a6.908,6.908,0,0,0,6.9-6.919V384.327A6.908,6.908,0,0,0,419.73,377.408Z" transform="translate(152.448 109.044)" fill="#fbfcfe"/>
    <path id="Path_2859" data-name="Path 2859" d="M323.244,382H289.531v7.638h33.713Z" transform="translate(161.584 113.906)" fill="#dee1e7"/>
    <path id="Path_2860" data-name="Path 2860" d="M392.843,388.007H289.531v4H392.843Z" transform="translate(161.584 120.264)" fill="#9fd7f3"/>
    <path id="Path_2861" data-name="Path 2861" d="M330.857,392.246H289.531v4h41.326Z" transform="translate(161.584 124.752)" fill="#9fd7f3"/>
    <path id="Path_2862" data-name="Path 2862" d="M288.386,323.821H156.459a6.909,6.909,0,0,0-6.9,6.921V360.9a6.909,6.909,0,0,0,6.9,6.919H288.386a6.909,6.909,0,0,0,6.9-6.919V330.742A6.909,6.909,0,0,0,288.386,323.821Z" transform="translate(13.401 52.313)" fill="#262739" opacity="0.5"/>
    <path id="Path_2863" data-name="Path 2863" d="M191.9,328.414H158.188v7.636H191.9Z" transform="translate(22.535 57.175)" fill="#262739" opacity="0.5"/>
    <path id="Path_2864" data-name="Path 2864" d="M261.5,334.42H158.188v4H261.5Z" transform="translate(22.535 63.534)" fill="#262739" opacity="0.5"/>
    <path id="Path_2865" data-name="Path 2865" d="M199.514,338.659H158.188v4h41.326Z" transform="translate(22.535 68.021)" fill="#262739" opacity="0.5"/>
    <path id="Path_2866" data-name="Path 2866" d="M288.386,323.821H156.459a6.909,6.909,0,0,0-6.9,6.921V360.9a6.909,6.909,0,0,0,6.9,6.919H288.386a6.909,6.909,0,0,0,6.9-6.919V330.742A6.909,6.909,0,0,0,288.386,323.821Z" transform="translate(13.401 52.313)" fill="#fbfcfe"/>
    <path id="Path_2867" data-name="Path 2867" d="M191.9,328.414H158.188v7.636H191.9Z" transform="translate(22.535 57.175)" fill="#dee1e7"/>
    <path id="Path_2868" data-name="Path 2868" d="M261.5,334.42H158.188v4H261.5Z" transform="translate(22.535 63.534)" fill="#9fd7f3"/>
    <path id="Path_2869" data-name="Path 2869" d="M199.514,338.659H158.188v4h41.326Z" transform="translate(22.535 68.021)" fill="#9fd7f3"/>
    <path id="Path_2870" data-name="Path 2870" d="M273.577,363.908H271.5a.832.832,0,0,0-.83.832v29.252a.832.832,0,0,0,.83.834h2.077a.832.832,0,0,0,.832-.834V364.74A.832.832,0,0,0,273.577,363.908Z" transform="translate(141.616 94.752)" fill="#044272"/>
    <path id="Path_2871" data-name="Path 2871" d="M211.861,352.142h-1.013a.545.545,0,0,0-.544.546v9.087a.546.546,0,0,0,.544.546h1.013a.545.545,0,0,0,.543-.546v-9.087A.543.543,0,0,0,211.861,352.142Z" transform="translate(77.709 82.295)" fill="#044272"/>
    <path id="Path_2872" data-name="Path 2872" d="M212.02,361.193h-1.138a.612.612,0,0,0-.613.613v16.488a.614.614,0,0,0,.613.616h1.138a.614.614,0,0,0,.611-.616V361.807A.612.612,0,0,0,212.02,361.193Z" transform="translate(77.67 91.877)" fill="#044272"/>
    <path id="Path_2873" data-name="Path 2873" d="M211.954,372.81h-1.085a.584.584,0,0,0-.583.585v16.7a.584.584,0,0,0,.583.585h1.085a.584.584,0,0,0,.583-.585v-16.7A.584.584,0,0,0,211.954,372.81Z" transform="translate(77.689 104.176)" fill="#044272"/>
    <path id="Path_2874" data-name="Path 2874" d="M323.044,335.8H223.821a12.958,12.958,0,0,0-12.939,12.978V577.873a12.96,12.96,0,0,0,12.939,12.98h99.224a12.959,12.959,0,0,0,12.937-12.98V348.78A12.958,12.958,0,0,0,323.044,335.8Z" transform="translate(78.32 64.997)" fill="#006eb3"/>
    <path id="Path_2875" data-name="Path 2875" d="M251.953,339.5H236.325a.922.922,0,0,0-.922.922v1.713a.924.924,0,0,0,.922.924h15.627a.922.922,0,0,0,.92-.924v-1.713A.92.92,0,0,0,251.953,339.5Z" transform="translate(104.28 68.915)" fill="#dee1e7"/>
    <path id="Path_2876" data-name="Path 2876" d="M247.184,343.423a2.019,2.019,0,1,0-2.011-2.02A2.016,2.016,0,0,0,247.184,343.423Z" transform="translate(114.623 68.791)" fill="#dee1e7"/>
    <path id="Path_2877" data-name="Path 2877" d="M324.283,349V570.821a9.949,9.949,0,0,1-9.935,9.964H224.571a9.953,9.953,0,0,1-9.937-9.964V349a9.953,9.953,0,0,1,9.937-9.968H238v1.75a8.2,8.2,0,0,0,8.181,8.208h45.676a8.2,8.2,0,0,0,8.165-8.208v-1.731h14.322a9.949,9.949,0,0,1,9.935,9.95Z" transform="translate(82.292 68.413)" fill="#fff"/>
    <path id="Path_2878" data-name="Path 2878" d="M249.869,361.869H216.158v7.638h33.711Z" transform="translate(83.906 92.593)" fill="#dee1e7"/>
    <path id="Path_2879" data-name="Path 2879" d="M319.47,367.875H216.158v4H319.47Z" transform="translate(83.906 98.951)" fill="#9fd7f3"/>
    <path id="Path_2880" data-name="Path 2880" d="M257.482,372.114H216.158v4h41.324Z" transform="translate(83.906 103.439)" fill="#9fd7f3"/>
    <path id="Path_2881" data-name="Path 2881" d="M249.869,404.97H216.158v7.636h33.711Z" transform="translate(83.906 138.223)" fill="#dee1e7"/>
    <path id="Path_2882" data-name="Path 2882" d="M319.47,410.975H216.158v4H319.47Z" transform="translate(83.906 144.58)" fill="#e1f2fc"/>
    <path id="Path_2883" data-name="Path 2883" d="M257.482,415.215H216.158v4h41.324Z" transform="translate(83.906 149.069)" fill="#e1f2fc"/>
    <path id="Path_2884" data-name="Path 2884" d="M249.869,426.519H216.158v7.638h33.711Z" transform="translate(83.906 161.036)" fill="#dee1e7"/>
    <path id="Path_2885" data-name="Path 2885" d="M319.47,432.525H216.158v4H319.47Z" transform="translate(83.906 167.394)" fill="#e1f2fc"/>
    <path id="Path_2886" data-name="Path 2886" d="M257.482,436.764H216.158v4h41.324Z" transform="translate(83.906 171.882)" fill="#e1f2fc"/>
    <path id="Path_2887" data-name="Path 2887" d="M263.227,464.673A12.364,12.364,0,1,0,250.9,452.308,12.346,12.346,0,0,0,263.227,464.673Z" transform="translate(120.688 175.249)" fill="#006eb3"/>
    <path id="Path_2888" data-name="Path 2888" d="M253.9,455.76V444.635a1.215,1.215,0,0,1,.362-.867,1.236,1.236,0,0,1,.873-.36h9.882a1.236,1.236,0,0,1,.873.36,1.215,1.215,0,0,1,.362.867v7.36a1.23,1.23,0,0,1-1.235,1.227h-8.562l-2.555,2.536Zm2.47-6.217v1.227h7.411v-1.227Zm0-1.841v1.227h7.411V447.7Zm0-1.84v1.227h7.411v-1.227Z" transform="translate(123.864 178.916)" fill="#fff"/>
    <path id="Path_2889" data-name="Path 2889" d="M320.719,388.58v30.159a6.9,6.9,0,0,1-6.886,6.909h-99.2v-44h99.2a6.9,6.9,0,0,1,6.886,6.932Z" transform="translate(82.292 113.532)" fill="#dae9f0"/>
    <path id="Path_2890" data-name="Path 2890" d="M328.571,378.651H196.644a6.909,6.909,0,0,0-6.9,6.919v30.162a6.909,6.909,0,0,0,6.9,6.919H328.571a6.909,6.909,0,0,0,6.9-6.919V385.57A6.909,6.909,0,0,0,328.571,378.651Z" transform="translate(55.943 110.36)" fill="#eee"/>
    <path id="Path_2891" data-name="Path 2891" d="M328.571,378.651H196.644a6.909,6.909,0,0,0-6.9,6.919v30.162a6.909,6.909,0,0,0,6.9,6.919H328.571a6.909,6.909,0,0,0,6.9-6.919V385.57A6.909,6.909,0,0,0,328.571,378.651Z" transform="translate(55.943 110.36)" fill="#fff"/>
    <path id="Path_2892" data-name="Path 2892" d="M232.086,383.243H198.373v7.635h33.713Z" transform="translate(65.077 115.221)" fill="#dee1e7"/>
    <path id="Path_2893" data-name="Path 2893" d="M301.685,389.248H198.373v4H301.685Z" transform="translate(65.077 121.578)" fill="#9fd7f3"/>
    <path id="Path_2894" data-name="Path 2894" d="M239.7,393.488H198.373v4H239.7Z" transform="translate(65.077 126.067)" fill="#9fd7f3"/>
    <path id="Path_2895" data-name="Path 2895" d="M188.784,406.879a12.379,12.379,0,1,0-12.34-12.379A12.36,12.36,0,0,0,188.784,406.879Z" transform="translate(41.862 114.033)" fill="#2f3045"/>
    <path id="Path_2896" data-name="Path 2896" d="M189.192,439c1.272,8.966-.28,18.108-2.7,26.831a19.951,19.951,0,0,1-1.783,4.719,50.4,50.4,0,0,1-3.018,4.082,35.553,35.553,0,0,0-4.422,9.571,270.581,270.581,0,0,0-7.876,28.159,1.935,1.935,0,0,0,0,1.2c.3.694,1.21.782,1.96.78l9.686-.054c.346-.665-.292-1.383-.69-2.022-1.381-2.153-.056-4.951,1.163-7.205a77.639,77.639,0,0,0,6.827-17.313,47.081,47.081,0,0,1,2.279-7.524c1.3-2.9,3.341-5.4,5-8.113a67.871,67.871,0,0,0,4.725-10.017c1.948-4.772,3.911-9.6,4.677-14.7a58.863,58.863,0,0,0-.1-14.479.921.921,0,0,0-.264-.79.916.916,0,0,0-.366-.22.9.9,0,0,0-.426-.027l-13-.673c-2.678-.138-3.312-.727-2.907,1.913C188.239,435.085,188.908,437,189.192,439Z" transform="translate(34.295 165.833)" fill="#006eb3"/>
    <path id="Path_2897" data-name="Path 2897" d="M189.192,439c1.272,8.966-.28,18.108-2.7,26.831a19.951,19.951,0,0,1-1.783,4.719,50.4,50.4,0,0,1-3.018,4.082,35.553,35.553,0,0,0-4.422,9.571,270.581,270.581,0,0,0-7.876,28.159,1.935,1.935,0,0,0,0,1.2c.3.694,1.21.782,1.96.78l9.686-.054c.346-.665-.292-1.383-.69-2.022-1.381-2.153-.056-4.951,1.163-7.205a77.639,77.639,0,0,0,6.827-17.313,47.081,47.081,0,0,1,2.279-7.524c1.3-2.9,3.341-5.4,5-8.113a67.871,67.871,0,0,0,4.725-10.017c1.948-4.772,3.911-9.6,4.677-14.7a58.863,58.863,0,0,0-.1-14.479.921.921,0,0,0-.264-.79.916.916,0,0,0-.366-.22.9.9,0,0,0-.426-.027l-13-.673c-2.678-.138-3.312-.727-2.907,1.913C188.239,435.085,188.908,437,189.192,439Z" transform="translate(34.295 165.833)" opacity="0.1"/>
    <path id="Path_2898" data-name="Path 2898" d="M182.616,424.819c-2.639,3.809-5.408,8.194-4.531,12.753.667,3.463,3.3,6.145,5.779,8.657,9.921,9.993,19.675,21.1,23.051,34.789.869,3.539,1.291,7.17,2.04,10.734,1.359,6.477,3.8,12.667,6.213,18.82l6.462,16.406a9.793,9.793,0,0,0,9.355-6.232,4.094,4.094,0,0,1-2.454-1.583c-2.763-3.833-3.329-8.764-4.037-13.439-.782-5.165-1.828-10.291-2.878-15.411L216.99,467.66c-.535-2.615-1.07-5.233-1.766-7.8-2.7-9.985-7.815-19.393-8.605-29.715-.117-1.515-.191-3.181-1.217-4.307-1.077-1.188-2.843-1.386-4.441-1.478C194.495,423.926,188.916,423.292,182.616,424.819Z" transform="translate(43.424 158.213)" fill="#008ccb"/>
    <path id="Path_2899" data-name="Path 2899" d="M175.78,471.35a10.211,10.211,0,0,0-2.147-.278,4.461,4.461,0,0,0-3.508,1.923,8.744,8.744,0,0,0-.941,2.077l-.937,2.695a3,3,0,0,0-.134,2.423,2.55,2.55,0,0,0,1.256.986c2.265,1.011,4.815,1.066,7.284,1.309,2.4.237,4.77.659,7.135,1.105.815.152,1.626.307,2.45.391a29.037,29.037,0,0,0,5.544-.167l1.9-.183a6.9,6.9,0,0,0,1.871-.346,2.353,2.353,0,0,0,1.379-1.243,2.218,2.218,0,0,0-1.77-2.771c-.5-.1-1.017-.056-1.525-.121a7.16,7.16,0,0,1-1.67-.5,32.75,32.75,0,0,1-7.032-3.438c-.593-.418-1.215-1-1.149-1.731a3.517,3.517,0,0,1,.307-.9,3.281,3.281,0,0,0,.027-2.318c-.117-.317-.344-.655-.665-.692-.912-.111-.8,1.223-.937,1.731-.181.692-.513.756-1.163.692C179.494,471.8,177.631,471.7,175.78,471.35Z" transform="translate(32.819 206.609)" fill="#044272"/>
    <path id="Path_2900" data-name="Path 2900" d="M198.218,481.291a6.127,6.127,0,0,0,1.32,3.724,2.89,2.89,0,0,0,.939.758,3.76,3.76,0,0,0,1.709.274,13.825,13.825,0,0,0,4.795-.974,13.49,13.49,0,0,1,1.657-.626,18.439,18.439,0,0,1,2.153-.313c2.855-.412,5.361-2.1,8.119-2.956a17.184,17.184,0,0,0,2.415-.8,11.127,11.127,0,0,0,2.841-2.225,5.116,5.116,0,0,0,1.865-4.716.893.893,0,0,0-.084-.49.714.714,0,0,0-.311-.245,4.488,4.488,0,0,0-2.761-.045,49.035,49.035,0,0,1-10.2.379,1.486,1.486,0,0,1-1.567-.9l-1.295-2.077c-.368-.6-.955-1.279-1.626-1.075a1.33,1.33,0,0,0-.731,1.385,7.426,7.426,0,0,1,.086,1.676,2.281,2.281,0,0,1-1.105,1.441,7.034,7.034,0,0,1-1.725.665c-1.906.539-4.121,1.153-5.6,2.559C198.053,477.725,198.152,479.959,198.218,481.291Z" transform="translate(64.874 205.958)" fill="#044272"/>
    <path id="Path_2901" data-name="Path 2901" d="M204.717,415.962a7.982,7.982,0,0,0,1.886-2.057,8.351,8.351,0,0,0,.8-2.843l.543-3.434c.3-1.894.653-3.9,1.913-5.342s3.769-1.96,5.05-.533a4.456,4.456,0,0,1,.918,2.3,16.782,16.782,0,0,1-4.08,13.851c-1.55,1.7-3.452,3.059-5.091,4.669-1.431,1.385-2.668,2.975-3.988,4.48a55.041,55.041,0,0,1-10.864,9.523,48.88,48.88,0,0,0,0-7.9c-.278-1.849-1.035-2.845.749-4.053A136.642,136.642,0,0,0,204.717,415.962Z" transform="translate(57.704 133.922)" fill="#f1aaab"/>
    <rect id="Rectangle_1856" data-name="Rectangle 1856" width="4.117" height="16.469" transform="translate(266.599 527.624)" fill="#2f3045"/>
    <path id="Path_2902" data-name="Path 2902" d="M182.209,398.7a6.349,6.349,0,0,1-2.417,4.791q6.451,2.264,12.727,4.992a4.441,4.441,0,0,1-1.091-3.1,15.675,15.675,0,0,1,2.382-8.344,2.046,2.046,0,0,0,.391-1.1c-.049-.817-1.015-1.194-1.81-1.385a44.357,44.357,0,0,0-8.257-1.2c-1.19-.037-2.6-.414-2.332,1.106A16.774,16.774,0,0,1,182.209,398.7Z" transform="translate(45.406 125.848)" fill="#f1aaab"/>
    <path id="Path_2903" data-name="Path 2903" d="M190.2,406.8a10.121,10.121,0,1,0-10.09-10.12A10.1,10.1,0,0,0,190.2,406.8Z" transform="translate(45.739 118.73)" fill="#f1aaab"/>
    <path id="Path_2904" data-name="Path 2904" d="M202.528,413.042a12.156,12.156,0,0,0-1.28-2.153,44.571,44.571,0,0,0-6.055-7.448,37.66,37.66,0,0,0-5.746-4.237,13.1,13.1,0,0,0-3.6-1.731,14.1,14.1,0,0,0-2.31-.315l-2.621-.214a2.155,2.155,0,0,0-.69.021,1.492,1.492,0,0,0-.883,1.783,4.368,4.368,0,0,0,1.165,1.842c.117,5.365-2.26,10.656-2.582,16.012-.562,9.348,5.136,18.079,5.591,27.452a2.949,2.949,0,0,1-.13,1.256c-.076.2-.189.371-.276.562a5.507,5.507,0,0,0-.309,1.9,9.687,9.687,0,0,1-2.841,6.1,4.255,4.255,0,0,0,1.6,1.225,28.654,28.654,0,0,0,3.588.858c3.051.894,6.178,1.793,9.35,1.6a8.3,8.3,0,0,0,.721-2.726c.449-.28.968.319,1.035.846s-.031,1.138.346,1.519a1.421,1.421,0,0,0,1.311.264,58.067,58.067,0,0,0,5.7-1.34,10.584,10.584,0,0,1,5.775-.021,1.552,1.552,0,0,0-.091-1.7,7.7,7.7,0,0,1-.908-1.556,3.479,3.479,0,0,1-.109-1.021c0-2.96.607-5.952.031-8.856-.171-.852-.438-1.684-.611-2.538a21.9,21.9,0,0,1-.249-5.062c.045-1.694-.159-3.526-.194-5.243a16.633,16.633,0,0,0-.138-2.122c-.117-.737-.344-1.458-.408-2.2-.185-1.89.574-3.767.459-5.663C206.985,417.263,203.648,415.7,202.528,413.042Z" transform="translate(43.395 129.706)" fill="#f1780f"/>
    <path id="Path_2905" data-name="Path 2905" d="M185.8,404.139c-2.444,6.5-3.638,13.4-4.832,20.251l-2.763,16.086a78.241,78.241,0,0,0-1.54,13.733,14.685,14.685,0,0,1-.255,3.864,20.865,20.865,0,0,1-2.37,4.5,14.849,14.849,0,0,0-1.589,10.017c.284,1.437,1.056,3.067,2.51,3.234,1.194.132,2.227-.821,2.923-1.805a23.247,23.247,0,0,0,3.107-7.654,173.633,173.633,0,0,0,4.788-26.695,25.779,25.779,0,0,1,.48-3.393,24.1,24.1,0,0,1,1.167-3.38q1.584-3.94,3.172-7.881a125.92,125.92,0,0,1,8.245-17.785c-3.312-.955-6.761-2.077-10.075-3.022A9.076,9.076,0,0,0,185.8,404.139Z" transform="translate(37.35 137.25)" fill="#f1aaab"/>
    <path id="Path_2906" data-name="Path 2906" d="M185.872,410.444a37.862,37.862,0,0,0-7.088-.406,1.525,1.525,0,0,1-.951-.249c-.48-.412-.276-1.184-.035-1.77l1.147-2.769a4.021,4.021,0,0,1,.918-1.532,3.9,3.9,0,0,1,2.178-.741,19.694,19.694,0,0,1,7.545.294,9.036,9.036,0,0,1,5.826,4.529,3.085,3.085,0,0,1,.062,3.03c-.9,1.293-2.909,2.736-4.41,2.03C189.265,412.014,187.887,410.882,185.872,410.444Z" transform="translate(43.024 135.878)" fill="#f3811c"/>
    <path id="Path_2907" data-name="Path 2907" d="M203.9,387.478a10.173,10.173,0,0,0-5.62,1.624,12.313,12.313,0,0,0-12.115-2.847,7.066,7.066,0,0,0-4.823-5.526,7.037,7.037,0,0,0-7.113,1.746,7.075,7.075,0,0,0,3.784,11.969,12.344,12.344,0,1,0,23.669,6.958,11.1,11.1,0,0,0,2.213.224c4.867,0,8.815-3.168,8.815-7.074S208.759,387.478,203.9,387.478Z" transform="translate(37.331 112.211)" fill="#2f3045"/>
    <path id="Path_2908" data-name="Path 2908" d="M190.4,390.42a10.67,10.67,0,0,1-2.213-.227,12.311,12.311,0,0,1-1.616,3.564,11.124,11.124,0,0,0,2.071.2c4.55,0,8.286-2.771,8.766-6.316A9.711,9.711,0,0,1,190.4,390.42Z" transform="translate(52.585 119.879)" opacity="0.1"/>
    <path id="Path_2909" data-name="Path 2909" d="M191.553,405.769a12.4,12.4,0,0,1-11.8-16.027,7.085,7.085,0,0,1-5.717-8.235,7.076,7.076,0,0,0,3.957,11.774,12.343,12.343,0,0,0,23.572,7.335,12.308,12.308,0,0,1-10.013,5.153Z" transform="translate(37.329 113.384)" opacity="0.1"/>
  </g>
</svg>
