<svg xmlns="http://www.w3.org/2000/svg" width="24" height="24" viewBox="0 0 24 24">
  <g id="Group_1318" data-name="Group 1318" transform="translate(-907 -9001)">
    <rect id="Rectangle_1826" data-name="Rectangle 1826" width="24" height="24" transform="translate(907 9001)" fill="none"/>
    <path id="Path_2525" data-name="Path 2525" d="M11.874,2.111a36.408,36.408,0,0,1,4.75.132,6.119,6.119,0,0,1,2.243.4,4.633,4.633,0,0,1,2.243,2.243,6.119,6.119,0,0,1,.4,2.243c0,1.187.132,1.583.132,4.75a36.408,36.408,0,0,1-.132,4.75,6.119,6.119,0,0,1-.4,2.243,4.633,4.633,0,0,1-2.243,2.243,6.119,6.119,0,0,1-2.243.4c-1.187,0-1.583.132-4.75.132a36.408,36.408,0,0,1-4.75-.132,6.119,6.119,0,0,1-2.243-.4,4.633,4.633,0,0,1-2.243-2.243,6.119,6.119,0,0,1-.4-2.243c0-1.187-.132-1.583-.132-4.75a36.408,36.408,0,0,1,.132-4.75,6.119,6.119,0,0,1,.4-2.243,4.738,4.738,0,0,1,.924-1.319,2.231,2.231,0,0,1,1.319-.924,6.119,6.119,0,0,1,2.243-.4,36.408,36.408,0,0,1,4.75-.132m0-2.111A38.983,38.983,0,0,0,6.992.132,8.145,8.145,0,0,0,4.09.66,5.165,5.165,0,0,0,1.979,1.979,5.165,5.165,0,0,0,.66,4.09a6.011,6.011,0,0,0-.528,2.9A38.983,38.983,0,0,0,0,11.874a38.983,38.983,0,0,0,.132,4.882,8.145,8.145,0,0,0,.528,2.9,5.165,5.165,0,0,0,1.319,2.111A5.165,5.165,0,0,0,4.09,23.088a8.145,8.145,0,0,0,2.9.528,38.982,38.982,0,0,0,4.882.132,38.982,38.982,0,0,0,4.882-.132,8.145,8.145,0,0,0,2.9-.528,5.535,5.535,0,0,0,3.43-3.43,8.145,8.145,0,0,0,.528-2.9c0-1.319.132-1.715.132-4.882a38.982,38.982,0,0,0-.132-4.882,8.145,8.145,0,0,0-.528-2.9,5.165,5.165,0,0,0-1.319-2.111A5.165,5.165,0,0,0,19.658.66a8.145,8.145,0,0,0-2.9-.528A38.983,38.983,0,0,0,11.874,0m0,5.805a5.971,5.971,0,0,0-6.069,6.069,6.069,6.069,0,1,0,6.069-6.069m0,10.027a3.887,3.887,0,0,1-3.958-3.958,3.887,3.887,0,0,1,3.958-3.958,3.887,3.887,0,0,1,3.958,3.958,3.887,3.887,0,0,1-3.958,3.958M18.207,4.09a1.451,1.451,0,1,0,1.451,1.451A1.464,1.464,0,0,0,18.207,4.09" transform="translate(907.252 9001.252)" fill="#fff" fill-rule="evenodd"/>
  </g>
</svg>
