<svg xmlns="http://www.w3.org/2000/svg" xmlns:xlink="http://www.w3.org/1999/xlink" width="210.26" height="56.783" viewBox="0 0 210.26 56.783">
  <defs>
    <linearGradient id="linear-gradient" x1="0.539" y1="1.077" x2="0.479" y2="0.05" gradientUnits="objectBoundingBox">
      <stop offset="0" stop-color="#f60"/>
      <stop offset="1" stop-color="#f79d2b"/>
    </linearGradient>
    <linearGradient id="linear-gradient-2" y1="0.5" x2="1" y2="0.5" gradientUnits="objectBoundingBox">
      <stop offset="0" stop-color="#eb1c24"/>
      <stop offset="1" stop-color="red"/>
    </linearGradient>
    <linearGradient id="linear-gradient-3" x1="0.503" y1="1.002" x2="0.493" y2="-0.116" gradientUnits="objectBoundingBox">
      <stop offset="0" stop-color="#1081c5"/>
      <stop offset="1" stop-color="#0cf"/>
    </linearGradient>
    <clipPath id="clip-path">
      <path id="Path_2513" data-name="Path 2513" d="M256.813,222.411v12.795h3.517a5.047,5.047,0,0,0,1.9-.348,3.355,3.355,0,0,0,1.37-1.028,5.494,5.494,0,0,0,.947-1.934,13.208,13.208,0,0,0,0-6.174,5.5,5.5,0,0,0-.947-1.934,3.356,3.356,0,0,0-1.37-1.028,5.046,5.046,0,0,0-1.9-.348Zm-24.375,4.78h8.027a10.229,10.229,0,0,0-.353-2.177,6.835,6.835,0,0,0-.962-2.112,3.474,3.474,0,0,0-1.255-1.109,3.232,3.232,0,0,0-1.449-.359,3.527,3.527,0,0,0-1.547.342,3.129,3.129,0,0,0-1.185,1.055,6.828,6.828,0,0,0-.914,2.092A11.719,11.719,0,0,0,232.438,227.191Zm-27.85-11.621v6.93H210.6c2.42,0,4.229-.728,4.229-3.661a2.927,2.927,0,0,0-.94-2.373,5.19,5.19,0,0,0-3.29-.9Zm0,11.923v7.516h7.082a5.641,5.641,0,0,0,3.535-.966,3.28,3.28,0,0,0,1.05-2.693,3.575,3.575,0,0,0-1.056-2.875,5.565,5.565,0,0,0-3.529-.982Zm52.225-9.88h3.517a14.393,14.393,0,0,1,4.759.752,10.574,10.574,0,0,1,3.764,2.23,10,10,0,0,1,2.442,3.569,13.135,13.135,0,0,1,0,9.288,10,10,0,0,1-2.442,3.569,10.559,10.559,0,0,1-3.764,2.229,14.375,14.375,0,0,1-4.759.753H249.944V210.577h6.869Zm-24.107,14.376a5.286,5.286,0,0,0,1.489,2.812,5.156,5.156,0,0,0,3.5,1.185,7.189,7.189,0,0,0,2.913-.59,11.784,11.784,0,0,0,2.758-1.742l.8-.66,2.431,4-.607.6a9.515,9.515,0,0,1-1.761,1.348,11.668,11.668,0,0,1-2.125,1,15.533,15.533,0,0,1-2.322.62,13.123,13.123,0,0,1-2.44.23,14.919,14.919,0,0,1-4.9-.771,10.628,10.628,0,0,1-3.879-2.315,10.427,10.427,0,0,1-2.511-3.79,13.872,13.872,0,0,1-.88-5.1,14.454,14.454,0,0,1,.837-5.062,10.644,10.644,0,0,1,2.372-3.808,10.05,10.05,0,0,1,3.589-2.326,12.465,12.465,0,0,1,4.481-.78,12.327,12.327,0,0,1,4.33.758,10.262,10.262,0,0,1,3.6,2.256,11,11,0,0,1,2.437,3.6,12.065,12.065,0,0,1,.909,4.777v3.767Zm-13.143-7.478a7.7,7.7,0,0,1,2.315,1.76,7.4,7.4,0,0,1,1.782,5.079,7.723,7.723,0,0,1-3.053,6.413c-2.429,1.877-6.054,2.241-8.936,2.241H197.54V210.577H210.6a19.723,19.723,0,0,1,4.978.556,10.838,10.838,0,0,1,3.634,1.628,7.113,7.113,0,0,1,2.272,2.665,7.771,7.771,0,0,1,.75,3.414,7.2,7.2,0,0,1-1.264,4.225A6.383,6.383,0,0,1,219.563,224.511Zm-32.026,14.711h-3.672c-2.684,0-5.892-.4-8.1-2.219a8.421,8.421,0,0,1-2.818-6.825V217.613h6.87v12.564a4.637,4.637,0,0,0,.963,3.27,4.412,4.412,0,0,0,3.089.977h3.694v-16.81h6.87v20.969a9.573,9.573,0,0,1-.73,3.779,8.1,8.1,0,0,1-2.177,2.973,9.619,9.619,0,0,1-3.5,1.864,16.042,16.042,0,0,1-4.692.624,14.122,14.122,0,0,1-1.955-.146,14.571,14.571,0,0,1-2.1-.456,14.037,14.037,0,0,1-2.074-.793,11.122,11.122,0,0,1-1.885-1.13l-.768-.575,2.466-4.059.784.582a9.337,9.337,0,0,0,2.471,1.3,8.131,8.131,0,0,0,2.706.477,5.078,5.078,0,0,0,3.492-1.082A4.022,4.022,0,0,0,187.537,239.222Zm-35.756-6.3,8.83-22.345h9.221V240h-7.049V221.189L155.431,240h-7.3l-7.353-18.815V240H133.73V210.577h9.222Z" transform="translate(-133.73 -210.577)" fill="#1081c5" clip-rule="evenodd"/>
    </clipPath>
  </defs>
  <g id="Group_1335" data-name="Group 1335" transform="translate(-140 -23)">
    <g id="Group_1305" data-name="Group 1305" transform="translate(140 23)">
      <path id="Path_2508" data-name="Path 2508" d="M99.377,209.619c-9.032.443-12.447,8.873-18.354-12.5a.755.755,0,0,0-.107-.23l-.479-.055a12.265,12.265,0,0,0-8.214,1.7l-.1.065c4.285,8.257,4.765,19.551,13.916,22.268,3.514.889,12.974-3.55,15.477-2.63a1.989,1.989,0,0,0,.428.04c1.325-2.683,1.242-5.334-.848-7.657l-.894-.993a3.112,3.112,0,0,0-.827-.011" transform="translate(-47.231 -191.797)" fill-rule="evenodd" fill="url(#linear-gradient)"/>
      <path id="Path_2509" data-name="Path 2509" d="M73.745,193.979c-17.516-2.027-21.187,23.428-16.756,39.4a1.515,1.515,0,0,0,.136.287,19.651,19.651,0,0,1-6.777-1.683,11.54,11.54,0,0,1-6.272-7.147,29.577,29.577,0,0,1,2.64-20.16c5.5-10.516,21.4-19.851,27.028-10.7" transform="translate(-40.387 -190.257)" fill-rule="evenodd" fill="url(#linear-gradient-2)"/>
      <path id="Path_2510" data-name="Path 2510" d="M94.316,213.8c12.455,13.843-34.2,36.331-49.014,22.621,1.047,2.6-2.578,11.676-5.839,16.222,2.918-.834,12.319-5.241,18.494-3.512A29.474,29.474,0,0,0,87.6,247.237c11.374-6.28,18.11-30.648,6.716-33.442" transform="translate(-39.463 -195.855)" fill-rule="evenodd" fill="url(#linear-gradient-3)"/>
    </g>
    <path id="Path_2511" data-name="Path 2511" d="M288.01,256.388a1.458,1.458,0,0,1,1.343-1.633,3.768,3.768,0,0,1,1.314.242l-.382.06V257.9a3.843,3.843,0,0,1-.932.12C288.558,258.022,288.021,257.321,288.01,256.388Zm-.993,0c.012,1.4.748,2.482,2.1,2.482.539,0,1.355-.1,2.066-.109h.07a4.792,4.792,0,0,1-.036-.654V252.25a6.324,6.324,0,0,1,.036-.666,2.11,2.11,0,0,0-.5-.061,2.191,2.191,0,0,0-.5.061c.009.037.032.423.032.666v1.765c-.429-.048-.84-.107-1.167-.107C287.765,253.907,287.017,254.985,287.017,256.388ZM282,258.107a6.139,6.139,0,0,1-.035.665,2.111,2.111,0,0,0,1,0,6.334,6.334,0,0,1-.035-.665v-3.056c-.107-.026-.214-.053-.321-.077a3.8,3.8,0,0,1,1.255-.22,1.3,1.3,0,0,1,1.4,1.489v1.863a5.842,5.842,0,0,1-.036.665,2.112,2.112,0,0,0,1,0,6.363,6.363,0,0,1-.035-.665v-2.2a1.938,1.938,0,0,0-2.1-2c-.538,0-1.344.1-2.06.109h-.076a5.311,5.311,0,0,1,.035.654Zm-4.712-2.273a1.374,1.374,0,0,1,2.726.142l-3.107.076Zm-1.007.549a2.283,2.283,0,0,0,2.241,2.487,5.636,5.636,0,0,0,2.035-.38l-.164-.552c-.06-.207-.123-.3-.229-.3a.331.331,0,0,0-.132.033,3.667,3.667,0,0,1-1.313.379,1.579,1.579,0,0,1-1.475-1.334l3.27.025.422-.343v-.012a2.333,2.333,0,1,0-4.657,0Zm-1.016-2.366a1.864,1.864,0,0,0-.5-.072,2.064,2.064,0,0,0-.5.072,5.831,5.831,0,0,1,.036.654v3.17c0,.69.3,1.029.758,1.029a.7.7,0,0,0,.444-.195,1.714,1.714,0,0,1-.269-1v-3A6.1,6.1,0,0,1,275.263,254.016Zm-.513-1.234a1.42,1.42,0,0,0,.432-.061,1.754,1.754,0,0,0,0-.9,1.589,1.589,0,0,0-.863,0,1.73,1.73,0,0,0,0,.9A1.413,1.413,0,0,0,274.75,252.783Zm-4.074,5.324a6.068,6.068,0,0,1-.036.665,2.073,2.073,0,0,0,.5.061,2.142,2.142,0,0,0,.5-.061c-.01-.036-.033-.423-.033-.665v-2.866l-.253-.144a3.6,3.6,0,0,1,1.128-.161,1.508,1.508,0,0,1,.794.242l.023-.022v-1.188h-.584c-.555,0-1.318.107-2.044.108h-.034a5.342,5.342,0,0,1,.036.654Zm-4.05,0a6.36,6.36,0,0,1-.035.665,2.108,2.108,0,0,0,1,0,6.331,6.331,0,0,1-.035-.665v-2.989L267,254.91l2.424.147v-.968H267.56v-.362c0-.908.245-1.392.922-1.392a2.953,2.953,0,0,1,1.2.327l.269-.932a5.266,5.266,0,0,0-1.67-.243c-1.155,0-1.657.8-1.657,2.3Zm-8.87,0a5.818,5.818,0,0,1-.036.665,2.112,2.112,0,0,0,1,0,6.06,6.06,0,0,1-.036-.665v-3.056c-.107-.026-.213-.053-.321-.077a3.8,3.8,0,0,1,1.255-.22,1.3,1.3,0,0,1,1.4,1.489v1.863a6.145,6.145,0,0,1-.035.665,2.111,2.111,0,0,0,1,0,6.073,6.073,0,0,1-.036-.665v-2.2a1.937,1.937,0,0,0-2.1-2c-.539,0-1.345.1-2.061.109h-.076a5.214,5.214,0,0,1,.036.654Zm-4.494-.63c0-.392.282-.725.852-.725h2l-.463.193v.932a9.945,9.945,0,0,1-1.517.145C253.567,258.022,253.262,257.832,253.262,257.477Zm-.993,0c0,.944.572,1.393,1.635,1.393.538,0,1.879-.109,2.638-.109h.082a5.484,5.484,0,0,1-.035-.654v-2.2c-.011-1.4-.828-2-2.183-2a6.027,6.027,0,0,0-1.79.283l.263.93a3.642,3.642,0,0,1,1.328-.365c.794,0,1.447.244,1.447,1.174v.109L253.9,256C252.841,256,252.269,256.493,252.269,257.477Zm-5.019.63a6.134,6.134,0,0,1-.035.665,2.111,2.111,0,0,0,1,0,6.078,6.078,0,0,1-.035-.665v-3.044c-.111-.028-.22-.059-.329-.086a3.8,3.8,0,0,1,1.263-.222,1.3,1.3,0,0,1,1.4,1.489v1.863a6.052,6.052,0,0,1-.036.665,2.112,2.112,0,0,0,1,0,6.345,6.345,0,0,1-.035-.665v-2.2a1.938,1.938,0,0,0-2.1-2c-.326,0-.738.059-1.167.107V252.25a5.817,5.817,0,0,1,.035-.654,1.772,1.772,0,0,0-1,0,5.871,5.871,0,0,1,.035.654Zm-4.2-1.537c0,1.494.5,2.3,1.424,2.3a5.4,5.4,0,0,0,1.674-.246l-.263-.93a3.066,3.066,0,0,1-1.212.329c-.447,0-.689-.365-.689-1.27v-1.74l-.409-.205,2.274.069.006-.969-1.872.077v-1.348a6.6,6.6,0,0,1,.035-.665c-.1,0-.949.224-1,.242a6.138,6.138,0,0,1,.035.665v1.142l-.49.019v.739l.49.014Zm-8.33-.736a1.374,1.374,0,0,1,2.725.142l-3.107.076Zm-1.008.549a2.282,2.282,0,0,0,2.241,2.487,5.62,5.62,0,0,0,2.034-.38l-.163-.552c-.06-.207-.123-.3-.23-.3a.321.321,0,0,0-.129.033,3.671,3.671,0,0,1-1.313.379,1.58,1.58,0,0,1-1.476-1.334l3.271.025.422-.343v-.012a2.333,2.333,0,1,0-4.657,0Zm-3.268,1.725a6.052,6.052,0,0,1-.036.665,2.065,2.065,0,0,0,.5.061,2.143,2.143,0,0,0,.5-.061c-.01-.036-.033-.423-.033-.665v-2.866l-.254-.144a3.609,3.609,0,0,1,1.129-.161,1.508,1.508,0,0,1,.794.242l.023-.022v-1.188h-.583c-.555,0-1.317.107-2.045.108h-.033a5.5,5.5,0,0,1,.036.654Zm-5.72-1.719a2.339,2.339,0,1,0,2.334-2.481A2.278,2.278,0,0,0,224.722,256.388Zm.992,0c0-.98.537-1.633,1.342-1.633s1.343.653,1.343,1.633-.537,1.634-1.343,1.634S225.715,257.369,225.715,256.388Zm-8.229,1.719a6.133,6.133,0,0,1-.035.665,2.108,2.108,0,0,0,1,0,6.133,6.133,0,0,1-.035-.665v-3.019c-.107-.026-.212-.075-.32-.1a3.386,3.386,0,0,1,1.02-.111h1.049v3.231a6.353,6.353,0,0,1-.035.665,2.108,2.108,0,0,0,1,0,6.334,6.334,0,0,1-.035-.665v-3.019c-.107-.026-.212-.075-.319-.1a2.792,2.792,0,0,1,.786-.111,1.242,1.242,0,0,1,1.4,1.368v1.863a6.36,6.36,0,0,1-.035.665,2.108,2.108,0,0,0,1,0,6.346,6.346,0,0,1-.035-.665v-2.2a1.911,1.911,0,0,0-2.1-1.936h-2.451c-.426,0-1.117.046-1.823.048h-.08s.035.416.035.654Z" transform="translate(58.206 -181.82)" fill="#4d4d4d"/>
    <g id="Group_1307" data-name="Group 1307" transform="translate(211.848 38.487)">
      <path id="Path_2512" data-name="Path 2512" d="M256.813,222.411v12.795h3.517a5.047,5.047,0,0,0,1.9-.348,3.355,3.355,0,0,0,1.37-1.028,5.494,5.494,0,0,0,.947-1.934,13.208,13.208,0,0,0,0-6.174,5.5,5.5,0,0,0-.947-1.934,3.356,3.356,0,0,0-1.37-1.028,5.046,5.046,0,0,0-1.9-.348Zm-24.375,4.78h8.027a10.229,10.229,0,0,0-.353-2.177,6.835,6.835,0,0,0-.962-2.112,3.474,3.474,0,0,0-1.255-1.109,3.232,3.232,0,0,0-1.449-.359,3.527,3.527,0,0,0-1.547.342,3.129,3.129,0,0,0-1.185,1.055,6.828,6.828,0,0,0-.914,2.092A11.719,11.719,0,0,0,232.438,227.191Zm-27.85-11.621v6.93H210.6c2.42,0,4.229-.728,4.229-3.661a2.927,2.927,0,0,0-.94-2.373,5.19,5.19,0,0,0-3.29-.9Zm0,11.923v7.516h7.082a5.641,5.641,0,0,0,3.535-.966,3.28,3.28,0,0,0,1.05-2.693,3.575,3.575,0,0,0-1.056-2.875,5.565,5.565,0,0,0-3.529-.982Zm52.225-9.88h3.517a14.393,14.393,0,0,1,4.759.752,10.574,10.574,0,0,1,3.764,2.23,10,10,0,0,1,2.442,3.569,13.135,13.135,0,0,1,0,9.288,10,10,0,0,1-2.442,3.569,10.559,10.559,0,0,1-3.764,2.229,14.375,14.375,0,0,1-4.759.753H249.944V210.577h6.869Zm-24.107,14.376a5.286,5.286,0,0,0,1.489,2.812,5.156,5.156,0,0,0,3.5,1.185,7.189,7.189,0,0,0,2.913-.59,11.784,11.784,0,0,0,2.758-1.742l.8-.66,2.431,4-.607.6a9.515,9.515,0,0,1-1.761,1.348,11.668,11.668,0,0,1-2.125,1,15.533,15.533,0,0,1-2.322.62,13.123,13.123,0,0,1-2.44.23,14.919,14.919,0,0,1-4.9-.771,10.628,10.628,0,0,1-3.879-2.315,10.427,10.427,0,0,1-2.511-3.79,13.872,13.872,0,0,1-.88-5.1,14.454,14.454,0,0,1,.837-5.062,10.644,10.644,0,0,1,2.372-3.808,10.05,10.05,0,0,1,3.589-2.326,12.465,12.465,0,0,1,4.481-.78,12.327,12.327,0,0,1,4.33.758,10.262,10.262,0,0,1,3.6,2.256,11,11,0,0,1,2.437,3.6,12.065,12.065,0,0,1,.909,4.777v3.767Zm-13.143-7.478a7.7,7.7,0,0,1,2.315,1.76,7.4,7.4,0,0,1,1.782,5.079,7.723,7.723,0,0,1-3.053,6.413c-2.429,1.877-6.054,2.241-8.936,2.241H197.54V210.577H210.6a19.723,19.723,0,0,1,4.978.556,10.838,10.838,0,0,1,3.634,1.628,7.113,7.113,0,0,1,2.272,2.665,7.771,7.771,0,0,1,.75,3.414,7.2,7.2,0,0,1-1.264,4.225A6.383,6.383,0,0,1,219.563,224.511Zm-32.026,14.711h-3.672c-2.684,0-5.892-.4-8.1-2.219a8.421,8.421,0,0,1-2.818-6.825V217.613h6.87v12.564a4.637,4.637,0,0,0,.963,3.27,4.412,4.412,0,0,0,3.089.977h3.694v-16.81h6.87v20.969a9.573,9.573,0,0,1-.73,3.779,8.1,8.1,0,0,1-2.177,2.973,9.619,9.619,0,0,1-3.5,1.864,16.042,16.042,0,0,1-4.692.624,14.122,14.122,0,0,1-1.955-.146,14.571,14.571,0,0,1-2.1-.456,14.037,14.037,0,0,1-2.074-.793,11.122,11.122,0,0,1-1.885-1.13l-.768-.575,2.466-4.059.784.582a9.337,9.337,0,0,0,2.471,1.3,8.131,8.131,0,0,0,2.706.477,5.078,5.078,0,0,0,3.492-1.082A4.022,4.022,0,0,0,187.537,239.222Zm-35.756-6.3,8.83-22.345h9.221V240h-7.049V221.189L155.431,240h-7.3l-7.353-18.815V240H133.73V210.577h9.222Z" transform="translate(-133.73 -210.577)" fill="#1081c5" fill-rule="evenodd"/>
      <g id="Group_1306" data-name="Group 1306" transform="translate(0 0)" clip-path="url(#clip-path)">
        <rect id="Rectangle_1823" data-name="Rectangle 1823" width="138.412" height="37.245" transform="translate(0 0)" fill="#1081c5"/>
      </g>
    </g>
  </g>
</svg>
