<svg xmlns="http://www.w3.org/2000/svg" width="20" height="20" viewBox="0 0 20 20">
  <g id="Group_1313" data-name="Group 1313" transform="translate(524 -4560)">
    <rect id="Rectangle_1825" data-name="Rectangle 1825" width="20" height="20" transform="translate(-524 4560)" fill="none"/>
    <path id="Path_2520" data-name="Path 2520" d="M133.786,221.961a1.218,1.218,0,0,0-1.214,1.214v4.857a1.214,1.214,0,1,0,2.429,0v-4.857a1.218,1.218,0,0,0-1.214-1.214Zm-14.571,0A1.218,1.218,0,0,0,118,223.176v4.857a1.214,1.214,0,1,0,2.429,0v-4.857a1.218,1.218,0,0,0-1.214-1.214Zm1.821,7.893a1.821,1.821,0,0,0,1.821,1.822h.607V234.1a1.214,1.214,0,1,0,2.429,0v-2.429h1.214V234.1a1.214,1.214,0,1,0,2.428,0v-2.429h.607a1.821,1.821,0,0,0,1.821-1.822v-6.678H121.036Zm7.715-12.266.768-1.476a.152.152,0,0,0-.269-.14l-.78,1.5a5.482,5.482,0,0,0-3.939,0l-.78-1.5a.152.152,0,1,0-.269.14l.768,1.476a5.469,5.469,0,0,0-3.18,4.373H131.93a5.469,5.469,0,0,0-3.18-4.373Zm-4.679,3.432a.88.88,0,1,1,.88-.88.88.88,0,0,1-.88.88Zm4.857,0a.88.88,0,1,1,.881-.88.88.88,0,0,1-.881.88Zm0,0" transform="translate(-641 4344.11)" fill="#fff"/>
  </g>
</svg>
