<svg id="Group_1468" data-name="Group 1468" xmlns="http://www.w3.org/2000/svg" width="360" height="172.748" viewBox="0 0 360 172.748">
  <g id="Group_939" data-name="Group 939" transform="translate(143.182 49.555)">
    <circle id="Ellipse_241" data-name="Ellipse 241" cx="36.819" cy="36.819" r="36.819" fill="#ed1c24"/>
    <text id="Kamu" transform="translate(23.18 54.359)" fill="#fff" font-size="9" font-family="SegoeUI, Segoe UI"><tspan x="0" y="0">Kamu</tspan></text>
  </g>
  <g id="Group_942" data-name="Group 942">
    <g id="Group_940" data-name="Group 940">
      <path id="Path_1132" data-name="Path 1132" d="M-687.741,316.715h-59.073A12.633,12.633,0,0,1-755.776,313a12.633,12.633,0,0,1-3.714-8.961,12.674,12.674,0,0,1,12.676-12.669h58.91a21.852,21.852,0,0,0-3.94,12.556A21.885,21.885,0,0,0-687.741,316.715Z" transform="translate(797.196 -283.962)" fill="#27b0e3"/>
      <text id="Saudara" transform="translate(57.431 21.505)" fill="#fff" font-size="9" font-family="SegoeUI, Segoe UI"><tspan x="0" y="0">Saudara</tspan></text>
      <circle id="Ellipse_242" data-name="Ellipse 242" cx="19.962" cy="19.962" r="19.962" transform="translate(107.363)" fill="#ed1c24"/>
      <path id="Path_1133" data-name="Path 1133" d="M-735.179,387.165h-71.635a12.633,12.633,0,0,1-8.961-3.714,12.607,12.607,0,0,1-3.714-8.955,12.675,12.675,0,0,1,12.676-12.676h71.472a21.864,21.864,0,0,0-3.934,12.556A21.88,21.88,0,0,0-735.179,387.165Z" transform="translate(819.49 -310.139)" fill="#27b0e3"/>
      <text id="Alumni_SMP" data-name="Alumni SMP" transform="translate(19.765 65.779)" fill="#fff" font-size="9" font-family="SegoeUI, Segoe UI"><tspan x="0" y="0">Alumni SMP</tspan></text>
      <circle id="Ellipse_243" data-name="Ellipse 243" cx="19.962" cy="19.962" r="19.962" transform="translate(82.225 44.275)" fill="#ed1c24"/>
      <path id="Path_1134" data-name="Path 1134" d="M-735.173,457.615h-71.642a12.654,12.654,0,0,1-8.961-3.708,12.633,12.633,0,0,1-3.714-8.961,12.675,12.675,0,0,1,12.676-12.676h71.478a21.868,21.868,0,0,0-3.94,12.556A21.886,21.886,0,0,0-735.173,457.615Z" transform="translate(819.49 -336.316)" fill="#27b0e3"/>
      <text id="Alumni_SMA" data-name="Alumni SMA" transform="translate(14.55 110.054)" fill="#fff" font-size="9" font-family="SegoeUI, Segoe UI"><tspan x="0" y="0">Alumni SMA</tspan></text>
      <circle id="Ellipse_244" data-name="Ellipse 244" cx="19.962" cy="19.962" r="19.962" transform="translate(82.225 88.549)" fill="#ed1c24"/>
      <path id="Path_1135" data-name="Path 1135" d="M-687.741,528.071h-59.073a12.633,12.633,0,0,1-8.961-3.714,12.634,12.634,0,0,1-3.714-8.961,12.675,12.675,0,0,1,12.676-12.676h58.91a21.869,21.869,0,0,0-3.94,12.556A21.89,21.89,0,0,0-687.741,528.071Z" transform="translate(797.196 -362.492)" fill="#27b0e3"/>
      <text id="Tetangga" transform="translate(53.131 154.329)" fill="#fff" font-size="9" font-family="SegoeUI, Segoe UI"><tspan x="0" y="0">Tetangga</tspan></text>
      <circle id="Ellipse_245" data-name="Ellipse 245" cx="19.962" cy="19.962" r="19.962" transform="translate(107.363 132.824)" fill="#ed1c24"/>
      <text id="_4_" data-name="4+" transform="translate(118.579 21.471)" fill="#fff200" font-size="13" font-family="SegoeUIBlack, Segoe UI"><tspan x="0" y="0">4+</tspan></text>
      <text id="_10_" data-name="10+" transform="translate(88.893 67.362)" fill="#fff200" font-size="13" font-family="SegoeUIBlack, Segoe UI"><tspan x="0" y="0">10+</tspan></text>
      <text id="_10_2" data-name="10+" transform="translate(88.893 110.02)" fill="#fff200" font-size="13" font-family="SegoeUIBlack, Segoe UI"><tspan x="0" y="0">10+</tspan></text>
      <text id="_8_" data-name="8+" transform="translate(118.579 154.295)" fill="#fff200" font-size="13" font-family="SegoeUIBlack, Segoe UI"><tspan x="0" y="0">8+</tspan></text>
    </g>
    <g id="Group_941" data-name="Group 941" transform="translate(212.715)">
      <path id="Path_1136" data-name="Path 1136" d="M-349.061,304.039A12.633,12.633,0,0,1-352.775,313a12.633,12.633,0,0,1-8.962,3.714H-420.81a21.885,21.885,0,0,0,4.1-12.789,21.852,21.852,0,0,0-3.94-12.556h58.91A12.674,12.674,0,0,1-349.061,304.039Z" transform="translate(458.641 -283.962)" fill="#27b0e3"/>
      <text id="Orang_Tua" data-name="Orang Tua" transform="translate(49.865 21.505)" fill="#fff" font-size="9" font-family="SegoeUI, Segoe UI"><tspan x="0" y="0">Orang Tua</tspan></text>
      <circle id="Ellipse_246" data-name="Ellipse 246" cx="19.962" cy="19.962" r="19.962" fill="#ed1c24"/>
      <text id="_4_2" data-name="4+" transform="translate(11.217 21.471)" fill="#fff200" font-size="13" font-family="SegoeUIBlack, Segoe UI"><tspan x="0" y="0">4+</tspan></text>
      <path id="Path_1137" data-name="Path 1137" d="M-296.489,374.5a12.608,12.608,0,0,1-3.714,8.955,12.633,12.633,0,0,1-8.961,3.714H-380.8a21.88,21.88,0,0,0,4.1-12.789,21.863,21.863,0,0,0-3.934-12.556h71.472A12.675,12.675,0,0,1-296.489,374.5Z" transform="translate(443.774 -310.139)" fill="#27b0e3"/>
      <text id="Keluarga" transform="translate(78.55 65.779)" fill="#fff" font-size="9" font-family="SegoeUI, Segoe UI"><tspan x="0" y="0">Keluarga</tspan></text>
      <circle id="Ellipse_247" data-name="Ellipse 247" cx="19.962" cy="19.962" r="19.962" transform="translate(25.137 44.275)" fill="#ed1c24"/>
      <path id="Path_1138" data-name="Path 1138" d="M-296.493,444.946a12.634,12.634,0,0,1-3.714,8.961,12.654,12.654,0,0,1-8.962,3.708H-380.81a21.886,21.886,0,0,0,4.1-12.789,21.869,21.869,0,0,0-3.94-12.556h71.478A12.675,12.675,0,0,1-296.493,444.946Z" transform="translate(443.778 -336.316)" fill="#27b0e3"/>
      <text id="Partner" transform="translate(81.768 109.054)" fill="#fff" font-size="8" font-family="SegoeUI, Segoe UI"><tspan x="0" y="0">Partner</tspan></text>
      <circle id="Ellipse_248" data-name="Ellipse 248" cx="19.962" cy="19.962" r="19.962" transform="translate(25.137 88.549)" fill="#ed1c24"/>
      <path id="Path_1139" data-name="Path 1139" d="M-349.061,515.4a12.634,12.634,0,0,1-3.714,8.961,12.633,12.633,0,0,1-8.962,3.714H-420.81a21.89,21.89,0,0,0,4.1-12.795,21.869,21.869,0,0,0-3.94-12.556h58.91A12.675,12.675,0,0,1-349.061,515.4Z" transform="translate(458.641 -362.492)" fill="#27b0e3"/>
      <text id="Teman_" data-name="Teman " transform="translate(53.145 154.329)" fill="#fff" font-size="9" font-family="SegoeUI, Segoe UI"><tspan x="0" y="0">Teman </tspan></text>
      <circle id="Ellipse_249" data-name="Ellipse 249" cx="19.962" cy="19.962" r="19.962" transform="translate(0 132.824)" fill="#ed1c24"/>
      <text id="_10_3" data-name="10+" transform="translate(31.805 65.745)" fill="#fff200" font-size="13" font-family="SegoeUIBlack, Segoe UI"><tspan x="0" y="0">10+</tspan></text>
      <text id="_10_4" data-name="10+" transform="translate(31.805 110.02)" fill="#fff200" font-size="13" font-family="SegoeUIBlack, Segoe UI"><tspan x="0" y="0">10+</tspan></text>
      <text id="_8_2" data-name="8+" transform="translate(11.217 154.295)" fill="#fff200" font-size="13" font-family="SegoeUIBlack, Segoe UI"><tspan x="0" y="0">8+</tspan></text>
    </g>
  </g>
  <g id="Group_943" data-name="Group 943" transform="translate(194.281 26.961)">
    <line id="Line_49" data-name="Line 49" y1="33.641" x2="27.19" transform="translate(2.897)" fill="none" stroke="#ed1c24" stroke-miterlimit="10" stroke-width="4.252"/>
    <line id="Line_50" data-name="Line 50" x2="27.19" y2="33.641" transform="translate(0 81.955)" fill="none" stroke="#ed1c24" stroke-miterlimit="10" stroke-width="4.252"/>
    <line id="Line_51" data-name="Line 51" y1="14.286" x2="36.176" transform="translate(14.418 40.093)" fill="none" stroke="#ed1c24" stroke-miterlimit="10" stroke-width="4.252"/>
    <line id="Line_52" data-name="Line 52" x2="36.176" y2="14.286" transform="translate(14.418 66.591)" fill="none" stroke="#ed1c24" stroke-miterlimit="10" stroke-width="4.252"/>
  </g>
  <g id="Group_944" data-name="Group 944" transform="translate(113.615 26.961)">
    <line id="Line_53" data-name="Line 53" x1="27.19" y1="33.641" transform="translate(20.507)" fill="none" stroke="#ed1c24" stroke-miterlimit="10" stroke-width="4.252"/>
    <line id="Line_54" data-name="Line 54" x1="27.19" y2="33.641" transform="translate(23.405 81.955)" fill="none" stroke="#ed1c24" stroke-miterlimit="10" stroke-width="4.252"/>
    <line id="Line_55" data-name="Line 55" x1="36.176" y1="14.286" transform="translate(0 40.093)" fill="none" stroke="#ed1c24" stroke-miterlimit="10" stroke-width="4.252"/>
    <line id="Line_56" data-name="Line 56" x1="36.176" y2="14.286" transform="translate(0 66.591)" fill="none" stroke="#ed1c24" stroke-miterlimit="10" stroke-width="4.252"/>
  </g>
  <g id="Group_945" data-name="Group 945" transform="translate(169.357 62.615)">
    <path id="Path_1140" data-name="Path 1140" d="M-529.38,400.782l-4.8-2.4a1.326,1.326,0,0,1-.734-1.19v-1.7q.173-.214.361-.479a11.484,11.484,0,0,0,1.486-2.917,1.993,1.993,0,0,0,1.171-1.816v-2.014a2,2,0,0,0-.5-1.318v-2.676a4.507,4.507,0,0,0-1.051-3.28c-1.033-1.178-2.71-1.775-4.983-1.775s-3.947.6-4.98,1.775a4.494,4.494,0,0,0-1.051,3.28v2.676a2,2,0,0,0-.5,1.318v2.014a1.992,1.992,0,0,0,.753,1.561,10.523,10.523,0,0,0,1.76,3.638v1.664a1.328,1.328,0,0,1-.693,1.166l-4.484,2.447A4.532,4.532,0,0,0-550,404.739v1.628c0,2.386,7.563,3.017,11.562,3.017s11.565-.631,11.565-3.017v-1.529a4.514,4.514,0,0,0-2.507-4.056Zm1.5,5.585c0,.682-3.726,2.01-10.558,2.01s-10.555-1.328-10.555-2.01v-1.628a3.528,3.528,0,0,1,1.838-3.1l4.485-2.448a2.335,2.335,0,0,0,1.218-2.05v-2.02l-.118-.14a9.484,9.484,0,0,1-1.713-3.552l-.047-.2-.172-.111a1,1,0,0,1-.464-.841v-2.014a.988.988,0,0,1,.336-.741l.164-.15v-3.13l0-.066a3.477,3.477,0,0,1,.805-2.524c.835-.95,2.256-1.431,4.224-1.431s3.383.476,4.217,1.421a3.522,3.522,0,0,1,.815,2.534l-.005,3.2.167.153a.988.988,0,0,1,.336.738v2.014a1,1,0,0,1-.715.955l-.25.076-.081.248a10.546,10.546,0,0,1-1.423,2.872,6.4,6.4,0,0,1-.422.542l-.126.143v2.074a2.324,2.324,0,0,0,1.292,2.089l4.8,2.4a3.507,3.507,0,0,1,1.951,3.157Zm0,0" transform="translate(550 -379.219)" fill="#fff200"/>
  </g>
</svg>
