<svg xmlns="http://www.w3.org/2000/svg" width="24" height="24" viewBox="0 0 24 24">
  <g id="Group_1319" data-name="Group 1319" transform="translate(-965 -9007)">
    <rect id="Rectangle_1827" data-name="Rectangle 1827" width="24" height="24" transform="translate(965 9007)" fill="none"/>
    <path id="Path_2524" data-name="Path 2524" d="M45.52,21.262A13.73,13.73,0,0,0,59.373,7.409V6.75a10.724,10.724,0,0,0,2.375-2.507,10.952,10.952,0,0,1-2.771.792A5.133,5.133,0,0,0,61.088,2.4a12.1,12.1,0,0,1-3.034,1.187A4.712,4.712,0,0,0,54.492,2,4.957,4.957,0,0,0,49.61,6.882a2.572,2.572,0,0,0,.132,1.055A13.64,13.64,0,0,1,39.715,2.792a5.053,5.053,0,0,0-.66,2.507,5.242,5.242,0,0,0,2.111,4.09,4.448,4.448,0,0,1-2.243-.66h0a4.822,4.822,0,0,0,3.958,4.75,4.067,4.067,0,0,1-1.319.132,2.245,2.245,0,0,1-.924-.132,5,5,0,0,0,4.618,3.43,9.961,9.961,0,0,1-6.069,2.111A3.653,3.653,0,0,1,38,18.887a12.453,12.453,0,0,0,7.52,2.375" transform="translate(927.252 9007.582)" fill="#fff" fill-rule="evenodd"/>
  </g>
</svg>
